<?xml version="1.0" encoding="utf-8" standalone="no"?>
<!DOCTYPE svg PUBLIC "-//W3C//DTD SVG 1.1//EN"
  "http://www.w3.org/Graphics/SVG/1.1/DTD/svg11.dtd">
<svg xmlns:xlink="http://www.w3.org/1999/xlink" width="712.954687pt" height="424.611562pt" viewBox="0 0 712.954687 424.611562" xmlns="http://www.w3.org/2000/svg" version="1.1">
 <metadata>
  <rdf:RDF xmlns:dc="http://purl.org/dc/elements/1.1/" xmlns:cc="http://creativecommons.org/ns#" xmlns:rdf="http://www.w3.org/1999/02/22-rdf-syntax-ns#">
   <cc:Work>
    <dc:type rdf:resource="http://purl.org/dc/dcmitype/StillImage"/>
    <dc:date>2025-04-12T19:14:15.692727</dc:date>
    <dc:format>image/svg+xml</dc:format>
    <dc:creator>
     <cc:Agent>
      <dc:title>Matplotlib v3.9.2, https://matplotlib.org/</dc:title>
     </cc:Agent>
    </dc:creator>
   </cc:Work>
  </rdf:RDF>
 </metadata>
 <defs>
  <style type="text/css">*{stroke-linejoin: round; stroke-linecap: butt}</style>
 </defs>
 <g id="figure_1">
  <g id="patch_1">
   <path d="M 0 424.611562 
L 712.954687 424.611562 
L 712.954687 0 
L 0 0 
z
" style="fill: #ffffff"/>
  </g>
  <g id="axes_1">
   <g id="patch_2">
    <path d="M 37.100625 387.394687 
L 670.168125 387.394687 
L 670.168125 23.811562 
L 37.100625 23.811562 
z
" style="fill: #ffffff"/>
   </g>
   <g id="matplotlib.axis_1">
    <g id="xtick_1">
     <g id="line2d_1">
      <path d="M 100.407375 387.394687 
L 100.407375 23.811562 
" clip-path="url(#pf765d7f43b)" style="fill: none; stroke-dasharray: 2.96,1.28; stroke-dashoffset: 0; stroke: #cccccc; stroke-opacity: 0.7; stroke-width: 0.8"/>
     </g>
     <g id="line2d_2"/>
     <g id="text_1">
      <!-- 0.6 -->
      <g style="fill: #262626" transform="translate(93.962063 398.054062) scale(0.1 -0.1)">
       <defs>
        <path id="LXGW-Bright-Regular-30" d="M 1632 -38 
Q 1235 -38 937 221 
Q 640 480 480 960 
Q 320 1440 320 2074 
Q 320 2720 489 3213 
Q 659 3706 969 3978 
Q 1280 4250 1683 4250 
Q 2074 4250 2368 3987 
Q 2662 3725 2822 3248 
Q 2982 2771 2982 2144 
Q 2982 1491 2812 998 
Q 2643 506 2336 234 
Q 2029 -38 1632 -38 
z
M 1677 333 
Q 2067 333 2294 803 
Q 2522 1274 2522 2061 
Q 2522 2605 2410 3014 
Q 2298 3424 2096 3651 
Q 1894 3878 1632 3878 
Q 1242 3878 1011 3408 
Q 781 2938 781 2157 
Q 781 1613 893 1200 
Q 1005 787 1209 560 
Q 1414 333 1677 333 
z
" transform="scale(0.015625)"/>
        <path id="LXGW-Bright-Regular-2e" d="M 819 -32 
Q 672 -32 579 57 
Q 486 147 486 288 
Q 486 435 579 524 
Q 672 614 819 614 
Q 960 614 1049 524 
Q 1139 435 1139 288 
Q 1139 147 1052 57 
Q 966 -32 819 -32 
z
" transform="scale(0.015625)"/>
        <path id="LXGW-Bright-Regular-36" d="M 1933 2368 
Q 2470 2368 2755 2051 
Q 3040 1734 3040 1235 
Q 3040 864 2873 576 
Q 2707 288 2406 125 
Q 2106 -38 1715 -38 
Q 1075 -38 716 397 
Q 358 832 358 1562 
Q 358 2266 668 2854 
Q 979 3443 1526 3814 
Q 2074 4186 2752 4262 
L 2835 3904 
Q 2317 3853 1888 3593 
Q 1459 3334 1180 2912 
Q 902 2490 832 1965 
Q 1312 2368 1933 2368 
z
M 806 1613 
Q 806 1024 1065 662 
Q 1325 301 1779 301 
Q 2144 301 2368 531 
Q 2592 762 2592 1152 
Q 2592 1542 2374 1788 
Q 2157 2035 1754 2035 
Q 1504 2035 1251 1936 
Q 998 1837 806 1651 
L 806 1613 
z
" transform="scale(0.015625)"/>
       </defs>
       <use xlink:href="#LXGW-Bright-Regular-30"/>
       <use xlink:href="#LXGW-Bright-Regular-2e" x="51.699997"/>
       <use xlink:href="#LXGW-Bright-Regular-36" x="77.199982"/>
      </g>
     </g>
    </g>
    <g id="xtick_2">
     <g id="line2d_3">
      <path d="M 227.020875 387.394687 
L 227.020875 23.811562 
" clip-path="url(#pf765d7f43b)" style="fill: none; stroke-dasharray: 2.96,1.28; stroke-dashoffset: 0; stroke: #cccccc; stroke-opacity: 0.7; stroke-width: 0.8"/>
     </g>
     <g id="line2d_4"/>
     <g id="text_2">
      <!-- 0.8 -->
      <g style="fill: #262626" transform="translate(220.575562 398.054062) scale(0.1 -0.1)">
       <defs>
        <path id="LXGW-Bright-Regular-38" d="M 1658 -38 
Q 1293 -38 1005 90 
Q 717 218 553 448 
Q 390 678 390 986 
Q 390 1728 1293 2214 
Q 922 2419 717 2649 
Q 512 2880 512 3226 
Q 512 3680 845 3965 
Q 1178 4250 1734 4250 
Q 2240 4250 2550 4003 
Q 2861 3757 2861 3354 
Q 2861 3027 2656 2755 
Q 2451 2483 2080 2266 
Q 2515 2042 2755 1782 
Q 2995 1523 2995 1107 
Q 2995 781 2828 518 
Q 2662 256 2358 109 
Q 2054 -38 1658 -38 
z
M 826 1075 
Q 826 710 1082 499 
Q 1338 288 1728 288 
Q 2118 288 2339 499 
Q 2560 710 2560 1024 
Q 2560 1280 2425 1469 
Q 2291 1658 2092 1782 
Q 1894 1907 1562 2080 
Q 826 1677 826 1075 
z
M 934 3283 
Q 934 3078 1049 2921 
Q 1165 2765 1341 2653 
Q 1517 2541 1805 2400 
Q 2445 2765 2445 3258 
Q 2445 3558 2233 3744 
Q 2022 3930 1677 3930 
Q 1338 3930 1136 3754 
Q 934 3578 934 3283 
z
" transform="scale(0.015625)"/>
       </defs>
       <use xlink:href="#LXGW-Bright-Regular-30"/>
       <use xlink:href="#LXGW-Bright-Regular-2e" x="51.699997"/>
       <use xlink:href="#LXGW-Bright-Regular-38" x="77.199982"/>
      </g>
     </g>
    </g>
    <g id="xtick_3">
     <g id="line2d_5">
      <path d="M 353.634375 387.394687 
L 353.634375 23.811562 
" clip-path="url(#pf765d7f43b)" style="fill: none; stroke-dasharray: 2.96,1.28; stroke-dashoffset: 0; stroke: #cccccc; stroke-opacity: 0.7; stroke-width: 0.8"/>
     </g>
     <g id="line2d_6"/>
     <g id="text_3">
      <!-- 1.0 -->
      <g style="fill: #262626" transform="translate(347.189062 398.054062) scale(0.1 -0.1)">
       <defs>
        <path id="LXGW-Bright-Regular-31" d="M 1850 3622 
L 704 2784 
L 474 3123 
L 2061 4211 
L 2285 4211 
L 2285 0 
L 1850 0 
L 1850 3622 
z
" transform="scale(0.015625)"/>
       </defs>
       <use xlink:href="#LXGW-Bright-Regular-31"/>
       <use xlink:href="#LXGW-Bright-Regular-2e" x="51.699997"/>
       <use xlink:href="#LXGW-Bright-Regular-30" x="77.199982"/>
      </g>
     </g>
    </g>
    <g id="xtick_4">
     <g id="line2d_7">
      <path d="M 480.247875 387.394687 
L 480.247875 23.811562 
" clip-path="url(#pf765d7f43b)" style="fill: none; stroke-dasharray: 2.96,1.28; stroke-dashoffset: 0; stroke: #cccccc; stroke-opacity: 0.7; stroke-width: 0.8"/>
     </g>
     <g id="line2d_8"/>
     <g id="text_4">
      <!-- 1.2 -->
      <g style="fill: #262626" transform="translate(473.802563 398.054062) scale(0.1 -0.1)">
       <defs>
        <path id="LXGW-Bright-Regular-32" d="M 371 237 
Q 1408 1248 1894 1897 
Q 2381 2547 2381 3085 
Q 2381 3443 2176 3660 
Q 1971 3878 1626 3878 
Q 1344 3878 1107 3702 
Q 870 3526 736 3155 
L 403 3302 
Q 608 3795 950 4022 
Q 1293 4250 1715 4250 
Q 2234 4250 2525 3942 
Q 2816 3635 2816 3162 
Q 2816 2573 2358 1897 
Q 1901 1222 1011 384 
L 2995 384 
L 2995 0 
L 442 0 
L 371 237 
z
" transform="scale(0.015625)"/>
       </defs>
       <use xlink:href="#LXGW-Bright-Regular-31"/>
       <use xlink:href="#LXGW-Bright-Regular-2e" x="51.699997"/>
       <use xlink:href="#LXGW-Bright-Regular-32" x="77.199982"/>
      </g>
     </g>
    </g>
    <g id="xtick_5">
     <g id="line2d_9">
      <path d="M 606.861375 387.394687 
L 606.861375 23.811562 
" clip-path="url(#pf765d7f43b)" style="fill: none; stroke-dasharray: 2.96,1.28; stroke-dashoffset: 0; stroke: #cccccc; stroke-opacity: 0.7; stroke-width: 0.8"/>
     </g>
     <g id="line2d_10"/>
     <g id="text_5">
      <!-- 1.4 -->
      <g style="fill: #262626" transform="translate(600.416062 398.054062) scale(0.1 -0.1)">
       <defs>
        <path id="LXGW-Bright-Regular-34" d="M 2496 1446 
L 3130 1446 
L 3130 1088 
L 2496 1088 
L 2502 0 
L 2093 0 
L 2093 1088 
L 307 1088 
L 154 1344 
L 2112 4243 
L 2483 4211 
L 2496 1446 
z
M 2093 1446 
L 2099 3603 
L 659 1446 
L 2093 1446 
z
" transform="scale(0.015625)"/>
       </defs>
       <use xlink:href="#LXGW-Bright-Regular-31"/>
       <use xlink:href="#LXGW-Bright-Regular-2e" x="51.699997"/>
       <use xlink:href="#LXGW-Bright-Regular-34" x="77.199982"/>
      </g>
     </g>
    </g>
    <g id="text_6">
     <!-- 重力系数 f (相比地球标准重力) -->
     <g style="fill: #262626" transform="translate(272.004375 413.942812) scale(0.12 -0.12)">
      <defs>
       <path id="LXGW-Bright-Regular-91cd" d="M 1542 1331 
Q 1562 1504 1562 1555 
L 1562 1632 
Q 1562 1658 1555 1683 
L 1446 2733 
Q 1434 2906 1379 3027 
Q 1325 3149 1325 3181 
Q 1325 3213 1408 3213 
Q 1491 3213 1818 3104 
L 2970 3168 
L 2970 3610 
L 1126 3514 
L 928 3501 
Q 800 3501 742 3558 
Q 563 3738 563 3795 
Q 563 3853 608 3853 
L 634 3853 
Q 787 3834 902 3834 
L 979 3834 
L 2976 3942 
L 2976 4320 
Q 2605 4275 2230 4259 
Q 1856 4243 1472 4218 
L 1408 4218 
Q 1197 4218 1197 4294 
Q 1197 4384 1446 4422 
Q 3264 4659 4301 4966 
Q 4467 5018 4534 5085 
Q 4602 5152 4643 5152 
Q 4685 5152 4765 5072 
Q 4845 4992 4902 4899 
Q 4960 4806 4960 4762 
Q 4960 4691 4870 4672 
Q 4077 4486 3366 4378 
L 3366 3962 
L 5190 4064 
Q 5222 4070 5491 4122 
Q 5517 4122 5594 4077 
Q 5811 3949 5811 3840 
Q 5811 3776 5670 3763 
L 3360 3635 
L 3360 3187 
L 4678 3258 
L 4723 3258 
Q 4890 3258 4954 3158 
Q 5018 3059 5018 3024 
Q 5018 2989 5002 2953 
Q 4986 2918 4979 2886 
L 4826 1722 
Q 4973 1549 4973 1491 
Q 4973 1434 4925 1430 
Q 4877 1427 4806 1421 
L 3347 1363 
L 3347 902 
L 4557 947 
Q 4698 973 4762 989 
Q 4826 1005 4854 1005 
Q 4883 1005 4966 960 
Q 5171 832 5171 717 
Q 5171 646 4992 634 
L 3347 570 
L 3341 13 
L 5382 64 
Q 5542 64 5644 93 
Q 5747 122 5792 122 
Q 5837 122 5907 58 
Q 5978 -6 6032 -86 
Q 6086 -166 6086 -205 
Q 6086 -269 5958 -282 
L 883 -403 
L 749 -410 
Q 550 -410 499 -346 
Q 352 -141 352 -70 
Q 352 0 397 0 
Q 621 -45 794 -45 
L 2957 6 
L 2957 557 
L 1670 506 
L 1530 506 
Q 1402 506 1350 557 
Q 1178 730 1178 845 
Q 1178 890 1222 890 
Q 1248 890 1321 867 
Q 1395 845 1549 845 
L 1606 845 
L 2963 890 
L 2963 1350 
L 1965 1312 
L 1971 1235 
L 1971 1216 
Q 1971 1107 1875 1107 
Q 1818 1107 1718 1152 
Q 1619 1197 1580 1232 
Q 1542 1267 1542 1331 
z
M 4563 2938 
L 3360 2880 
L 3354 2445 
L 4525 2502 
L 4563 2938 
z
M 2970 2861 
L 1824 2803 
L 1862 2374 
L 2970 2426 
L 2970 2861 
z
M 4499 2195 
L 3354 2144 
L 3354 1670 
L 4461 1715 
L 4499 2195 
z
M 2963 2125 
L 1894 2080 
L 1933 1613 
L 2963 1658 
L 2963 2125 
z
" transform="scale(0.015625)"/>
       <path id="LXGW-Bright-Regular-529b" d="M 5171 3635 
L 5267 3642 
Q 5376 3642 5475 3562 
Q 5574 3482 5574 3414 
Q 5574 3347 5555 3305 
Q 5536 3264 5530 3232 
Q 5478 2118 5347 1315 
Q 5216 512 5155 262 
Q 5094 13 5059 -153 
Q 5024 -320 4909 -429 
Q 4794 -538 4662 -538 
Q 4531 -538 4396 -454 
Q 4262 -371 3990 -182 
Q 3718 6 3404 281 
Q 3091 557 3091 637 
Q 3091 717 3161 717 
Q 3232 717 3427 601 
Q 3622 486 4057 265 
Q 4493 45 4557 45 
Q 4621 45 4627 96 
Q 5018 1459 5082 3245 
L 3309 3155 
Q 3040 1920 2342 998 
Q 1792 269 1133 -166 
Q 858 -352 672 -435 
Q 486 -518 428 -518 
Q 371 -518 371 -457 
Q 371 -397 480 -320 
Q 1664 499 2253 1626 
Q 2630 2336 2822 3130 
L 1517 3059 
L 1318 3053 
L 1261 3053 
Q 1146 3078 1075 3187 
Q 960 3379 960 3433 
Q 960 3488 1011 3488 
Q 1043 3488 1120 3469 
Q 1197 3450 1325 3450 
L 1382 3450 
L 2912 3514 
Q 3021 4128 3021 4768 
Q 3021 4947 2995 5008 
Q 2970 5069 2970 5107 
Q 2970 5171 3043 5171 
Q 3117 5171 3226 5133 
Q 3507 5043 3507 4941 
Q 3494 4198 3379 3539 
L 5171 3635 
z
" transform="scale(0.015625)"/>
       <path id="LXGW-Bright-Regular-7cfb" d="M 3034 1504 
Q 1408 1357 1254 1357 
Q 1101 1357 1001 1421 
Q 902 1485 819 1741 
Q 813 1754 813 1786 
Q 813 1818 858 1818 
Q 870 1818 883 1818 
Q 896 1818 1017 1789 
Q 1139 1760 1299 1760 
L 1344 1760 
L 1734 1779 
Q 2490 2330 2758 2547 
Q 2419 2739 2144 2915 
Q 1869 3091 1626 3174 
Q 1459 3238 1459 3334 
Q 1459 3405 1532 3494 
Q 1606 3584 1660 3584 
Q 1715 3584 1785 3552 
Q 1856 3520 1920 3485 
Q 1984 3450 2042 3424 
Q 2573 3834 2867 4243 
Q 2899 4288 2918 4346 
Q 2342 4275 1331 4192 
L 1293 4192 
Q 1120 4192 1120 4278 
Q 1120 4365 1306 4397 
Q 3994 4800 4410 5062 
Q 4480 5107 4512 5145 
Q 4544 5184 4585 5184 
Q 4627 5184 4752 5046 
Q 4877 4909 4877 4800 
Q 4877 4691 4800 4672 
Q 3974 4486 3181 4378 
Q 3334 4262 3334 4198 
Q 3334 4134 3251 4032 
Q 3149 3923 2758 3584 
Q 2547 3411 2336 3251 
Q 2490 3162 3053 2797 
Q 3962 3584 4096 3821 
Q 4128 3885 4147 3936 
Q 4166 3987 4195 3987 
Q 4224 3987 4314 3930 
Q 4557 3750 4557 3642 
Q 4557 3597 4506 3558 
Q 3366 2528 2304 1811 
Q 3398 1875 4595 2003 
Q 4416 2182 4281 2291 
Q 4147 2400 4147 2454 
Q 4147 2509 4220 2595 
Q 4294 2682 4345 2682 
Q 4397 2682 4544 2573 
Q 4883 2304 5270 1907 
Q 5658 1510 5658 1430 
Q 5658 1350 5571 1257 
Q 5485 1165 5427 1165 
Q 5370 1165 5200 1373 
Q 5030 1581 4915 1702 
Q 4307 1626 3424 1542 
L 3430 -58 
L 3437 -269 
Q 3437 -371 3347 -480 
Q 3258 -589 3155 -589 
Q 3053 -589 2845 -496 
Q 2637 -403 2320 -169 
Q 2003 64 2003 134 
Q 2003 179 2064 179 
Q 2125 179 2329 96 
Q 2534 13 3040 -115 
L 3034 1504 
z
M 2285 838 
Q 1888 371 1347 16 
Q 806 -339 723 -345 
Q 640 -352 640 -320 
Q 634 -250 730 -173 
Q 1082 122 1344 403 
Q 1811 896 1843 1152 
Q 1856 1248 1917 1251 
Q 1978 1254 2074 1190 
Q 2170 1126 2250 1046 
Q 2330 966 2333 931 
Q 2336 896 2285 838 
z
M 5632 6 
Q 5619 -115 5516 -217 
Q 5414 -320 5356 -313 
Q 5299 -307 5229 -218 
Q 4806 339 4147 954 
Q 4064 1030 4070 1065 
Q 4077 1101 4109 1155 
Q 4141 1210 4195 1254 
Q 4250 1299 4307 1292 
Q 4365 1286 4707 985 
Q 5050 685 5568 115 
Q 5638 45 5632 6 
z
" transform="scale(0.015625)"/>
       <path id="LXGW-Bright-Regular-6570" d="M 5510 3302 
Q 5267 2163 4851 1350 
Q 5357 512 6214 -205 
Q 6285 -262 6285 -300 
Q 6285 -339 6160 -425 
Q 6035 -512 5961 -512 
Q 5888 -512 5843 -467 
Q 5139 237 4659 998 
Q 4237 326 3674 -154 
Q 3443 -352 3286 -451 
Q 3130 -550 3085 -550 
Q 3040 -550 3040 -499 
Q 3040 -448 3130 -358 
Q 3552 58 3865 461 
Q 4179 864 4448 1370 
Q 4179 1888 3917 2688 
Q 3718 2304 3552 2089 
Q 3386 1875 3328 1875 
Q 3290 1875 3290 1939 
Q 3290 2003 3334 2099 
Q 3898 3341 4096 4403 
Q 4160 4768 4160 4829 
Q 4160 4890 4141 4973 
L 4141 4986 
Q 4141 5043 4205 5043 
Q 4243 5043 4339 5005 
Q 4621 4883 4621 4742 
Q 4621 4678 4496 4246 
Q 4371 3814 4275 3546 
L 5338 3616 
Q 5472 3629 5571 3661 
Q 5670 3693 5728 3693 
Q 5786 3693 5862 3629 
Q 6048 3482 6048 3398 
Q 6048 3341 5920 3328 
L 5510 3302 
z
M 1798 2432 
Q 1830 2624 1830 2790 
L 1830 2925 
Q 1830 2970 1843 3059 
L 1862 3142 
Q 1811 3053 1754 2976 
Q 1280 2490 762 2214 
Q 557 2106 502 2106 
Q 448 2106 448 2144 
Q 448 2202 550 2278 
Q 1114 2707 1645 3309 
L 992 3264 
L 915 3264 
Q 851 3264 758 3302 
Q 666 3341 614 3539 
Q 608 3552 608 3574 
Q 608 3597 633 3597 
Q 659 3597 713 3581 
Q 768 3565 870 3565 
L 1830 3622 
L 1830 4621 
Q 1830 4781 1795 4851 
Q 1760 4922 1760 4957 
Q 1760 4992 1811 4992 
Q 1862 4992 1952 4973 
Q 2202 4922 2202 4794 
L 2195 3642 
L 2931 3693 
Q 3072 3699 3136 3721 
Q 3200 3744 3257 3744 
Q 3315 3744 3408 3651 
Q 3501 3558 3501 3494 
Q 3501 3430 3366 3418 
L 2189 3341 
L 2189 3162 
Q 2234 3245 2307 3245 
Q 2381 3245 2736 3037 
Q 3091 2829 3187 2758 
Q 3283 2688 3283 2624 
Q 3283 2560 3219 2477 
Q 3155 2394 3113 2394 
Q 3072 2394 3002 2445 
Q 2662 2733 2227 2982 
Q 2221 2989 2211 3001 
Q 2202 3014 2189 3021 
L 2182 2368 
Q 2182 2208 2083 2208 
Q 1984 2208 1891 2281 
Q 1798 2355 1798 2432 
z
M 2822 4666 
Q 2835 4749 2880 4749 
Q 2899 4749 2970 4698 
Q 3187 4563 3187 4473 
Q 3187 4384 2931 4160 
Q 2458 3744 2323 3744 
Q 2291 3744 2291 3782 
Q 2291 3821 2467 4022 
Q 2643 4224 2784 4486 
Q 2822 4538 2822 4666 
z
M 1440 4201 
Q 1530 4109 1594 4029 
Q 1658 3949 1658 3910 
Q 1658 3872 1578 3798 
Q 1498 3725 1446 3725 
Q 1395 3725 1325 3821 
Q 1114 4109 909 4314 
Q 864 4371 864 4406 
Q 864 4442 918 4502 
Q 973 4563 1021 4563 
Q 1069 4563 1117 4518 
Q 1165 4474 1257 4384 
Q 1350 4294 1440 4201 
z
M 4160 3232 
L 4134 3162 
Q 4346 2342 4634 1754 
Q 4915 2432 5062 3283 
L 4160 3232 
z
M 2554 1920 
L 2547 2016 
Q 2547 2080 2604 2080 
Q 2662 2080 2739 2035 
Q 2950 1920 2950 1760 
L 2950 1747 
L 3341 1786 
L 3411 1792 
Q 3558 1792 3558 1728 
Q 3558 1645 3360 1606 
Q 3162 1568 2874 1523 
Q 2669 915 2336 499 
Q 2726 275 2905 156 
Q 3085 38 3085 -32 
Q 3085 -102 3033 -208 
Q 2982 -314 2918 -314 
Q 2854 -314 2640 -134 
Q 2426 45 2080 243 
Q 1466 -326 602 -474 
Q 454 -499 448 -499 
Q 352 -499 352 -454 
Q 352 -378 621 -282 
Q 1280 -45 1786 422 
Q 1382 646 1229 685 
Q 1120 710 1120 858 
Q 1120 902 1331 1280 
L 877 1235 
Q 774 1222 710 1222 
Q 461 1222 358 1581 
L 358 1600 
Q 358 1638 390 1638 
Q 422 1638 499 1619 
Q 576 1600 704 1600 
L 774 1600 
Q 947 1606 1129 1616 
Q 1312 1626 1504 1632 
Q 1670 2003 1670 2131 
L 1670 2195 
Q 1670 2272 1705 2272 
Q 1741 2272 1818 2227 
Q 2042 2093 2042 1978 
Q 2042 1920 1920 1658 
Q 2080 1670 2217 1686 
Q 2355 1702 2522 1715 
L 2541 1792 
Q 2554 1856 2554 1920 
z
M 1517 928 
Q 1683 858 2029 666 
Q 2272 973 2445 1453 
L 1754 1338 
Q 1690 1222 1635 1123 
Q 1581 1024 1517 928 
z
" transform="scale(0.015625)"/>
       <path id="LXGW-Bright-Regular-20" transform="scale(0.015625)"/>
       <path id="LXGW-Bright-Regular-66" d="M 730 2739 
Q 730 3610 1133 4080 
Q 1536 4550 2208 4550 
Q 2637 4550 2918 4346 
L 2733 4019 
Q 2419 4237 2074 4237 
Q 1555 4237 1360 3824 
Q 1165 3411 1165 2854 
L 1165 2592 
L 2221 2605 
L 2189 2285 
L 1165 2291 
L 1165 0 
L 730 0 
L 730 2291 
L 186 2291 
L 218 2579 
L 730 2586 
L 730 2739 
z
" transform="scale(0.015625)"/>
       <path id="LXGW-Bright-Regular-28" d="M 2022 -1427 
Q 1536 -1190 1168 -736 
Q 800 -282 598 310 
Q 397 902 397 1555 
Q 397 2208 598 2806 
Q 800 3405 1168 3859 
Q 1536 4314 2022 4550 
L 2170 4326 
Q 1536 3930 1193 3210 
Q 851 2490 851 1555 
Q 851 621 1193 -92 
Q 1536 -806 2170 -1203 
L 2022 -1427 
z
" transform="scale(0.015625)"/>
       <path id="LXGW-Bright-Regular-76f8" d="M 819 3347 
L 1722 3424 
L 1734 4621 
Q 1734 4794 1676 4874 
Q 1619 4954 1619 4986 
Q 1619 5037 1702 5037 
L 1766 5030 
Q 2131 4960 2131 4781 
L 2112 3462 
L 2483 3494 
Q 2605 3507 2669 3529 
Q 2733 3552 2771 3552 
Q 2810 3552 2886 3494 
Q 3091 3354 3091 3258 
Q 3091 3187 2944 3174 
L 2112 3104 
L 2106 2566 
Q 2189 2630 2240 2630 
Q 2291 2630 2438 2518 
Q 2586 2406 2822 2150 
Q 3059 1894 3059 1830 
Q 3059 1766 2979 1686 
Q 2899 1606 2832 1606 
Q 2765 1606 2675 1728 
Q 2438 2042 2099 2355 
L 2067 -474 
Q 2067 -640 1958 -640 
Q 1818 -640 1718 -547 
Q 1619 -454 1619 -390 
Q 1619 -326 1651 -192 
Q 1683 -58 1683 166 
L 1690 346 
Q 1690 1830 1728 2368 
L 1728 2458 
Q 1523 1843 973 1197 
Q 749 934 566 780 
Q 384 627 339 627 
Q 294 627 294 675 
Q 294 723 371 826 
Q 1101 1754 1632 3059 
L 1024 3008 
Q 934 2995 858 2995 
Q 698 2995 598 3126 
Q 499 3258 499 3325 
Q 499 3392 531 3392 
Q 614 3379 684 3363 
Q 755 3347 819 3347 
z
M 5696 4013 
L 5651 3846 
L 5562 410 
Q 5734 237 5734 160 
Q 5734 83 5683 57 
Q 5632 32 5562 26 
L 3680 -38 
L 3686 -339 
Q 3686 -474 3584 -474 
L 3494 -448 
Q 3245 -390 3245 -224 
Q 3245 -186 3264 -93 
Q 3283 0 3283 275 
L 3219 3757 
Q 3219 3968 3177 4073 
Q 3136 4179 3136 4218 
Q 3136 4282 3235 4282 
Q 3334 4282 3629 4141 
L 5306 4250 
L 5414 4256 
Q 5606 4256 5670 4090 
Q 5696 4032 5696 4013 
z
M 5235 3891 
L 3616 3789 
L 3629 2944 
L 5216 3034 
L 5235 3891 
z
M 5210 2682 
L 3635 2598 
L 3654 1677 
L 5190 1760 
L 5210 2682 
z
M 5184 1402 
L 3661 1331 
L 3674 333 
L 5165 384 
L 5184 1402 
z
" transform="scale(0.015625)"/>
       <path id="LXGW-Bright-Regular-6bd4" d="M 3494 4570 
Q 3494 4742 3379 4902 
Q 3347 4954 3347 4992 
Q 3347 5030 3404 5030 
Q 3462 5030 3584 5005 
Q 3910 4922 3910 4768 
L 3898 2560 
Q 4589 2944 5030 3354 
Q 5139 3450 5197 3661 
Q 5216 3744 5274 3744 
Q 5312 3744 5389 3674 
Q 5613 3482 5613 3309 
Q 5613 3238 5568 3213 
Q 5178 2938 4784 2666 
Q 4390 2394 3898 2170 
L 3885 435 
Q 3885 301 3926 224 
Q 3968 147 4134 118 
Q 4301 90 4704 90 
Q 5107 90 5305 122 
Q 5504 154 5561 189 
Q 5619 224 5692 374 
Q 5766 525 5875 1229 
Q 5926 1530 6003 1530 
Q 6061 1530 6080 1392 
Q 6099 1254 6099 854 
Q 6099 454 6073 224 
Q 6048 -6 5923 -121 
Q 5798 -237 5510 -275 
Q 5222 -314 4752 -314 
Q 4282 -314 4010 -278 
Q 3738 -243 3606 -92 
Q 3475 58 3475 403 
L 3494 4570 
z
M 1306 4333 
Q 1306 4512 1197 4659 
Q 1165 4710 1165 4742 
Q 1165 4774 1248 4774 
Q 1331 4774 1485 4723 
Q 1715 4653 1715 4525 
L 1709 2829 
L 2406 2861 
Q 2598 2880 2668 2905 
Q 2739 2931 2800 2931 
Q 2861 2931 2937 2867 
Q 3014 2803 3068 2726 
Q 3123 2650 3123 2611 
Q 3123 2528 2950 2515 
L 1709 2451 
L 1702 429 
Q 2470 794 2925 1075 
Q 3046 1152 3116 1152 
Q 3187 1152 3187 1107 
Q 3187 992 2816 730 
Q 2221 301 1769 38 
Q 1318 -224 1152 -304 
Q 986 -384 922 -384 
Q 858 -384 778 -342 
Q 698 -301 602 -195 
Q 506 -90 506 -45 
Q 506 0 685 22 
Q 864 45 1299 250 
L 1306 4333 
z
" transform="scale(0.015625)"/>
       <path id="LXGW-Bright-Regular-5730" d="M 4365 896 
Q 4365 736 4256 736 
Q 4243 736 4166 768 
Q 3949 845 3949 1011 
L 3949 1056 
Q 3974 1261 3974 1485 
L 3981 2810 
L 3290 2534 
L 3264 442 
Q 3264 269 3331 201 
Q 3398 134 3584 115 
Q 4474 6 5485 147 
Q 5594 166 5664 198 
Q 5734 230 5795 358 
Q 5856 486 5971 1229 
Q 6010 1504 6090 1504 
Q 6170 1504 6176 1261 
Q 6182 1018 6182 778 
Q 6182 538 6156 291 
Q 6131 45 6012 -92 
Q 5894 -230 5594 -262 
Q 4922 -333 4410 -333 
Q 3898 -333 3558 -304 
Q 3219 -275 3049 -118 
Q 2880 38 2880 352 
L 2880 365 
L 2906 2381 
L 2566 2246 
Q 2464 2208 2377 2208 
Q 2291 2208 2204 2275 
Q 2118 2342 2074 2406 
Q 2067 2426 2057 2442 
Q 2048 2458 2048 2464 
Q 2048 2502 2134 2502 
Q 2221 2502 2451 2579 
L 2912 2765 
L 2918 3546 
Q 2918 3750 2835 3853 
Q 2803 3898 2803 3910 
Q 2803 3949 2870 3949 
Q 2938 3949 3098 3904 
Q 3258 3859 3280 3801 
Q 3302 3744 3302 3667 
L 3296 2918 
L 3981 3194 
L 3987 4653 
Q 3987 4851 3885 4979 
Q 3866 5011 3866 5030 
Q 3866 5069 3946 5069 
Q 4026 5069 4160 5030 
Q 4294 4992 4336 4944 
Q 4378 4896 4378 4806 
L 4371 3354 
L 5312 3731 
Q 5376 3763 5430 3763 
Q 5485 3763 5587 3699 
Q 5690 3635 5690 3571 
Q 5690 3507 5674 3472 
Q 5658 3437 5651 3405 
Q 5562 1958 5472 1574 
Q 5382 1190 5289 1072 
Q 5197 954 5078 954 
Q 4960 954 4774 1133 
Q 4589 1312 4422 1549 
L 4365 1645 
L 4365 896 
z
M 429 3130 
Q 589 3098 717 3098 
L 806 3098 
L 1286 3130 
L 1286 4307 
Q 1286 4467 1222 4547 
Q 1158 4627 1158 4672 
Q 1158 4717 1242 4717 
L 1306 4710 
Q 1690 4640 1690 4493 
L 1677 3162 
L 1882 3174 
Q 2029 3187 2096 3212 
Q 2163 3238 2195 3238 
Q 2227 3238 2310 3187 
Q 2534 3040 2534 2925 
Q 2534 2861 2387 2842 
L 1677 2790 
L 1664 1280 
Q 1958 1389 2243 1513 
Q 2528 1638 2579 1638 
Q 2630 1638 2630 1600 
Q 2630 1466 1715 947 
Q 1222 659 956 547 
Q 691 435 630 435 
Q 570 435 480 524 
Q 390 614 320 720 
Q 250 826 250 870 
Q 250 915 301 915 
L 365 915 
Q 659 915 1286 1146 
L 1286 2765 
L 928 2739 
Q 883 2733 845 2733 
L 781 2733 
Q 717 2733 605 2781 
Q 493 2829 403 3066 
Q 397 3078 397 3104 
Q 397 3130 429 3130 
z
M 5005 1414 
Q 5043 1414 5043 1453 
Q 5152 1830 5193 2300 
Q 5235 2771 5261 3322 
L 4371 2970 
L 4365 1747 
L 4384 1754 
Q 4435 1754 4566 1664 
Q 4698 1574 4845 1494 
Q 4992 1414 5005 1414 
z
" transform="scale(0.015625)"/>
       <path id="LXGW-Bright-Regular-7403" d="M 4365 6 
L 4384 -269 
Q 4384 -416 4285 -515 
Q 4186 -614 4102 -614 
Q 3917 -614 3354 -166 
Q 3053 96 3053 160 
Q 3053 205 3117 205 
Q 3181 205 3315 144 
Q 3450 83 3626 3 
Q 3802 -77 3968 -141 
L 3987 3424 
L 3008 3354 
Q 2867 3341 2765 3341 
L 2707 3341 
Q 2650 3354 2630 3366 
Q 2509 3482 2458 3648 
Q 2451 3661 2451 3686 
Q 2451 3712 2490 3712 
L 2509 3712 
Q 2611 3699 2688 3699 
L 2803 3699 
Q 2848 3699 2906 3706 
L 3987 3776 
L 3994 4781 
Q 3994 4960 3878 5120 
Q 3859 5152 3859 5171 
Q 3859 5222 3942 5222 
Q 4026 5222 4179 5171 
Q 4333 5120 4365 5069 
Q 4397 5018 4397 4947 
L 4390 3795 
L 5286 3853 
Q 5382 3859 5472 3897 
Q 5562 3936 5619 3936 
Q 5677 3936 5760 3875 
Q 5843 3814 5900 3740 
Q 5958 3667 5958 3629 
Q 5958 3558 5792 3546 
L 4384 3450 
L 4384 2739 
Q 4467 2579 4553 2438 
Q 4640 2298 4717 2170 
Q 4986 2432 5242 2822 
Q 5293 2893 5318 3033 
Q 5344 3174 5392 3174 
Q 5440 3174 5510 3107 
Q 5581 3040 5635 2953 
Q 5690 2867 5690 2803 
Q 5690 2739 5366 2387 
Q 5043 2035 4883 1901 
Q 5190 1446 5504 1132 
Q 5818 819 6234 506 
Q 6304 454 6304 419 
Q 6304 384 6259 320 
Q 6125 160 6016 160 
Q 5907 160 5356 749 
Q 4806 1338 4378 2157 
L 4365 6 
z
M 5216 4624 
Q 5363 4506 5468 4400 
Q 5574 4294 5574 4240 
Q 5574 4186 5504 4096 
Q 5434 4006 5379 4006 
Q 5325 4006 5222 4115 
Q 4954 4403 4640 4640 
Q 4589 4678 4589 4720 
Q 4589 4762 4649 4835 
Q 4710 4909 4764 4909 
Q 4819 4909 4944 4825 
Q 5069 4742 5216 4624 
z
M 640 4141 
L 2016 4224 
Q 2176 4243 2237 4265 
Q 2298 4288 2333 4288 
Q 2368 4288 2445 4237 
Q 2637 4115 2637 4006 
Q 2637 3923 2490 3910 
L 1715 3859 
L 1709 2720 
L 1869 2733 
Q 1990 2739 2073 2771 
Q 2157 2803 2185 2803 
Q 2214 2803 2291 2752 
Q 2502 2630 2502 2515 
Q 2502 2432 2349 2419 
L 1702 2374 
L 1696 1210 
Q 2061 1376 2307 1497 
Q 2554 1619 2618 1619 
Q 2682 1619 2682 1552 
Q 2682 1485 2528 1389 
Q 1696 838 1168 569 
Q 640 301 547 301 
Q 454 301 361 384 
Q 269 467 240 518 
Q 211 570 201 586 
Q 192 602 192 614 
Q 192 659 269 668 
Q 346 678 432 704 
Q 518 730 710 806 
Q 902 883 1293 1037 
L 1306 2349 
L 973 2323 
Q 928 2317 883 2317 
L 813 2317 
Q 608 2317 512 2509 
Q 461 2598 461 2643 
Q 461 2688 512 2688 
Q 538 2688 592 2675 
Q 646 2662 768 2662 
L 851 2662 
L 1306 2694 
L 1318 3834 
L 883 3802 
Q 781 3789 697 3789 
Q 614 3789 563 3821 
Q 429 3930 393 4019 
Q 358 4109 358 4122 
Q 358 4166 410 4166 
L 640 4141 
z
M 3513 2537 
Q 3622 2419 3696 2326 
Q 3770 2234 3770 2176 
Q 3770 2118 3677 2044 
Q 3584 1971 3542 1971 
Q 3501 1971 3450 2035 
Q 3238 2317 2790 2733 
Q 2746 2778 2746 2806 
Q 2746 2835 2813 2924 
Q 2880 3014 2931 3014 
Q 2982 3014 3075 2944 
Q 3168 2874 3286 2765 
Q 3405 2656 3513 2537 
z
M 2995 659 
Q 2842 480 2714 361 
Q 2586 243 2534 243 
Q 2483 243 2432 268 
Q 2381 294 2265 384 
Q 2150 474 2150 518 
Q 2150 563 2240 588 
Q 2330 614 2509 742 
Q 3002 1101 3603 1754 
Q 3725 1875 3779 1875 
Q 3834 1875 3834 1814 
Q 3834 1754 3766 1654 
Q 3699 1555 3577 1395 
Q 3456 1235 3302 1036 
Q 3149 838 2995 659 
z
" transform="scale(0.015625)"/>
       <path id="LXGW-Bright-Regular-6807" d="M 3226 1997 
Q 3219 2112 3276 2125 
Q 3334 2138 3424 2086 
Q 3661 1965 3674 1805 
Q 3674 1766 3654 1728 
Q 3334 1107 3040 739 
Q 2746 371 2544 201 
Q 2342 32 2291 19 
Q 2240 6 2240 64 
Q 2240 134 2342 282 
Q 2643 704 2934 1184 
Q 3226 1664 3226 1958 
L 3226 1997 
z
M 5779 250 
Q 5709 269 5664 384 
Q 5293 1107 4762 1856 
Q 4672 1965 4864 2112 
Q 4915 2150 4992 2121 
Q 5069 2093 5433 1545 
Q 5798 998 6010 634 
Q 6125 422 5952 288 
Q 5862 218 5779 250 
z
M 1792 -454 
Q 1792 -608 1670 -608 
Q 1664 -608 1587 -589 
Q 1376 -518 1376 -352 
Q 1376 -320 1405 -205 
Q 1434 -90 1434 115 
L 1440 294 
Q 1440 474 1443 755 
Q 1446 1037 1449 1341 
Q 1453 1645 1462 1910 
Q 1472 2176 1472 2310 
L 1478 2400 
Q 1293 1754 691 998 
Q 378 602 282 602 
Q 243 602 243 669 
Q 243 736 314 832 
Q 915 1683 1376 3040 
L 902 3002 
Q 800 2989 717 2989 
Q 634 2989 582 3021 
Q 454 3130 397 3277 
Q 390 3290 390 3315 
Q 390 3360 442 3360 
L 474 3360 
Q 589 3341 691 3341 
L 768 3341 
L 1472 3392 
L 1485 4678 
Q 1485 4794 1430 4877 
Q 1376 4960 1376 4992 
Q 1376 5043 1449 5043 
Q 1523 5043 1657 4995 
Q 1792 4947 1824 4905 
Q 1856 4864 1856 4794 
L 1837 3424 
L 2106 3443 
Q 2266 3462 2307 3478 
Q 2349 3494 2390 3494 
Q 2432 3494 2560 3404 
Q 2688 3315 2688 3232 
Q 2688 3149 2554 3136 
L 1837 3078 
L 1830 2522 
Q 1882 2566 1936 2566 
Q 1990 2566 2112 2445 
Q 2406 2144 2586 1862 
Q 2637 1805 2637 1734 
Q 2637 1664 2534 1606 
Q 2432 1549 2374 1549 
Q 2317 1549 2246 1658 
Q 2042 2010 1824 2253 
L 1792 -454 
z
M 4486 -109 
L 4493 -301 
Q 4493 -403 4425 -508 
Q 4358 -614 4252 -614 
Q 4147 -614 4035 -550 
Q 3923 -486 3792 -396 
Q 3661 -307 3545 -204 
Q 3430 -102 3353 -19 
Q 3277 64 3277 102 
Q 3277 141 3353 141 
Q 3430 141 3651 35 
Q 3872 -70 4090 -134 
L 4077 1830 
L 4070 2176 
L 4070 2509 
L 2931 2458 
L 2829 2458 
Q 2624 2458 2573 2509 
Q 2419 2662 2419 2768 
Q 2419 2874 2477 2874 
Q 2509 2874 2522 2861 
Q 2682 2829 2778 2829 
L 2822 2829 
L 5440 2944 
Q 5498 2950 5562 2953 
Q 5626 2957 5677 2973 
Q 5728 2989 5808 2989 
Q 5888 2989 6003 2886 
Q 6118 2784 6118 2701 
Q 6118 2598 5946 2586 
L 4467 2522 
L 4467 1850 
L 4486 -109 
z
M 3059 4333 
L 3238 4314 
Q 3315 4301 3373 4301 
L 3411 4301 
L 4858 4384 
Q 5030 4403 5078 4416 
Q 5126 4429 5161 4429 
Q 5197 4429 5274 4390 
Q 5478 4282 5478 4154 
Q 5478 4058 5331 4045 
L 3526 3949 
L 3341 3942 
Q 3258 3942 3174 3980 
Q 3091 4019 3008 4224 
Q 3002 4250 3002 4275 
Q 3002 4333 3059 4333 
z
" transform="scale(0.015625)"/>
       <path id="LXGW-Bright-Regular-51c6" d="M 4928 4621 
Q 4928 4454 4454 3757 
L 5248 3802 
Q 5382 3808 5459 3837 
Q 5536 3866 5568 3866 
Q 5600 3866 5683 3814 
Q 5888 3680 5888 3571 
Q 5888 3507 5741 3488 
L 4454 3424 
L 4448 2682 
L 5037 2714 
Q 5210 2726 5267 2745 
Q 5325 2765 5363 2765 
Q 5402 2765 5478 2710 
Q 5555 2656 5612 2585 
Q 5670 2515 5670 2470 
Q 5670 2406 5530 2394 
L 4448 2342 
L 4442 1638 
L 5069 1670 
Q 5126 1677 5190 1683 
Q 5254 1690 5308 1709 
Q 5363 1728 5392 1728 
Q 5421 1728 5498 1677 
Q 5709 1536 5709 1427 
Q 5709 1357 5568 1344 
L 4442 1293 
L 4435 397 
L 5555 435 
Q 5702 448 5779 470 
Q 5856 493 5881 493 
Q 5907 493 5990 442 
Q 6208 301 6208 186 
Q 6208 115 6061 96 
L 2976 -13 
L 2976 -467 
Q 2976 -640 2854 -640 
L 2765 -614 
Q 2682 -595 2598 -531 
Q 2515 -467 2515 -380 
Q 2515 -294 2540 -160 
Q 2566 -26 2566 128 
L 2605 3168 
Q 2298 2829 2048 2614 
Q 1798 2400 1737 2400 
Q 1677 2400 1677 2448 
Q 1677 2496 1754 2592 
Q 2323 3277 2637 3782 
Q 3194 4685 3194 4922 
L 3194 4966 
Q 3194 4992 3187 5018 
L 3187 5037 
Q 3187 5101 3289 5101 
Q 3392 5101 3542 5001 
Q 3693 4902 3693 4858 
Q 3693 4749 3440 4339 
Q 3187 3930 3002 3674 
L 4102 3738 
Q 4346 4211 4403 4454 
Q 4461 4698 4461 4710 
L 4442 4813 
Q 4442 4864 4515 4864 
Q 4589 4864 4685 4826 
Q 4928 4742 4928 4621 
z
M 1798 3206 
Q 1702 3117 1638 3117 
Q 1574 3117 1468 3257 
Q 1363 3398 1145 3628 
Q 928 3859 736 4013 
Q 659 4083 659 4134 
Q 659 4186 739 4272 
Q 819 4358 870 4358 
Q 1018 4358 1587 3776 
Q 1894 3456 1894 3376 
Q 1894 3296 1798 3206 
z
M 4064 3398 
L 2976 3341 
L 2976 2611 
L 4058 2662 
L 4064 3398 
z
M 749 301 
Q 538 346 397 512 
Q 358 563 358 595 
Q 358 627 480 668 
Q 602 710 1024 1152 
Q 1446 1594 1920 2176 
Q 2061 2342 2121 2342 
Q 2182 2342 2182 2278 
Q 2182 2138 1750 1485 
Q 1318 832 883 365 
Q 819 301 749 301 
z
M 4051 2323 
L 2976 2266 
L 2976 1568 
L 4045 1619 
L 4051 2323 
z
M 4045 1274 
L 2976 1222 
L 2976 346 
L 4032 384 
L 4045 1274 
z
" transform="scale(0.015625)"/>
       <path id="LXGW-Bright-Regular-29" d="M 275 -1203 
Q 909 -806 1251 -92 
Q 1594 621 1594 1555 
Q 1594 2490 1251 3210 
Q 909 3930 275 4326 
L 422 4550 
Q 909 4314 1277 3859 
Q 1645 3405 1846 2806 
Q 2048 2208 2048 1555 
Q 2048 902 1846 310 
Q 1645 -282 1277 -736 
Q 909 -1190 422 -1427 
L 275 -1203 
z
" transform="scale(0.015625)"/>
      </defs>
      <use xlink:href="#LXGW-Bright-Regular-91cd"/>
      <use xlink:href="#LXGW-Bright-Regular-529b" x="99.999985"/>
      <use xlink:href="#LXGW-Bright-Regular-7cfb" x="199.999969"/>
      <use xlink:href="#LXGW-Bright-Regular-6570" x="299.999954"/>
      <use xlink:href="#LXGW-Bright-Regular-20" x="399.999939"/>
      <use xlink:href="#LXGW-Bright-Regular-66" x="424.59993"/>
      <use xlink:href="#LXGW-Bright-Regular-20" x="459.499924"/>
      <use xlink:href="#LXGW-Bright-Regular-28" x="484.099915"/>
      <use xlink:href="#LXGW-Bright-Regular-76f8" x="522.299911"/>
      <use xlink:href="#LXGW-Bright-Regular-6bd4" x="622.299896"/>
      <use xlink:href="#LXGW-Bright-Regular-5730" x="722.299881"/>
      <use xlink:href="#LXGW-Bright-Regular-7403" x="822.299866"/>
      <use xlink:href="#LXGW-Bright-Regular-6807" x="922.29985"/>
      <use xlink:href="#LXGW-Bright-Regular-51c6" x="1022.299835"/>
      <use xlink:href="#LXGW-Bright-Regular-91cd" x="1122.29982"/>
      <use xlink:href="#LXGW-Bright-Regular-529b" x="1222.299805"/>
      <use xlink:href="#LXGW-Bright-Regular-29" x="1322.299789"/>
     </g>
    </g>
   </g>
   <g id="matplotlib.axis_2">
    <g id="ytick_1">
     <g id="line2d_11">
      <path d="M 37.100625 387.394687 
L 670.168125 387.394687 
" clip-path="url(#pf765d7f43b)" style="fill: none; stroke-dasharray: 2.96,1.28; stroke-dashoffset: 0; stroke: #cccccc; stroke-opacity: 0.7; stroke-width: 0.8"/>
     </g>
     <g id="line2d_12"/>
     <g id="text_7">
      <!-- 7 -->
      <g style="fill: #0000ff" transform="translate(28.430312 390.974375) scale(0.1 -0.1)">
       <defs>
        <path id="LXGW-Bright-Regular-37" d="M 832 0 
L 2560 3814 
L 397 3814 
L 435 4211 
L 3130 4211 
L 1312 0 
L 832 0 
z
" transform="scale(0.015625)"/>
       </defs>
       <use xlink:href="#LXGW-Bright-Regular-37"/>
      </g>
     </g>
    </g>
    <g id="ytick_2">
     <g id="line2d_13">
      <path d="M 37.100625 326.7975 
L 670.168125 326.7975 
" clip-path="url(#pf765d7f43b)" style="fill: none; stroke-dasharray: 2.96,1.28; stroke-dashoffset: 0; stroke: #cccccc; stroke-opacity: 0.7; stroke-width: 0.8"/>
     </g>
     <g id="line2d_14"/>
     <g id="text_8">
      <!-- 8 -->
      <g style="fill: #0000ff" transform="translate(28.430312 330.377187) scale(0.1 -0.1)">
       <use xlink:href="#LXGW-Bright-Regular-38"/>
      </g>
     </g>
    </g>
    <g id="ytick_3">
     <g id="line2d_15">
      <path d="M 37.100625 266.200312 
L 670.168125 266.200312 
" clip-path="url(#pf765d7f43b)" style="fill: none; stroke-dasharray: 2.96,1.28; stroke-dashoffset: 0; stroke: #cccccc; stroke-opacity: 0.7; stroke-width: 0.8"/>
     </g>
     <g id="line2d_16"/>
     <g id="text_9">
      <!-- 9 -->
      <g style="fill: #0000ff" transform="translate(28.430312 269.78) scale(0.1 -0.1)">
       <defs>
        <path id="LXGW-Bright-Regular-39" d="M 1421 1843 
Q 883 1843 598 2160 
Q 314 2477 314 2976 
Q 314 3347 480 3635 
Q 646 3923 950 4086 
Q 1254 4250 1645 4250 
Q 2285 4250 2640 3814 
Q 2995 3379 2995 2650 
Q 2995 1946 2684 1357 
Q 2374 768 1827 397 
Q 1280 26 602 -51 
L 518 307 
Q 1030 358 1459 617 
Q 1888 877 2166 1296 
Q 2445 1715 2522 2240 
Q 2298 2054 2016 1948 
Q 1734 1843 1421 1843 
z
M 762 3059 
Q 762 2669 979 2422 
Q 1197 2176 1600 2176 
Q 1850 2176 2102 2275 
Q 2355 2374 2547 2560 
L 2547 2598 
Q 2547 3187 2288 3548 
Q 2029 3910 1581 3910 
Q 1210 3910 986 3680 
Q 762 3450 762 3059 
z
" transform="scale(0.015625)"/>
       </defs>
       <use xlink:href="#LXGW-Bright-Regular-39"/>
      </g>
     </g>
    </g>
    <g id="ytick_4">
     <g id="line2d_17">
      <path d="M 37.100625 205.603125 
L 670.168125 205.603125 
" clip-path="url(#pf765d7f43b)" style="fill: none; stroke-dasharray: 2.96,1.28; stroke-dashoffset: 0; stroke: #cccccc; stroke-opacity: 0.7; stroke-width: 0.8"/>
     </g>
     <g id="line2d_18"/>
     <g id="text_10">
      <!-- 10 -->
      <g style="fill: #0000ff" transform="translate(23.26 209.182812) scale(0.1 -0.1)">
       <use xlink:href="#LXGW-Bright-Regular-31"/>
       <use xlink:href="#LXGW-Bright-Regular-30" x="51.699997"/>
      </g>
     </g>
    </g>
    <g id="ytick_5">
     <g id="line2d_19">
      <path d="M 37.100625 145.005937 
L 670.168125 145.005937 
" clip-path="url(#pf765d7f43b)" style="fill: none; stroke-dasharray: 2.96,1.28; stroke-dashoffset: 0; stroke: #cccccc; stroke-opacity: 0.7; stroke-width: 0.8"/>
     </g>
     <g id="line2d_20"/>
     <g id="text_11">
      <!-- 11 -->
      <g style="fill: #0000ff" transform="translate(23.26 148.585625) scale(0.1 -0.1)">
       <use xlink:href="#LXGW-Bright-Regular-31"/>
       <use xlink:href="#LXGW-Bright-Regular-31" x="51.699997"/>
      </g>
     </g>
    </g>
    <g id="ytick_6">
     <g id="line2d_21">
      <path d="M 37.100625 84.40875 
L 670.168125 84.40875 
" clip-path="url(#pf765d7f43b)" style="fill: none; stroke-dasharray: 2.96,1.28; stroke-dashoffset: 0; stroke: #cccccc; stroke-opacity: 0.7; stroke-width: 0.8"/>
     </g>
     <g id="line2d_22"/>
     <g id="text_12">
      <!-- 12 -->
      <g style="fill: #0000ff" transform="translate(23.26 87.988437) scale(0.1 -0.1)">
       <use xlink:href="#LXGW-Bright-Regular-31"/>
       <use xlink:href="#LXGW-Bright-Regular-32" x="51.699997"/>
      </g>
     </g>
    </g>
    <g id="ytick_7">
     <g id="line2d_23">
      <path d="M 37.100625 23.811562 
L 670.168125 23.811562 
" clip-path="url(#pf765d7f43b)" style="fill: none; stroke-dasharray: 2.96,1.28; stroke-dashoffset: 0; stroke: #cccccc; stroke-opacity: 0.7; stroke-width: 0.8"/>
     </g>
     <g id="line2d_24"/>
     <g id="text_13">
      <!-- 13 -->
      <g style="fill: #0000ff" transform="translate(23.26 27.39125) scale(0.1 -0.1)">
       <defs>
        <path id="LXGW-Bright-Regular-33" d="M 2579 1152 
Q 2579 1574 2268 1811 
Q 1958 2048 1312 2048 
L 1312 2323 
Q 1856 2323 2137 2563 
Q 2419 2803 2419 3181 
Q 2419 3514 2208 3709 
Q 1997 3904 1645 3904 
Q 1331 3904 1078 3734 
Q 826 3565 704 3232 
L 384 3341 
Q 557 3789 909 4019 
Q 1261 4250 1715 4250 
Q 2234 4250 2554 3971 
Q 2874 3693 2874 3226 
Q 2874 2874 2685 2614 
Q 2496 2355 2118 2227 
Q 2566 2112 2800 1840 
Q 3034 1568 3034 1184 
Q 3034 819 2835 544 
Q 2637 269 2313 118 
Q 1990 -32 1619 -32 
Q 1184 -32 816 182 
Q 448 397 269 845 
L 621 1050 
Q 762 685 1040 509 
Q 1318 333 1683 333 
Q 2099 333 2339 553 
Q 2579 774 2579 1152 
z
" transform="scale(0.015625)"/>
       </defs>
       <use xlink:href="#LXGW-Bright-Regular-31"/>
       <use xlink:href="#LXGW-Bright-Regular-33" x="51.699997"/>
      </g>
     </g>
    </g>
    <g id="text_14">
     <!-- Delta-v (km/s) -->
     <g style="fill: #0000ff" transform="translate(15.79125 242.324062) rotate(-90) scale(0.12 -0.12)">
      <defs>
       <path id="LXGW-Bright-Regular-44" d="M 698 4211 
L 2003 4211 
Q 2701 4211 3238 3961 
Q 3776 3712 4070 3251 
Q 4365 2790 4365 2170 
Q 4365 1600 4109 1107 
Q 3853 614 3318 307 
Q 2784 0 1990 0 
L 698 0 
L 698 4211 
z
M 2029 346 
Q 2970 346 3418 838 
Q 3866 1331 3866 2093 
Q 3866 2598 3654 2998 
Q 3443 3398 3008 3628 
Q 2573 3859 1933 3859 
L 1171 3859 
L 1171 346 
L 2029 346 
z
" transform="scale(0.015625)"/>
       <path id="LXGW-Bright-Regular-65" d="M 1581 -58 
Q 1005 -58 653 291 
Q 301 640 301 1235 
Q 301 1664 480 1997 
Q 659 2330 972 2515 
Q 1286 2701 1677 2701 
Q 2144 2701 2384 2438 
Q 2624 2176 2624 1696 
Q 2624 1613 2611 1472 
L 723 1472 
L 717 1293 
Q 717 838 979 563 
Q 1242 288 1664 288 
Q 2099 288 2464 614 
L 2624 378 
Q 2163 -58 1581 -58 
z
M 2234 1747 
Q 2221 2074 2080 2234 
Q 1939 2394 1651 2394 
Q 1338 2394 1110 2221 
Q 883 2048 787 1747 
L 2234 1747 
z
" transform="scale(0.015625)"/>
       <path id="LXGW-Bright-Regular-6c" d="M 570 4512 
L 998 4582 
L 998 0 
L 570 0 
L 570 4512 
z
" transform="scale(0.015625)"/>
       <path id="LXGW-Bright-Regular-74" d="M 1498 -45 
Q 1139 -45 915 172 
Q 691 390 691 768 
L 691 2291 
L 154 2291 
L 186 2579 
L 704 2586 
L 838 3213 
L 1133 3270 
L 1133 2592 
L 2176 2605 
L 2157 2285 
L 1133 2291 
L 1133 838 
Q 1133 570 1257 426 
Q 1382 282 1613 282 
Q 1901 282 2170 493 
L 2298 282 
Q 1952 -45 1498 -45 
z
" transform="scale(0.015625)"/>
       <path id="LXGW-Bright-Regular-61" d="M 2374 -38 
Q 2182 -38 2054 67 
Q 1926 173 1882 378 
Q 1376 -38 960 -38 
Q 672 -38 493 125 
Q 314 288 314 550 
Q 314 800 477 976 
Q 640 1152 1037 1261 
L 1875 1485 
L 1882 1856 
Q 1888 2426 1485 2426 
Q 1248 2426 1037 2269 
Q 826 2112 794 1818 
L 371 1862 
Q 410 2099 586 2291 
Q 762 2483 1021 2592 
Q 1280 2701 1555 2701 
Q 1933 2701 2118 2493 
Q 2304 2285 2298 1907 
L 2285 563 
Q 2285 269 2470 269 
Q 2541 269 2611 301 
Q 2682 333 2733 397 
L 2880 192 
Q 2790 83 2659 22 
Q 2528 -38 2374 -38 
z
M 742 614 
Q 742 461 848 377 
Q 954 294 1114 294 
Q 1261 294 1443 374 
Q 1626 454 1856 608 
L 1856 646 
L 1869 1235 
L 1146 1011 
Q 915 941 828 841 
Q 742 742 742 614 
z
" transform="scale(0.015625)"/>
       <path id="LXGW-Bright-Regular-2d" d="M 224 1619 
L 2170 1619 
L 2170 1235 
L 218 1235 
L 224 1619 
z
" transform="scale(0.015625)"/>
       <path id="LXGW-Bright-Regular-76" d="M 166 2650 
L 653 2650 
L 1491 435 
L 2285 2650 
L 2733 2650 
L 1638 0 
L 1248 0 
L 166 2650 
z
" transform="scale(0.015625)"/>
       <path id="LXGW-Bright-Regular-6b" d="M 1011 1286 
L 960 1286 
L 960 0 
L 531 0 
L 531 4512 
L 960 4589 
L 960 1472 
L 2170 2650 
L 2746 2650 
L 2746 2637 
L 1363 1453 
L 2854 13 
L 2854 0 
L 2240 0 
L 1011 1286 
z
" transform="scale(0.015625)"/>
       <path id="LXGW-Bright-Regular-6d" d="M 4154 1574 
Q 4154 1946 4000 2150 
Q 3846 2355 3558 2355 
Q 3347 2355 3132 2240 
Q 2918 2125 2765 1894 
Q 2778 1766 2778 1683 
L 2778 0 
L 2336 0 
L 2336 1574 
Q 2336 1946 2179 2150 
Q 2022 2355 1734 2355 
Q 1523 2355 1308 2243 
Q 1094 2131 934 1907 
L 934 0 
L 499 0 
L 499 2611 
L 858 2688 
L 915 2227 
Q 1120 2451 1385 2569 
Q 1651 2688 1914 2688 
Q 2189 2688 2393 2550 
Q 2598 2413 2694 2163 
Q 2906 2419 3181 2553 
Q 3456 2688 3738 2688 
Q 4128 2688 4361 2419 
Q 4595 2150 4595 1683 
L 4595 0 
L 4154 0 
L 4154 1574 
z
" transform="scale(0.015625)"/>
       <path id="LXGW-Bright-Regular-2f" d="M 237 -1338 
L 1862 4550 
L 2208 4461 
L 589 -1421 
L 237 -1338 
z
" transform="scale(0.015625)"/>
       <path id="LXGW-Bright-Regular-73" d="M 1165 -58 
Q 890 -58 643 16 
Q 397 90 237 198 
L 365 557 
Q 512 416 739 329 
Q 966 243 1184 243 
Q 1440 243 1593 371 
Q 1747 499 1747 685 
Q 1747 883 1596 988 
Q 1446 1094 1139 1203 
Q 883 1299 736 1376 
Q 589 1453 480 1593 
Q 371 1734 371 1958 
Q 371 2310 633 2508 
Q 896 2707 1293 2707 
Q 1498 2707 1696 2659 
Q 1894 2611 2035 2515 
L 1907 2176 
Q 1792 2291 1609 2355 
Q 1427 2419 1267 2419 
Q 1037 2419 902 2310 
Q 768 2202 768 2042 
Q 768 1862 915 1760 
Q 1062 1658 1357 1555 
Q 1619 1459 1776 1376 
Q 1933 1293 2045 1145 
Q 2157 998 2157 768 
Q 2157 544 2035 355 
Q 1914 166 1690 54 
Q 1466 -58 1165 -58 
z
" transform="scale(0.015625)"/>
      </defs>
      <use xlink:href="#LXGW-Bright-Regular-44"/>
      <use xlink:href="#LXGW-Bright-Regular-65" x="73.899994"/>
      <use xlink:href="#LXGW-Bright-Regular-6c" x="119.499985"/>
      <use xlink:href="#LXGW-Bright-Regular-74" x="143.899979"/>
      <use xlink:href="#LXGW-Bright-Regular-61" x="181.899963"/>
      <use xlink:href="#LXGW-Bright-Regular-2d" x="227.299957"/>
      <use xlink:href="#LXGW-Bright-Regular-76" x="264.699951"/>
      <use xlink:href="#LXGW-Bright-Regular-20" x="309.899948"/>
      <use xlink:href="#LXGW-Bright-Regular-28" x="334.499939"/>
      <use xlink:href="#LXGW-Bright-Regular-6b" x="372.699936"/>
      <use xlink:href="#LXGW-Bright-Regular-6d" x="417.799927"/>
      <use xlink:href="#LXGW-Bright-Regular-2f" x="497.299911"/>
      <use xlink:href="#LXGW-Bright-Regular-73" x="535.999908"/>
      <use xlink:href="#LXGW-Bright-Regular-29" x="573.799896"/>
     </g>
    </g>
   </g>
   <g id="line2d_25">
    <path d="M 39.888154 425.611562 
L 43.495246 423.116843 
L 49.889867 418.726766 
L 56.284489 414.368286 
L 62.67911 410.040502 
L 69.073731 405.742559 
L 75.468352 401.473639 
L 81.862973 397.232961 
L 88.257595 393.019779 
L 94.652216 388.833377 
L 101.046837 384.673073 
L 107.441458 380.538211 
L 113.83608 376.428163 
L 120.230701 372.342326 
L 126.625322 368.280122 
L 133.019943 364.240993 
L 139.414564 360.224406 
L 145.809186 356.229846 
L 152.203807 352.256819 
L 158.598428 348.304847 
L 164.993049 344.373471 
L 171.38767 340.462248 
L 177.782292 336.57075 
L 184.176913 332.698567 
L 190.571534 328.845298 
L 196.966155 325.01056 
L 203.360777 321.19398 
L 209.755398 317.395199 
L 216.150019 313.613869 
L 222.54464 309.849654 
L 228.939261 306.102227 
L 235.333883 302.371273 
L 241.728504 298.656485 
L 248.123125 294.957567 
L 254.517746 291.274231 
L 260.912367 287.606198 
L 267.306989 283.953198 
L 273.70161 280.314967 
L 280.096231 276.69125 
L 286.490852 273.081798 
L 292.885473 269.486372 
L 299.280095 265.904735 
L 305.674716 262.336661 
L 312.069337 258.781928 
L 318.463958 255.240319 
L 324.85858 251.711625 
L 331.253201 248.195642 
L 337.647822 244.69217 
L 344.042443 241.201015 
L 350.437064 237.721988 
L 356.831686 234.254905 
L 363.226307 230.799587 
L 369.620928 227.355858 
L 376.015549 223.923547 
L 382.41017 220.502488 
L 388.804792 217.092518 
L 395.199413 213.693479 
L 401.594034 210.305214 
L 407.988655 206.927573 
L 414.383277 203.560408 
L 420.777898 200.203575 
L 427.172519 196.856931 
L 433.56714 193.52034 
L 439.961761 190.193666 
L 446.356383 186.876777 
L 452.751004 183.569544 
L 459.145625 180.271842 
L 465.540246 176.983546 
L 471.934867 173.704535 
L 478.329489 170.434692 
L 484.72411 167.1739 
L 491.118731 163.922047 
L 497.513352 160.679021 
L 503.907973 157.444713 
L 510.302595 154.219017 
L 516.697216 151.001828 
L 523.091837 147.793044 
L 529.486458 144.592566 
L 535.88108 141.400294 
L 542.275701 138.216132 
L 548.670322 135.039986 
L 555.064943 131.871763 
L 561.459564 128.711372 
L 567.854186 125.558724 
L 574.248807 122.413732 
L 580.643428 119.276309 
L 587.038049 116.146372 
L 593.43267 113.023838 
L 599.827292 109.908625 
L 606.221913 106.800653 
L 612.616534 103.699845 
L 619.011155 100.606124 
L 625.405777 97.519414 
L 631.800398 94.439641 
L 638.195019 91.366731 
L 644.58964 88.300614 
L 650.984261 85.241219 
L 657.378883 82.188477 
L 663.773504 79.142319 
L 670.168125 76.10268 
" clip-path="url(#pf765d7f43b)" style="fill: none; stroke: #0000ff; stroke-width: 2.5; stroke-linecap: round"/>
   </g>
   <g id="line2d_26">
    <path d="M 353.634375 387.394687 
L 353.634375 23.811562 
" clip-path="url(#pf765d7f43b)" style="fill: none; stroke-dasharray: 5.55,2.4; stroke-dashoffset: 0; stroke: #000000; stroke-opacity: 0.5; stroke-width: 1.5"/>
   </g>
   <g id="patch_3">
    <path d="M 37.100625 387.394687 
L 37.100625 23.811562 
" style="fill: none; stroke: #cccccc; stroke-linejoin: miter; stroke-linecap: square"/>
   </g>
   <g id="patch_4">
    <path d="M 670.168125 387.394687 
L 670.168125 23.811562 
" style="fill: none; stroke: #cccccc; stroke-linejoin: miter; stroke-linecap: square"/>
   </g>
   <g id="patch_5">
    <path d="M 37.100625 387.394687 
L 670.168125 387.394687 
" style="fill: none; stroke: #cccccc; stroke-linejoin: miter; stroke-linecap: square"/>
   </g>
   <g id="patch_6">
    <path d="M 37.100625 23.811562 
L 670.168125 23.811562 
" style="fill: none; stroke: #cccccc; stroke-linejoin: miter; stroke-linecap: square"/>
   </g>
   <g id="text_15">
    <!-- 地球标准重力 -->
    <g style="fill: #262626" transform="translate(367.124425 378.165875) rotate(-90) scale(0.1 -0.1)">
     <use xlink:href="#LXGW-Bright-Regular-5730"/>
     <use xlink:href="#LXGW-Bright-Regular-7403" x="99.999985"/>
     <use xlink:href="#LXGW-Bright-Regular-6807" x="199.999969"/>
     <use xlink:href="#LXGW-Bright-Regular-51c6" x="299.999954"/>
     <use xlink:href="#LXGW-Bright-Regular-91cd" x="399.999939"/>
     <use xlink:href="#LXGW-Bright-Regular-529b" x="499.999924"/>
    </g>
   </g>
   <g id="legend_1">
    <g id="line2d_27">
     <path d="M 573.168125 36.470937 
L 583.168125 36.470937 
L 593.168125 36.470937 
" style="fill: none; stroke: #0000ff; stroke-width: 2.5; stroke-linecap: round"/>
    </g>
    <g id="text_16">
     <!-- Delta-v -->
     <g style="fill: #262626" transform="translate(601.168125 39.970937) scale(0.1 -0.1)">
      <use xlink:href="#LXGW-Bright-Regular-44"/>
      <use xlink:href="#LXGW-Bright-Regular-65" x="73.899994"/>
      <use xlink:href="#LXGW-Bright-Regular-6c" x="119.499985"/>
      <use xlink:href="#LXGW-Bright-Regular-74" x="143.899979"/>
      <use xlink:href="#LXGW-Bright-Regular-61" x="181.899963"/>
      <use xlink:href="#LXGW-Bright-Regular-2d" x="227.299957"/>
      <use xlink:href="#LXGW-Bright-Regular-76" x="264.699951"/>
     </g>
    </g>
    <g id="line2d_28">
     <path d="M 573.168125 51.520937 
L 583.168125 51.520937 
L 593.168125 51.520937 
" style="fill: none; stroke: #ff0000; stroke-width: 2.5; stroke-linecap: round"/>
    </g>
    <g id="text_17">
     <!-- 理论有效载荷 -->
     <g style="fill: #262626" transform="translate(601.168125 55.020937) scale(0.1 -0.1)">
      <defs>
       <path id="LXGW-Bright-Regular-7406" d="M 3126 1824 
Q 3046 1856 2976 1917 
Q 2906 1978 2912 2064 
Q 2918 2150 2918 2214 
L 2918 2438 
Q 2918 2490 2912 2554 
L 2790 4186 
Q 2784 4365 2726 4502 
Q 2669 4640 2669 4691 
Q 2669 4742 2752 4742 
Q 2835 4742 3136 4614 
L 5306 4762 
L 5344 4762 
Q 5466 4762 5536 4691 
Q 5651 4608 5651 4531 
Q 5651 4454 5632 4409 
Q 5613 4365 5606 4326 
L 5427 2515 
Q 5568 2349 5568 2281 
Q 5568 2214 5529 2198 
Q 5491 2182 5434 2176 
L 4333 2131 
L 4333 1331 
L 4992 1357 
Q 5082 1376 5139 1385 
Q 5197 1395 5251 1414 
Q 5306 1434 5334 1434 
Q 5363 1434 5434 1389 
Q 5626 1267 5626 1161 
Q 5626 1056 5530 1043 
L 4333 992 
L 4333 173 
L 5594 211 
Q 5683 218 5747 218 
L 5939 256 
Q 5997 256 6131 160 
Q 6246 45 6246 -48 
Q 6246 -141 6118 -141 
L 2547 -250 
Q 2362 -250 2291 -179 
Q 2157 -19 2138 134 
Q 2138 173 2163 173 
L 2189 160 
Q 2272 147 2349 128 
Q 2426 109 2509 109 
L 2534 109 
L 3968 160 
L 3968 973 
L 3270 934 
L 3117 928 
Q 3066 928 2966 969 
Q 2867 1011 2797 1248 
L 2797 1274 
Q 2797 1312 2829 1312 
L 2842 1312 
Q 2970 1274 3046 1274 
L 3149 1274 
Q 3168 1274 3194 1280 
L 3962 1312 
L 3962 2112 
L 3315 2086 
L 3328 1920 
L 3328 1907 
Q 3328 1792 3219 1792 
Q 3206 1792 3126 1824 
z
M 685 4397 
L 1926 4480 
Q 1984 4493 2045 4502 
Q 2106 4512 2157 4531 
Q 2208 4550 2249 4550 
Q 2291 4550 2368 4502 
Q 2445 4454 2502 4387 
Q 2560 4320 2560 4275 
Q 2560 4186 2406 4173 
L 1709 4115 
L 1696 2957 
L 1920 2976 
Q 2074 2989 2138 3014 
Q 2202 3040 2230 3040 
Q 2259 3040 2339 2989 
Q 2419 2938 2483 2867 
Q 2547 2797 2547 2752 
Q 2547 2662 2394 2650 
L 1696 2598 
L 1683 1299 
Q 1869 1382 2077 1484 
Q 2285 1587 2429 1657 
Q 2573 1728 2637 1728 
Q 2701 1728 2701 1677 
Q 2701 1606 2541 1491 
Q 1658 890 960 563 
Q 666 422 586 422 
Q 506 422 422 489 
Q 339 557 278 640 
Q 218 723 218 771 
Q 218 819 384 835 
Q 550 851 1312 1139 
L 1318 2573 
L 1024 2554 
Q 934 2541 873 2541 
Q 813 2541 794 2547 
Q 730 2547 656 2627 
Q 582 2707 550 2784 
Q 518 2861 518 2886 
Q 518 2931 557 2931 
Q 570 2931 637 2915 
Q 704 2899 819 2899 
L 896 2899 
L 1325 2925 
L 1331 4090 
L 928 4058 
Q 826 4045 733 4045 
Q 640 4045 608 4077 
Q 442 4192 410 4365 
Q 403 4378 403 4384 
Q 403 4422 448 4422 
L 685 4397 
z
M 5203 4416 
L 4333 4358 
L 4333 3616 
L 5152 3654 
L 5203 4416 
z
M 3955 4339 
L 3162 4288 
L 3213 3546 
L 3955 3584 
L 3955 4339 
z
M 5126 3322 
L 4333 3277 
L 4333 2464 
L 5069 2502 
L 5126 3322 
z
M 3962 3251 
L 3238 3213 
L 3296 2413 
L 3962 2445 
L 3962 3251 
z
" transform="scale(0.015625)"/>
       <path id="LXGW-Bright-Regular-8bba" d="M 1402 -256 
L 1382 -256 
Q 1242 -256 1037 -38 
Q 960 51 954 90 
Q 954 128 1072 150 
Q 1190 173 1357 243 
L 1440 2560 
Q 691 2483 576 2483 
Q 461 2483 355 2608 
Q 250 2733 250 2797 
Q 250 2861 288 2861 
Q 448 2835 582 2835 
L 1651 2963 
Q 1702 2963 1801 2892 
Q 1901 2822 1901 2758 
Q 1901 2694 1811 2605 
L 1734 442 
Q 1843 518 2176 780 
Q 2509 1043 2582 1046 
Q 2656 1050 2659 1011 
Q 2662 973 2553 848 
Q 2445 723 2109 332 
Q 1773 -58 1622 -154 
Q 1472 -250 1402 -256 
z
M 2141 3612 
Q 2048 3526 1977 3526 
Q 1907 3526 1786 3686 
Q 1453 4147 1082 4506 
Q 1011 4576 1011 4617 
Q 1011 4659 1062 4739 
Q 1114 4819 1178 4819 
Q 1242 4819 1357 4723 
Q 1472 4627 1622 4486 
Q 1773 4346 1910 4195 
Q 2048 4045 2141 3929 
Q 2234 3814 2234 3756 
Q 2234 3699 2141 3612 
z
M 2944 2662 
Q 2592 2285 2355 2125 
Q 2118 1965 2076 1965 
Q 2035 1965 2035 2009 
Q 2035 2054 2138 2163 
Q 2803 2854 3392 3846 
Q 3923 4717 3923 5043 
Q 3923 5133 3990 5133 
Q 4058 5133 4154 5078 
Q 4250 5024 4326 4957 
Q 4403 4890 4403 4851 
Q 4403 4813 4192 4435 
Q 5120 3283 6189 2496 
Q 6272 2419 6272 2400 
Q 6272 2381 6166 2275 
Q 6061 2170 5984 2170 
Q 5856 2170 5129 2870 
Q 4403 3571 4013 4109 
Q 3674 3539 3437 3241 
Q 3200 2944 3072 2797 
L 2944 2662 
z
M 5136 -371 
Q 4877 -403 4771 -416 
Q 4666 -429 4342 -429 
Q 4019 -429 3718 -393 
Q 3418 -358 3258 -195 
Q 3098 -32 3098 339 
L 3110 2406 
Q 3110 2554 3072 2688 
Q 3072 2784 3136 2784 
Q 3501 2733 3501 2573 
L 3488 1446 
Q 4122 1766 4698 2278 
Q 4787 2381 4819 2505 
Q 4851 2630 4886 2630 
Q 4922 2630 5005 2554 
Q 5203 2330 5203 2195 
Q 5203 2131 5158 2099 
Q 4326 1485 3482 1101 
L 3482 410 
Q 3482 243 3558 141 
Q 3699 -45 4467 -45 
Q 4685 -45 4761 -29 
Q 4838 -13 4960 12 
Q 5082 38 5142 67 
Q 5203 96 5283 233 
Q 5363 371 5453 1011 
Q 5491 1293 5568 1293 
Q 5683 1293 5683 621 
Q 5683 282 5657 80 
Q 5632 -122 5513 -230 
Q 5395 -339 5136 -371 
z
" transform="scale(0.015625)"/>
       <path id="LXGW-Bright-Regular-6709" d="M 2874 5037 
L 2874 5120 
Q 2874 5139 2867 5209 
Q 2861 5280 2918 5280 
Q 2957 5280 3059 5235 
Q 3354 5101 3354 4947 
Q 3354 4928 3270 4688 
Q 3187 4448 3014 4102 
L 5261 4230 
Q 5376 4243 5462 4268 
Q 5549 4294 5581 4294 
Q 5613 4294 5696 4250 
Q 5920 4128 5920 4006 
Q 5920 3923 5754 3910 
L 2835 3738 
Q 2675 3437 2419 3046 
L 2470 3027 
L 4486 3155 
L 4544 3155 
Q 4621 3155 4726 3094 
Q 4832 3034 4832 2925 
L 4813 2810 
L 4838 -134 
L 4845 -294 
Q 4845 -416 4758 -499 
Q 4672 -582 4601 -582 
Q 4531 -582 4326 -492 
Q 4122 -403 3792 -179 
Q 3462 45 3462 122 
Q 3462 166 3526 166 
Q 3590 166 3827 83 
Q 4064 0 4429 -83 
L 4422 922 
L 2438 826 
L 2426 -435 
Q 2426 -557 2298 -557 
Q 2272 -557 2192 -531 
Q 2112 -506 2045 -448 
Q 1978 -390 1978 -336 
Q 1978 -282 2003 -173 
Q 2029 -64 2029 102 
L 2061 2554 
Q 1606 1997 1043 1497 
Q 480 998 333 998 
Q 282 998 282 1049 
Q 282 1101 403 1222 
Q 1683 2445 2368 3712 
L 1024 3635 
L 902 3629 
Q 749 3629 691 3674 
Q 512 3853 512 3994 
Q 512 4032 541 4032 
Q 570 4032 653 4009 
Q 736 3987 883 3987 
L 915 3987 
L 2541 4077 
Q 2720 4429 2797 4704 
Q 2874 4979 2874 5037 
z
M 4410 2803 
L 2464 2688 
L 2458 2093 
L 4416 2195 
L 4410 2803 
z
M 4416 1862 
L 2451 1766 
L 2445 1152 
L 4422 1248 
L 4416 1862 
z
" transform="scale(0.015625)"/>
       <path id="LXGW-Bright-Regular-6548" d="M 5491 3379 
Q 5267 2259 4787 1382 
Q 5280 614 6259 -186 
Q 6330 -243 6330 -275 
Q 6330 -307 6221 -409 
Q 6112 -512 6000 -512 
Q 5888 -512 5411 -6 
Q 4934 499 4582 1037 
Q 4243 499 3597 -51 
Q 3322 -282 3114 -416 
Q 2906 -550 2842 -550 
Q 2778 -550 2778 -512 
Q 2778 -448 2893 -346 
Q 3251 -19 3651 413 
Q 4051 845 4365 1389 
Q 4045 1952 3776 2752 
Q 3571 2330 3372 2067 
Q 3174 1805 3091 1805 
Q 3059 1805 3059 1869 
Q 3059 1933 3264 2333 
Q 3469 2733 3757 3667 
Q 4045 4602 4045 4928 
L 4045 5018 
Q 4045 5082 4118 5082 
Q 4192 5082 4285 5027 
Q 4378 4973 4445 4899 
Q 4512 4826 4512 4758 
Q 4512 4691 4378 4288 
Q 4262 3898 4154 3629 
L 5370 3706 
Q 5517 3712 5609 3747 
Q 5702 3782 5753 3782 
Q 5805 3782 5885 3724 
Q 5965 3667 6022 3596 
Q 6080 3526 6080 3488 
Q 6080 3418 5952 3405 
L 5491 3379 
z
M 806 4026 
L 1722 4077 
L 1728 4602 
Q 1728 4742 1673 4838 
Q 1619 4934 1619 4960 
Q 1619 5005 1680 5005 
Q 1741 5005 1885 4976 
Q 2029 4947 2064 4889 
Q 2099 4832 2099 4749 
L 2093 4096 
L 2726 4134 
Q 2931 4154 2988 4173 
Q 3046 4192 3123 4192 
Q 3200 4192 3305 4089 
Q 3411 3987 3411 3910 
Q 3411 3834 3302 3821 
L 1050 3699 
Q 922 3686 816 3686 
Q 710 3686 640 3750 
Q 518 3872 493 4019 
Q 493 4064 538 4064 
Q 557 4064 627 4045 
Q 698 4026 806 4026 
z
M 1011 2400 
Q 838 2227 694 2112 
Q 550 1997 489 1997 
Q 429 1997 429 2042 
Q 429 2112 486 2176 
Q 640 2330 947 2800 
Q 1254 3270 1254 3494 
Q 1254 3610 1325 3610 
Q 1357 3610 1446 3558 
Q 1690 3411 1690 3296 
Q 1690 3181 1437 2877 
Q 1184 2573 1011 2400 
z
M 2937 2969 
Q 3053 2822 3126 2713 
Q 3200 2605 3200 2573 
Q 3200 2541 3120 2445 
Q 3040 2349 2963 2349 
Q 2886 2349 2778 2509 
Q 2387 3104 2182 3309 
Q 2131 3360 2131 3395 
Q 2131 3430 2204 3513 
Q 2278 3597 2329 3597 
Q 2381 3597 2480 3501 
Q 2579 3405 2700 3261 
Q 2822 3117 2937 2969 
z
M 4026 3290 
L 3987 3206 
Q 4230 2381 4557 1766 
Q 4864 2432 5050 3354 
L 4026 3290 
z
M 2221 1261 
Q 2925 333 2925 198 
Q 2925 115 2835 48 
Q 2746 -19 2669 -19 
Q 2592 -19 2502 141 
Q 2310 486 1997 934 
L 1939 858 
Q 1523 339 1001 -51 
Q 480 -442 339 -442 
Q 282 -442 282 -397 
Q 282 -333 358 -269 
Q 710 32 973 282 
Q 1466 755 1779 1248 
Q 1344 1830 1114 2099 
L 1069 2163 
Q 1050 2195 1050 2243 
Q 1050 2291 1130 2339 
Q 1210 2387 1251 2387 
Q 1293 2387 1376 2313 
Q 1459 2240 1978 1574 
Q 2310 2189 2310 2470 
L 2310 2547 
Q 2310 2650 2364 2650 
Q 2419 2650 2509 2592 
Q 2752 2445 2752 2298 
Q 2752 2227 2553 1852 
Q 2355 1478 2221 1261 
z
" transform="scale(0.015625)"/>
       <path id="LXGW-Bright-Regular-8f7d" d="M 5299 4026 
Q 5299 3962 5216 3866 
Q 5133 3770 5072 3770 
Q 5011 3770 4890 3930 
Q 4646 4250 4339 4467 
Q 4230 4557 4230 4617 
Q 4230 4678 4320 4739 
Q 4410 4800 4442 4800 
Q 4474 4800 4659 4666 
Q 5190 4288 5299 4026 
z
M 1414 4301 
L 2029 4346 
L 2029 4678 
Q 2029 4749 2019 4829 
Q 2010 4909 1939 4979 
Q 1907 5024 1907 5053 
Q 1907 5082 1968 5082 
Q 2029 5082 2131 5069 
Q 2413 5024 2413 4858 
L 2406 4371 
L 2810 4397 
Q 2931 4403 3001 4428 
Q 3072 4454 3110 4454 
Q 3149 4454 3219 4403 
Q 3398 4288 3398 4186 
Q 3398 4115 3258 4102 
L 2406 4045 
L 2400 3520 
L 3667 3590 
Q 3635 3808 3603 4105 
Q 3571 4403 3545 4630 
Q 3520 4858 3488 4934 
Q 3456 5011 3401 5062 
Q 3347 5114 3347 5139 
Q 3347 5165 3424 5165 
Q 3878 5165 3898 4998 
Q 3968 4186 4045 3610 
L 5312 3680 
Q 5421 3693 5478 3712 
Q 5536 3731 5603 3731 
Q 5670 3731 5737 3670 
Q 5805 3610 5843 3542 
Q 5882 3475 5882 3462 
Q 5882 3386 5702 3373 
L 4109 3283 
Q 4224 2682 4313 2342 
Q 4403 2003 4608 1472 
Q 4877 1862 5075 2317 
Q 5120 2400 5117 2521 
Q 5114 2643 5162 2643 
Q 5210 2643 5296 2585 
Q 5382 2528 5456 2445 
Q 5530 2362 5530 2323 
Q 5536 2214 5283 1808 
Q 5030 1402 4794 1101 
Q 5152 429 5600 26 
Q 5632 6 5645 6 
Q 5683 6 5740 160 
Q 5798 314 5984 1018 
Q 6035 1210 6099 1210 
Q 6163 1210 6163 1030 
L 6163 992 
Q 6150 467 6083 76 
Q 6016 -314 5952 -406 
Q 5888 -499 5760 -499 
Q 5632 -499 5408 -333 
Q 4954 19 4525 787 
L 4512 774 
Q 4192 384 3689 16 
Q 3187 -352 3078 -352 
Q 3027 -352 3024 -304 
Q 3021 -256 3098 -192 
Q 3814 422 4346 1088 
L 4352 1094 
Q 4096 1722 3974 2138 
Q 3853 2554 3731 3245 
L 3725 3245 
Q 3725 3251 3725 3258 
L 877 3098 
L 794 3098 
Q 646 3098 614 3126 
Q 582 3155 515 3248 
Q 448 3341 448 3395 
Q 448 3450 474 3450 
L 506 3450 
L 736 3424 
L 806 3424 
L 2022 3494 
L 2022 4019 
L 1491 3987 
Q 1453 3981 1421 3981 
L 1357 3981 
Q 1216 3981 1136 4051 
Q 1056 4122 1024 4198 
Q 992 4275 992 4291 
Q 992 4307 1050 4307 
L 1088 4307 
Q 1178 4294 1267 4294 
L 1414 4301 
z
M 2112 2560 
L 2944 2605 
Q 3072 2611 3149 2640 
Q 3226 2669 3277 2669 
Q 3328 2669 3411 2618 
Q 3610 2502 3610 2406 
Q 3610 2355 3462 2330 
L 1978 2246 
Q 1939 2176 1773 1869 
L 1562 1485 
Q 1581 1491 1696 1498 
L 2202 1549 
L 2202 1683 
Q 2202 1811 2144 1888 
Q 2086 1965 2086 1990 
Q 2086 2035 2144 2035 
Q 2202 2035 2304 2010 
Q 2579 1952 2579 1798 
L 2573 1587 
L 3002 1632 
L 3213 1683 
Q 3309 1696 3398 1597 
Q 3488 1498 3494 1443 
Q 3501 1389 3456 1369 
Q 3411 1350 3366 1344 
L 2566 1254 
L 2560 742 
Q 2995 845 3305 937 
Q 3616 1030 3616 947 
Q 3603 858 2976 608 
Q 2771 518 2560 448 
L 2547 -461 
Q 2547 -608 2464 -608 
L 2458 -608 
Q 2426 -595 2368 -582 
Q 2310 -570 2227 -512 
Q 2144 -454 2144 -380 
Q 2144 -307 2173 -160 
Q 2202 -13 2202 134 
L 2202 320 
L 2118 288 
Q 1920 224 1680 144 
Q 1440 64 1168 9 
Q 896 -45 841 -41 
Q 787 -38 732 26 
Q 678 90 640 173 
Q 602 256 563 326 
Q 557 365 557 378 
Q 557 410 602 410 
Q 947 390 1869 589 
L 2150 646 
L 2202 659 
L 2202 1210 
L 1728 1158 
L 1696 1158 
L 1453 1133 
L 1280 1101 
Q 1210 1101 1130 1142 
Q 1050 1184 1075 1293 
Q 1101 1318 1101 1350 
Q 1491 2010 1594 2221 
L 1152 2202 
Q 1005 2202 966 2240 
Q 870 2310 835 2400 
Q 800 2490 800 2518 
Q 800 2547 822 2547 
Q 845 2547 902 2531 
Q 960 2515 1101 2515 
L 1190 2515 
L 1715 2541 
Q 1786 2733 1805 2803 
Q 1824 2874 1805 2944 
Q 1754 3110 1856 3110 
Q 1952 3123 2106 3034 
Q 2266 2957 2227 2842 
L 2112 2560 
z
" transform="scale(0.015625)"/>
       <path id="LXGW-Bright-Regular-8377" d="M 4240 5187 
Q 4352 5139 4454 5068 
Q 4557 4998 4557 4937 
Q 4557 4877 4365 4397 
L 5184 4442 
Q 5376 4448 5465 4480 
Q 5555 4512 5606 4512 
Q 5658 4512 5792 4406 
Q 5926 4301 5926 4211 
Q 5926 4141 5766 4128 
L 4218 4038 
Q 3917 3411 3849 3360 
Q 3782 3309 3738 3309 
Q 3661 3309 3661 3418 
Q 3661 3456 3853 4019 
L 2662 3955 
L 2739 3494 
L 2739 3450 
Q 2739 3341 2620 3341 
Q 2502 3341 2400 3411 
Q 2298 3482 2298 3578 
L 2298 3750 
Q 2298 3789 2285 3834 
L 2266 3936 
L 1050 3866 
Q 1005 3859 973 3859 
L 902 3859 
Q 742 3859 681 3916 
Q 621 3974 573 4073 
Q 525 4173 525 4205 
Q 525 4237 563 4237 
Q 602 4237 662 4221 
Q 723 4205 838 4205 
L 2208 4282 
L 2144 4634 
Q 2131 4736 2035 4832 
Q 1939 4928 1939 4954 
Q 1939 5024 2156 5024 
Q 2374 5024 2441 4957 
Q 2509 4890 2515 4845 
L 2605 4301 
L 3962 4378 
Q 4058 4659 4090 4877 
L 4090 4928 
Q 4090 5050 4061 5104 
Q 4032 5158 4032 5196 
Q 4032 5235 4080 5235 
Q 4128 5235 4240 5187 
z
M 1856 3373 
Q 1856 3398 1843 3462 
Q 1843 3533 1907 3533 
Q 1971 3533 2070 3478 
Q 2170 3424 2250 3350 
Q 2330 3277 2330 3238 
Q 2330 3200 2317 3174 
Q 1984 2643 1728 2317 
L 1734 -448 
Q 1734 -627 1613 -627 
Q 1536 -627 1440 -570 
Q 1274 -480 1274 -365 
Q 1274 -333 1299 -227 
Q 1325 -122 1325 141 
L 1338 1875 
Q 947 1453 633 1219 
Q 320 986 230 986 
Q 198 986 198 1034 
Q 198 1082 301 1190 
Q 1222 2150 1664 2899 
Q 1856 3232 1856 3373 
z
M 5152 -45 
L 5165 -282 
Q 5165 -410 5075 -515 
Q 4986 -621 4902 -621 
Q 4819 -621 4675 -557 
Q 4531 -493 4352 -393 
Q 4173 -294 4003 -185 
Q 3834 -77 3725 16 
Q 3616 109 3616 153 
Q 3616 198 3673 198 
Q 3731 198 4038 80 
Q 4346 -38 4749 -115 
L 4742 2752 
L 2899 2643 
Q 2771 2630 2649 2630 
Q 2528 2630 2441 2707 
Q 2355 2784 2320 2873 
Q 2285 2963 2285 2992 
Q 2285 3021 2313 3021 
Q 2342 3021 2412 3005 
Q 2483 2989 2630 2989 
L 2720 2989 
L 5389 3149 
Q 5523 3155 5587 3180 
Q 5651 3206 5705 3206 
Q 5760 3206 5843 3145 
Q 5926 3085 5987 3011 
Q 6048 2938 6048 2899 
Q 6048 2842 5888 2822 
L 5146 2778 
L 5152 -45 
z
M 2397 2019 
Q 2336 2106 2336 2138 
Q 2336 2170 2419 2170 
Q 2502 2170 2790 2054 
L 3776 2118 
L 3827 2118 
Q 3949 2118 4022 2048 
Q 4096 1978 4096 1926 
Q 4096 1875 4080 1849 
Q 4064 1824 4058 1798 
L 3949 1126 
Q 4128 928 4128 870 
Q 4128 813 4070 806 
Q 4013 800 3942 794 
L 2925 749 
L 2931 627 
L 2931 595 
Q 2931 474 2848 474 
Q 2714 474 2627 544 
Q 2541 614 2541 704 
L 2541 736 
Q 2560 947 2560 1024 
L 2477 1754 
Q 2458 1933 2397 2019 
z
M 3667 1779 
L 2848 1728 
L 2899 1075 
L 3610 1107 
L 3667 1779 
z
" transform="scale(0.015625)"/>
      </defs>
      <use xlink:href="#LXGW-Bright-Regular-7406"/>
      <use xlink:href="#LXGW-Bright-Regular-8bba" x="99.999985"/>
      <use xlink:href="#LXGW-Bright-Regular-6709" x="199.999969"/>
      <use xlink:href="#LXGW-Bright-Regular-6548" x="299.999954"/>
      <use xlink:href="#LXGW-Bright-Regular-8f7d" x="399.999939"/>
      <use xlink:href="#LXGW-Bright-Regular-8377" x="499.999924"/>
     </g>
    </g>
   </g>
  </g>
  <g id="axes_2">
   <g id="matplotlib.axis_3">
    <g id="ytick_8">
     <g id="line2d_29">
      <path d="M 37.100625 378.526806 
L 670.168125 378.526806 
" clip-path="url(#pf765d7f43b)" style="fill: none; stroke: #cccccc; stroke-width: 0.8; stroke-linecap: round"/>
     </g>
     <g id="line2d_30"/>
     <g id="text_18">
      <!-- 0 -->
      <g style="fill: #ff0000" transform="translate(673.668125 382.106494) scale(0.1 -0.1)">
       <use xlink:href="#LXGW-Bright-Regular-30"/>
      </g>
     </g>
    </g>
    <g id="ytick_9">
     <g id="line2d_31">
      <path d="M 37.100625 334.187401 
L 670.168125 334.187401 
" clip-path="url(#pf765d7f43b)" style="fill: none; stroke: #cccccc; stroke-width: 0.8; stroke-linecap: round"/>
     </g>
     <g id="line2d_32"/>
     <g id="text_19">
      <!-- 100 -->
      <g style="fill: #ff0000" transform="translate(673.668125 337.767088) scale(0.1 -0.1)">
       <use xlink:href="#LXGW-Bright-Regular-31"/>
       <use xlink:href="#LXGW-Bright-Regular-30" x="51.699997"/>
       <use xlink:href="#LXGW-Bright-Regular-30" x="103.399994"/>
      </g>
     </g>
    </g>
    <g id="ytick_10">
     <g id="line2d_33">
      <path d="M 37.100625 289.847995 
L 670.168125 289.847995 
" clip-path="url(#pf765d7f43b)" style="fill: none; stroke: #cccccc; stroke-width: 0.8; stroke-linecap: round"/>
     </g>
     <g id="line2d_34"/>
     <g id="text_20">
      <!-- 200 -->
      <g style="fill: #ff0000" transform="translate(673.668125 293.427683) scale(0.1 -0.1)">
       <use xlink:href="#LXGW-Bright-Regular-32"/>
       <use xlink:href="#LXGW-Bright-Regular-30" x="51.699997"/>
       <use xlink:href="#LXGW-Bright-Regular-30" x="103.399994"/>
      </g>
     </g>
    </g>
    <g id="ytick_11">
     <g id="line2d_35">
      <path d="M 37.100625 245.50859 
L 670.168125 245.50859 
" clip-path="url(#pf765d7f43b)" style="fill: none; stroke: #cccccc; stroke-width: 0.8; stroke-linecap: round"/>
     </g>
     <g id="line2d_36"/>
     <g id="text_21">
      <!-- 300 -->
      <g style="fill: #ff0000" transform="translate(673.668125 249.088277) scale(0.1 -0.1)">
       <use xlink:href="#LXGW-Bright-Regular-33"/>
       <use xlink:href="#LXGW-Bright-Regular-30" x="51.699997"/>
       <use xlink:href="#LXGW-Bright-Regular-30" x="103.399994"/>
      </g>
     </g>
    </g>
    <g id="ytick_12">
     <g id="line2d_37">
      <path d="M 37.100625 201.169184 
L 670.168125 201.169184 
" clip-path="url(#pf765d7f43b)" style="fill: none; stroke: #cccccc; stroke-width: 0.8; stroke-linecap: round"/>
     </g>
     <g id="line2d_38"/>
     <g id="text_22">
      <!-- 400 -->
      <g style="fill: #ff0000" transform="translate(673.668125 204.748872) scale(0.1 -0.1)">
       <use xlink:href="#LXGW-Bright-Regular-34"/>
       <use xlink:href="#LXGW-Bright-Regular-30" x="51.699997"/>
       <use xlink:href="#LXGW-Bright-Regular-30" x="103.399994"/>
      </g>
     </g>
    </g>
    <g id="ytick_13">
     <g id="line2d_39">
      <path d="M 37.100625 156.829779 
L 670.168125 156.829779 
" clip-path="url(#pf765d7f43b)" style="fill: none; stroke: #cccccc; stroke-width: 0.8; stroke-linecap: round"/>
     </g>
     <g id="line2d_40"/>
     <g id="text_23">
      <!-- 500 -->
      <g style="fill: #ff0000" transform="translate(673.668125 160.409466) scale(0.1 -0.1)">
       <defs>
        <path id="LXGW-Bright-Regular-35" d="M 794 4192 
L 2778 4230 
L 2778 3827 
L 1146 3827 
L 1043 2573 
Q 1299 2605 1523 2605 
Q 2182 2605 2547 2269 
Q 2912 1933 2912 1338 
Q 2912 928 2742 617 
Q 2573 307 2262 134 
Q 1952 -38 1549 -38 
Q 890 -38 410 429 
L 621 710 
Q 979 352 1517 352 
Q 1946 352 2208 611 
Q 2470 870 2470 1299 
Q 2470 1760 2182 2016 
Q 1894 2272 1382 2272 
Q 1210 2272 986 2246 
Q 762 2221 621 2176 
L 794 4192 
z
" transform="scale(0.015625)"/>
       </defs>
       <use xlink:href="#LXGW-Bright-Regular-35"/>
       <use xlink:href="#LXGW-Bright-Regular-30" x="51.699997"/>
       <use xlink:href="#LXGW-Bright-Regular-30" x="103.399994"/>
      </g>
     </g>
    </g>
    <g id="ytick_14">
     <g id="line2d_41">
      <path d="M 37.100625 112.490373 
L 670.168125 112.490373 
" clip-path="url(#pf765d7f43b)" style="fill: none; stroke: #cccccc; stroke-width: 0.8; stroke-linecap: round"/>
     </g>
     <g id="line2d_42"/>
     <g id="text_24">
      <!-- 600 -->
      <g style="fill: #ff0000" transform="translate(673.668125 116.070061) scale(0.1 -0.1)">
       <use xlink:href="#LXGW-Bright-Regular-36"/>
       <use xlink:href="#LXGW-Bright-Regular-30" x="51.699997"/>
       <use xlink:href="#LXGW-Bright-Regular-30" x="103.399994"/>
      </g>
     </g>
    </g>
    <g id="ytick_15">
     <g id="line2d_43">
      <path d="M 37.100625 68.150968 
L 670.168125 68.150968 
" clip-path="url(#pf765d7f43b)" style="fill: none; stroke: #cccccc; stroke-width: 0.8; stroke-linecap: round"/>
     </g>
     <g id="line2d_44"/>
     <g id="text_25">
      <!-- 700 -->
      <g style="fill: #ff0000" transform="translate(673.668125 71.730655) scale(0.1 -0.1)">
       <use xlink:href="#LXGW-Bright-Regular-37"/>
       <use xlink:href="#LXGW-Bright-Regular-30" x="51.699997"/>
       <use xlink:href="#LXGW-Bright-Regular-30" x="103.399994"/>
      </g>
     </g>
    </g>
    <g id="ytick_16">
     <g id="line2d_45">
      <path d="M 37.100625 23.811562 
L 670.168125 23.811562 
" clip-path="url(#pf765d7f43b)" style="fill: none; stroke: #cccccc; stroke-width: 0.8; stroke-linecap: round"/>
     </g>
     <g id="line2d_46"/>
     <g id="text_26">
      <!-- 800 -->
      <g style="fill: #ff0000" transform="translate(673.668125 27.39125) scale(0.1 -0.1)">
       <use xlink:href="#LXGW-Bright-Regular-38"/>
       <use xlink:href="#LXGW-Bright-Regular-30" x="51.699997"/>
       <use xlink:href="#LXGW-Bright-Regular-30" x="103.399994"/>
      </g>
     </g>
    </g>
    <g id="text_27">
     <!-- 理论有效载荷 (吨) -->
     <g style="fill: #ff0000" transform="translate(702.285937 253.663125) rotate(-90) scale(0.12 -0.12)">
      <defs>
       <path id="LXGW-Bright-Regular-5428" d="M 3091 3501 
Q 2931 3488 2822 3539 
Q 2714 3590 2643 3840 
Q 2643 3872 2665 3872 
Q 2688 3872 2761 3849 
Q 2835 3827 2957 3834 
L 3002 3834 
L 3923 3917 
L 3930 4627 
Q 3930 4819 3814 4941 
Q 3789 4979 3789 5005 
Q 3789 5050 3862 5050 
Q 3936 5050 4038 5030 
Q 4314 4966 4314 4813 
L 4307 3949 
L 5082 4019 
Q 5267 4045 5321 4067 
Q 5376 4090 5417 4093 
Q 5459 4096 5529 4045 
Q 5600 3994 5657 3926 
Q 5715 3859 5715 3821 
Q 5722 3744 5594 3718 
L 4301 3603 
L 4288 1638 
L 5094 1728 
L 5133 2810 
L 5133 2874 
Q 5133 3027 5101 3088 
Q 5069 3149 5069 3168 
Q 5069 3213 5129 3213 
Q 5190 3213 5328 3165 
Q 5466 3117 5494 3081 
Q 5523 3046 5523 2989 
L 5523 2938 
L 5434 1203 
Q 5421 1043 5338 1043 
Q 5222 1043 5126 1142 
Q 5030 1242 5030 1277 
Q 5030 1312 5056 1389 
L 4282 1293 
L 4275 282 
Q 4275 160 4320 93 
Q 4365 26 4518 3 
Q 4672 -19 4989 -19 
Q 5306 -19 5472 13 
Q 5760 64 5811 224 
Q 5933 595 5971 924 
Q 6010 1254 6093 1254 
Q 6176 1254 6176 860 
Q 6176 467 6150 198 
Q 6125 -70 6006 -198 
Q 5888 -326 5625 -368 
Q 5363 -410 4992 -410 
Q 4621 -410 4397 -374 
Q 4173 -339 4038 -201 
Q 3904 -64 3904 256 
L 3910 1242 
L 3245 1158 
Q 3149 1146 3097 1126 
Q 3046 1107 3020 1107 
Q 2995 1107 2940 1120 
Q 2886 1133 2832 1174 
Q 2778 1216 2778 1274 
L 2822 1632 
L 2835 2656 
Q 2835 2810 2746 2944 
Q 2726 2976 2726 3005 
Q 2726 3034 2780 3034 
Q 2835 3034 2985 2989 
Q 3136 2944 3181 2915 
Q 3226 2886 3226 2810 
L 3226 2790 
L 3181 1510 
L 3910 1594 
L 3923 3565 
L 3181 3501 
L 3091 3501 
z
M 2042 3488 
L 1024 3430 
L 1088 1869 
L 1933 1901 
L 2042 3488 
z
M 698 1299 
Q 723 1498 723 1568 
L 659 3405 
Q 646 3622 585 3721 
Q 525 3821 525 3862 
Q 525 3904 605 3904 
Q 685 3904 1011 3782 
L 2093 3853 
Q 2125 3859 2150 3859 
Q 2176 3859 2202 3859 
Q 2349 3859 2409 3776 
Q 2470 3693 2470 3648 
Q 2470 3603 2457 3568 
Q 2445 3533 2438 3488 
L 2310 1907 
Q 2464 1722 2464 1651 
Q 2464 1581 2413 1571 
Q 2362 1562 2285 1555 
L 1101 1504 
L 1114 1178 
L 1114 1152 
Q 1114 1030 1024 1030 
Q 992 1030 915 1062 
Q 698 1146 698 1299 
z
" transform="scale(0.015625)"/>
      </defs>
      <use xlink:href="#LXGW-Bright-Regular-7406"/>
      <use xlink:href="#LXGW-Bright-Regular-8bba" x="99.999985"/>
      <use xlink:href="#LXGW-Bright-Regular-6709" x="199.999969"/>
      <use xlink:href="#LXGW-Bright-Regular-6548" x="299.999954"/>
      <use xlink:href="#LXGW-Bright-Regular-8f7d" x="399.999939"/>
      <use xlink:href="#LXGW-Bright-Regular-8377" x="499.999924"/>
      <use xlink:href="#LXGW-Bright-Regular-20" x="599.999908"/>
      <use xlink:href="#LXGW-Bright-Regular-28" x="624.599899"/>
      <use xlink:href="#LXGW-Bright-Regular-5428" x="662.799896"/>
      <use xlink:href="#LXGW-Bright-Regular-29" x="762.799881"/>
     </g>
    </g>
   </g>
   <g id="line2d_47">
    <path d="M 37.100625 70.74898 
L 43.495246 79.634181 
L 49.889867 88.05174 
L 56.284489 96.118568 
L 62.67911 103.951574 
L 69.073731 111.433849 
L 75.468352 118.799213 
L 81.862973 125.930756 
L 88.257595 132.711567 
L 94.652216 139.258558 
L 101.046837 145.571727 
L 107.441458 151.884896 
L 113.83608 157.847334 
L 120.230701 163.57595 
L 126.625322 169.187656 
L 133.019943 174.682452 
L 139.414564 179.943426 
L 145.809186 185.08749 
L 152.203807 190.114643 
L 158.598428 194.907975 
L 164.993049 199.584397 
L 171.38767 204.143908 
L 177.782292 208.586509 
L 184.176913 212.912199 
L 190.571534 217.120978 
L 196.966155 221.212847 
L 203.360777 225.187806 
L 209.755398 229.045854 
L 216.150019 232.786991 
L 222.54464 236.411218 
L 228.939261 240.035445 
L 235.333883 243.542761 
L 241.728504 246.933167 
L 248.123125 250.206662 
L 254.517746 253.363246 
L 260.912367 256.519831 
L 267.306989 259.61796 
L 273.70161 262.599179 
L 280.096231 265.521943 
L 286.490852 268.327796 
L 292.885473 271.133649 
L 299.280095 273.822591 
L 305.674716 276.511534 
L 312.069337 279.083566 
L 318.463958 281.655597 
L 324.85858 284.110719 
L 331.253201 286.507385 
L 337.647822 288.904051 
L 344.042443 291.183807 
L 350.437064 293.463562 
L 356.831686 295.684862 
L 363.226307 297.789252 
L 369.620928 299.893642 
L 376.015549 301.998032 
L 382.41017 303.985511 
L 388.804792 305.97299 
L 395.199413 307.902014 
L 401.594034 309.831038 
L 407.988655 311.701607 
L 414.383277 313.51372 
L 420.777898 315.267378 
L 427.172519 317.021036 
L 433.56714 318.716239 
L 439.961761 320.411442 
L 446.356383 322.04819 
L 452.751004 323.626482 
L 459.145625 325.204774 
L 465.540246 326.783067 
L 471.934867 328.302904 
L 478.329489 329.764285 
L 484.72411 331.225667 
L 491.118731 332.628594 
L 497.513352 334.03152 
L 503.907973 335.434447 
L 510.302595 336.778918 
L 516.697216 338.064934 
L 523.091837 339.35095 
L 529.486458 340.636966 
L 535.88108 341.893754 
L 542.275701 343.092087 
L 548.670322 344.319648 
L 555.064943 345.488753 
L 561.459564 346.657859 
L 567.854186 347.768509 
L 574.248807 348.908387 
L 580.643428 349.989809 
L 587.038049 351.071232 
L 593.43267 352.152654 
L 599.827292 353.175621 
L 606.221913 354.198589 
L 612.616534 355.192328 
L 619.011155 356.186068 
L 625.405777 357.15058 
L 631.800398 358.085864 
L 638.195019 359.021149 
L 644.58964 359.927205 
L 650.984261 360.833262 
L 657.378883 361.739319 
L 663.773504 362.58692 
L 670.168125 363.463749 
" clip-path="url(#pf765d7f43b)" style="fill: none; stroke: #ff0000; stroke-width: 2.5; stroke-linecap: round"/>
   </g>
   <g id="patch_7">
    <path d="M 37.100625 387.394687 
L 37.100625 23.811562 
" style="fill: none; stroke: #cccccc; stroke-linejoin: miter; stroke-linecap: square"/>
   </g>
   <g id="patch_8">
    <path d="M 670.168125 387.394687 
L 670.168125 23.811562 
" style="fill: none; stroke: #cccccc; stroke-linejoin: miter; stroke-linecap: square"/>
   </g>
   <g id="patch_9">
    <path d="M 37.100625 387.394687 
L 670.168125 387.394687 
" style="fill: none; stroke: #cccccc; stroke-linejoin: miter; stroke-linecap: square"/>
   </g>
   <g id="patch_10">
    <path d="M 37.100625 23.811562 
L 670.168125 23.811562 
" style="fill: none; stroke: #cccccc; stroke-linejoin: miter; stroke-linecap: square"/>
   </g>
   <g id="text_28">
    <!-- 重力系数与 Delta-v/理论有效载荷的关系 -->
    <g style="fill: #262626" transform="translate(229.509062 17.811562) scale(0.14 -0.14)">
     <defs>
      <path id="LXGW-Bright-Regular-4e0e" d="M 4800 1638 
Q 4883 2170 4909 2522 
L 2042 2381 
Q 1971 2374 1920 2358 
Q 1869 2342 1798 2342 
Q 1728 2342 1629 2387 
Q 1530 2432 1530 2547 
Q 1530 2586 1654 3101 
Q 1779 3616 1884 4173 
Q 1990 4730 1990 4832 
Q 1990 4934 1968 5014 
Q 1946 5094 1946 5126 
Q 1946 5178 2006 5178 
Q 2067 5178 2189 5126 
Q 2445 5024 2445 4896 
L 2342 4378 
Q 2298 4122 2246 3872 
L 4198 3974 
Q 4602 4006 4678 4038 
Q 4755 4070 4816 4070 
Q 4877 4070 4966 4019 
Q 5056 3968 5123 3894 
Q 5190 3821 5190 3763 
Q 5190 3686 5056 3674 
L 2170 3520 
L 1978 2739 
L 4998 2886 
L 5050 2886 
Q 5152 2886 5267 2819 
Q 5382 2752 5382 2672 
Q 5382 2592 5366 2547 
Q 5350 2502 5331 2326 
Q 5312 2150 5235 1658 
L 5171 1306 
Q 5037 627 4902 195 
Q 4768 -237 4678 -393 
Q 4589 -550 4505 -604 
Q 4422 -659 4352 -659 
Q 4282 -659 4006 -534 
Q 3731 -410 3302 -112 
Q 2874 186 2874 307 
Q 2874 358 2947 358 
Q 3021 358 3305 217 
Q 3590 77 4211 -128 
L 4237 -134 
Q 4282 -134 4307 -96 
Q 4538 352 4736 1286 
L 4800 1638 
z
M 941 1146 
Q 787 1133 678 1133 
Q 570 1133 483 1213 
Q 397 1293 352 1379 
Q 307 1466 307 1498 
Q 307 1530 358 1530 
L 390 1530 
Q 538 1485 742 1485 
L 832 1485 
L 3354 1600 
Q 3526 1606 3692 1644 
Q 3859 1683 3907 1683 
Q 3955 1683 4038 1632 
Q 4250 1504 4250 1376 
Q 4250 1299 4147 1286 
L 941 1146 
z
" transform="scale(0.015625)"/>
      <path id="LXGW-Bright-Regular-7684" d="M 3846 4890 
L 3834 4992 
Q 3834 5069 3898 5069 
Q 3917 5069 4019 5024 
Q 4307 4896 4307 4762 
Q 4307 4589 3898 3738 
L 5504 3834 
L 5530 3834 
Q 5613 3834 5696 3773 
Q 5779 3712 5779 3616 
L 5760 3469 
Q 5709 1747 5530 301 
Q 5427 -544 5082 -544 
Q 4934 -544 4841 -483 
Q 4749 -422 4605 -313 
Q 4461 -205 4301 -70 
Q 4141 64 4025 179 
Q 3910 294 3910 345 
Q 3910 397 3984 397 
Q 4058 397 4282 262 
Q 4506 128 4947 -45 
L 4960 -45 
Q 4998 -45 5018 6 
Q 5299 1107 5338 3469 
L 3731 3366 
Q 3450 2880 3232 2595 
Q 3014 2310 2944 2310 
Q 2912 2310 2912 2371 
Q 2912 2432 3104 2787 
Q 3296 3142 3571 3875 
Q 3846 4608 3846 4845 
L 3846 4890 
z
M 1715 4749 
Q 1715 4768 1702 4845 
Q 1702 4922 1779 4922 
Q 1920 4922 2035 4832 
Q 2150 4742 2150 4665 
Q 2150 4589 1920 4160 
Q 1715 3802 1581 3603 
L 2483 3654 
L 2560 3654 
Q 2746 3654 2803 3507 
Q 2822 3462 2822 3456 
L 2790 3328 
L 2688 480 
Q 2842 282 2842 214 
Q 2842 147 2790 134 
Q 2739 122 2656 115 
L 1229 64 
L 1235 -147 
L 1235 -166 
Q 1235 -307 1126 -307 
Q 979 -307 892 -233 
Q 806 -160 806 -77 
L 851 243 
L 794 3232 
Q 794 3418 717 3539 
Q 672 3629 672 3664 
Q 672 3699 768 3699 
Q 864 3699 1165 3584 
L 1222 3584 
Q 1715 4512 1715 4749 
z
M 2400 3302 
L 1171 3238 
L 1190 2061 
L 2368 2118 
L 2400 3302 
z
M 4755 1446 
Q 4755 1318 4589 1229 
Q 4525 1190 4483 1190 
Q 4442 1190 4358 1299 
Q 4160 1619 3913 1913 
Q 3667 2208 3564 2307 
Q 3462 2406 3462 2464 
Q 3462 2522 3532 2589 
Q 3603 2656 3657 2656 
Q 3712 2656 3869 2505 
Q 4026 2355 4390 1939 
Q 4755 1523 4755 1446 
z
M 2355 1773 
L 1197 1722 
L 1222 422 
L 2317 461 
L 2355 1773 
z
" transform="scale(0.015625)"/>
      <path id="LXGW-Bright-Regular-5173" d="M 2854 3865 
Q 2829 3782 2720 3731 
Q 2611 3680 2556 3696 
Q 2502 3712 2374 3981 
Q 2246 4250 1862 4723 
Q 1760 4826 1926 4947 
Q 2029 5018 2083 5002 
Q 2138 4986 2301 4800 
Q 2464 4614 2672 4281 
Q 2880 3949 2854 3865 
z
M 1120 1818 
Q 1005 1818 902 1850 
Q 762 1933 685 2125 
Q 672 2163 672 2176 
Q 672 2234 736 2234 
Q 762 2234 838 2214 
Q 915 2195 1069 2195 
L 1133 2195 
L 2829 2278 
Q 2918 2662 2938 3258 
L 1587 3181 
L 1459 3174 
Q 1286 3174 1229 3232 
Q 1056 3398 1056 3565 
Q 1056 3610 1088 3610 
Q 1126 3610 1206 3584 
Q 1286 3558 1414 3558 
L 1446 3558 
L 3309 3667 
Q 3322 3699 3392 3782 
Q 4045 4730 4026 5030 
Q 4013 5267 4275 5120 
Q 4378 5056 4458 4982 
Q 4538 4909 4544 4864 
Q 4550 4819 4493 4717 
Q 4096 4070 3686 3757 
Q 3565 3686 3546 3680 
L 4634 3744 
Q 4794 3757 4845 3776 
Q 4896 3795 4925 3795 
Q 4954 3795 5024 3731 
Q 5235 3578 5235 3469 
Q 5235 3386 5075 3366 
L 3386 3277 
Q 3360 2701 3270 2298 
L 4954 2374 
Q 5146 2394 5210 2416 
Q 5274 2438 5315 2438 
Q 5357 2438 5446 2381 
Q 5670 2234 5670 2112 
Q 5670 2029 5504 2010 
L 3398 1914 
Q 4122 864 5005 339 
Q 5478 58 6067 -134 
Q 6202 -173 6202 -221 
Q 6202 -269 6138 -346 
Q 5965 -544 5837 -544 
L 5651 -474 
Q 5158 -282 4662 73 
Q 4166 429 3792 809 
Q 3418 1190 3110 1677 
Q 3008 1408 2957 1299 
Q 2528 429 1734 -51 
Q 1139 -416 614 -525 
Q 422 -563 364 -563 
Q 307 -563 307 -506 
Q 307 -435 538 -326 
Q 2330 480 2726 1882 
L 1120 1818 
z
" transform="scale(0.015625)"/>
     </defs>
     <use xlink:href="#LXGW-Bright-Regular-91cd"/>
     <use xlink:href="#LXGW-Bright-Regular-529b" x="99.999985"/>
     <use xlink:href="#LXGW-Bright-Regular-7cfb" x="199.999969"/>
     <use xlink:href="#LXGW-Bright-Regular-6570" x="299.999954"/>
     <use xlink:href="#LXGW-Bright-Regular-4e0e" x="399.999939"/>
     <use xlink:href="#LXGW-Bright-Regular-20" x="499.999924"/>
     <use xlink:href="#LXGW-Bright-Regular-44" x="524.599915"/>
     <use xlink:href="#LXGW-Bright-Regular-65" x="598.499908"/>
     <use xlink:href="#LXGW-Bright-Regular-6c" x="644.099899"/>
     <use xlink:href="#LXGW-Bright-Regular-74" x="668.499893"/>
     <use xlink:href="#LXGW-Bright-Regular-61" x="706.499878"/>
     <use xlink:href="#LXGW-Bright-Regular-2d" x="751.899872"/>
     <use xlink:href="#LXGW-Bright-Regular-76" x="789.299866"/>
     <use xlink:href="#LXGW-Bright-Regular-2f" x="834.499863"/>
     <use xlink:href="#LXGW-Bright-Regular-7406" x="873.19986"/>
     <use xlink:href="#LXGW-Bright-Regular-8bba" x="973.199844"/>
     <use xlink:href="#LXGW-Bright-Regular-6709" x="1073.199829"/>
     <use xlink:href="#LXGW-Bright-Regular-6548" x="1173.199814"/>
     <use xlink:href="#LXGW-Bright-Regular-8f7d" x="1273.199799"/>
     <use xlink:href="#LXGW-Bright-Regular-8377" x="1373.199783"/>
     <use xlink:href="#LXGW-Bright-Regular-7684" x="1473.199768"/>
     <use xlink:href="#LXGW-Bright-Regular-5173" x="1573.199753"/>
     <use xlink:href="#LXGW-Bright-Regular-7cfb" x="1673.199738"/>
    </g>
   </g>
  </g>
 </g>
 <defs>
  <clipPath id="pf765d7f43b">
   <rect x="37.100625" y="23.811562" width="633.0675" height="363.583125"/>
  </clipPath>
 </defs>
</svg>
