<?xml version="1.0" encoding="utf-8" standalone="no"?>
<!DOCTYPE svg PUBLIC "-//W3C//DTD SVG 1.1//EN"
  "http://www.w3.org/Graphics/SVG/1.1/DTD/svg11.dtd">
<svg xmlns:xlink="http://www.w3.org/1999/xlink" width="556.866917pt" height="423.933125pt" viewBox="0 0 556.866917 423.933125" xmlns="http://www.w3.org/2000/svg" version="1.1">
 <metadata>
  <rdf:RDF xmlns:dc="http://purl.org/dc/elements/1.1/" xmlns:cc="http://creativecommons.org/ns#" xmlns:rdf="http://www.w3.org/1999/02/22-rdf-syntax-ns#">
   <cc:Work>
    <dc:type rdf:resource="http://purl.org/dc/dcmitype/StillImage"/>
    <dc:date>2025-04-12T19:14:15.472391</dc:date>
    <dc:format>image/svg+xml</dc:format>
    <dc:creator>
     <cc:Agent>
      <dc:title>Matplotlib v3.9.2, https://matplotlib.org/</dc:title>
     </cc:Agent>
    </dc:creator>
   </cc:Work>
  </rdf:RDF>
 </metadata>
 <defs>
  <style type="text/css">*{stroke-linejoin: round; stroke-linecap: butt}</style>
 </defs>
 <g id="figure_1">
  <g id="patch_1">
   <path d="M 0 423.933125 
L 556.866917 423.933125 
L 556.866917 0 
L 0 0 
z
" style="fill: #ffffff"/>
  </g>
  <g id="axes_1">
   <g id="patch_2">
    <path d="M 44.280938 385.113125 
L 545.746082 385.113125 
L 545.746082 23.223125 
L 44.280938 23.223125 
z
" style="fill: #ffffff"/>
   </g>
   <g id="matplotlib.axis_1">
    <g id="xtick_1">
     <g id="line2d_1">
      <path d="M 53.924498 385.113125 
L 53.924498 23.223125 
" clip-path="url(#pe391beacf3)" style="fill: none; stroke-dasharray: 2.96,1.28; stroke-dashoffset: 0; stroke: #cccccc; stroke-opacity: 0.7; stroke-width: 0.8"/>
     </g>
     <g id="line2d_2"/>
     <g id="text_1">
      <!-- 0 -->
      <g style="fill: #262626" transform="translate(51.339342 395.7725) scale(0.1 -0.1)">
       <defs>
        <path id="LXGW-Bright-Regular-30" d="M 1632 -38 
Q 1235 -38 937 221 
Q 640 480 480 960 
Q 320 1440 320 2074 
Q 320 2720 489 3213 
Q 659 3706 969 3978 
Q 1280 4250 1683 4250 
Q 2074 4250 2368 3987 
Q 2662 3725 2822 3248 
Q 2982 2771 2982 2144 
Q 2982 1491 2812 998 
Q 2643 506 2336 234 
Q 2029 -38 1632 -38 
z
M 1677 333 
Q 2067 333 2294 803 
Q 2522 1274 2522 2061 
Q 2522 2605 2410 3014 
Q 2298 3424 2096 3651 
Q 1894 3878 1632 3878 
Q 1242 3878 1011 3408 
Q 781 2938 781 2157 
Q 781 1613 893 1200 
Q 1005 787 1209 560 
Q 1414 333 1677 333 
z
" transform="scale(0.015625)"/>
       </defs>
       <use xlink:href="#LXGW-Bright-Regular-30"/>
      </g>
     </g>
    </g>
    <g id="xtick_2">
     <g id="line2d_3">
      <path d="M 150.360103 385.113125 
L 150.360103 23.223125 
" clip-path="url(#pe391beacf3)" style="fill: none; stroke-dasharray: 2.96,1.28; stroke-dashoffset: 0; stroke: #cccccc; stroke-opacity: 0.7; stroke-width: 0.8"/>
     </g>
     <g id="line2d_4"/>
     <g id="text_2">
      <!-- 1 -->
      <g style="fill: #262626" transform="translate(147.774946 395.7725) scale(0.1 -0.1)">
       <defs>
        <path id="LXGW-Bright-Regular-31" d="M 1850 3622 
L 704 2784 
L 474 3123 
L 2061 4211 
L 2285 4211 
L 2285 0 
L 1850 0 
L 1850 3622 
z
" transform="scale(0.015625)"/>
       </defs>
       <use xlink:href="#LXGW-Bright-Regular-31"/>
      </g>
     </g>
    </g>
    <g id="xtick_3">
     <g id="line2d_5">
      <path d="M 246.795707 385.113125 
L 246.795707 23.223125 
" clip-path="url(#pe391beacf3)" style="fill: none; stroke-dasharray: 2.96,1.28; stroke-dashoffset: 0; stroke: #cccccc; stroke-opacity: 0.7; stroke-width: 0.8"/>
     </g>
     <g id="line2d_6"/>
     <g id="text_3">
      <!-- 2 -->
      <g style="fill: #262626" transform="translate(244.210551 395.7725) scale(0.1 -0.1)">
       <defs>
        <path id="LXGW-Bright-Regular-32" d="M 371 237 
Q 1408 1248 1894 1897 
Q 2381 2547 2381 3085 
Q 2381 3443 2176 3660 
Q 1971 3878 1626 3878 
Q 1344 3878 1107 3702 
Q 870 3526 736 3155 
L 403 3302 
Q 608 3795 950 4022 
Q 1293 4250 1715 4250 
Q 2234 4250 2525 3942 
Q 2816 3635 2816 3162 
Q 2816 2573 2358 1897 
Q 1901 1222 1011 384 
L 2995 384 
L 2995 0 
L 442 0 
L 371 237 
z
" transform="scale(0.015625)"/>
       </defs>
       <use xlink:href="#LXGW-Bright-Regular-32"/>
      </g>
     </g>
    </g>
    <g id="xtick_4">
     <g id="line2d_7">
      <path d="M 343.231312 385.113125 
L 343.231312 23.223125 
" clip-path="url(#pe391beacf3)" style="fill: none; stroke-dasharray: 2.96,1.28; stroke-dashoffset: 0; stroke: #cccccc; stroke-opacity: 0.7; stroke-width: 0.8"/>
     </g>
     <g id="line2d_8"/>
     <g id="text_4">
      <!-- 3 -->
      <g style="fill: #262626" transform="translate(340.646156 395.7725) scale(0.1 -0.1)">
       <defs>
        <path id="LXGW-Bright-Regular-33" d="M 2579 1152 
Q 2579 1574 2268 1811 
Q 1958 2048 1312 2048 
L 1312 2323 
Q 1856 2323 2137 2563 
Q 2419 2803 2419 3181 
Q 2419 3514 2208 3709 
Q 1997 3904 1645 3904 
Q 1331 3904 1078 3734 
Q 826 3565 704 3232 
L 384 3341 
Q 557 3789 909 4019 
Q 1261 4250 1715 4250 
Q 2234 4250 2554 3971 
Q 2874 3693 2874 3226 
Q 2874 2874 2685 2614 
Q 2496 2355 2118 2227 
Q 2566 2112 2800 1840 
Q 3034 1568 3034 1184 
Q 3034 819 2835 544 
Q 2637 269 2313 118 
Q 1990 -32 1619 -32 
Q 1184 -32 816 182 
Q 448 397 269 845 
L 621 1050 
Q 762 685 1040 509 
Q 1318 333 1683 333 
Q 2099 333 2339 553 
Q 2579 774 2579 1152 
z
" transform="scale(0.015625)"/>
       </defs>
       <use xlink:href="#LXGW-Bright-Regular-33"/>
      </g>
     </g>
    </g>
    <g id="xtick_5">
     <g id="line2d_9">
      <path d="M 439.666917 385.113125 
L 439.666917 23.223125 
" clip-path="url(#pe391beacf3)" style="fill: none; stroke-dasharray: 2.96,1.28; stroke-dashoffset: 0; stroke: #cccccc; stroke-opacity: 0.7; stroke-width: 0.8"/>
     </g>
     <g id="line2d_10"/>
     <g id="text_5">
      <!-- 4 -->
      <g style="fill: #262626" transform="translate(437.08176 395.7725) scale(0.1 -0.1)">
       <defs>
        <path id="LXGW-Bright-Regular-34" d="M 2496 1446 
L 3130 1446 
L 3130 1088 
L 2496 1088 
L 2502 0 
L 2093 0 
L 2093 1088 
L 307 1088 
L 154 1344 
L 2112 4243 
L 2483 4211 
L 2496 1446 
z
M 2093 1446 
L 2099 3603 
L 659 1446 
L 2093 1446 
z
" transform="scale(0.015625)"/>
       </defs>
       <use xlink:href="#LXGW-Bright-Regular-34"/>
      </g>
     </g>
    </g>
    <g id="xtick_6">
     <g id="line2d_11">
      <path d="M 536.102521 385.113125 
L 536.102521 23.223125 
" clip-path="url(#pe391beacf3)" style="fill: none; stroke-dasharray: 2.96,1.28; stroke-dashoffset: 0; stroke: #cccccc; stroke-opacity: 0.7; stroke-width: 0.8"/>
     </g>
     <g id="line2d_12"/>
     <g id="text_6">
      <!-- 5 -->
      <g style="fill: #262626" transform="translate(533.517365 395.7725) scale(0.1 -0.1)">
       <defs>
        <path id="LXGW-Bright-Regular-35" d="M 794 4192 
L 2778 4230 
L 2778 3827 
L 1146 3827 
L 1043 2573 
Q 1299 2605 1523 2605 
Q 2182 2605 2547 2269 
Q 2912 1933 2912 1338 
Q 2912 928 2742 617 
Q 2573 307 2262 134 
Q 1952 -38 1549 -38 
Q 890 -38 410 429 
L 621 710 
Q 979 352 1517 352 
Q 1946 352 2208 611 
Q 2470 870 2470 1299 
Q 2470 1760 2182 2016 
Q 1894 2272 1382 2272 
Q 1210 2272 986 2246 
Q 762 2221 621 2176 
L 794 4192 
z
" transform="scale(0.015625)"/>
       </defs>
       <use xlink:href="#LXGW-Bright-Regular-35"/>
      </g>
     </g>
    </g>
    <g id="text_7">
     <!-- $\Delta v / v_e$ -->
     <g style="fill: #262626" transform="translate(276.32351 412.68625) scale(0.14 -0.14)">
      <defs>
       <path id="DejaVuSans-394" d="M 2188 4044 
L 906 525 
L 3472 525 
L 2188 4044 
z
M 50 0 
L 1831 4666 
L 2547 4666 
L 4325 0 
L 50 0 
z
" transform="scale(0.015625)"/>
       <path id="DejaVuSans-Oblique-76" d="M 459 3500 
L 1069 3500 
L 1581 525 
L 3256 3500 
L 3866 3500 
L 1875 0 
L 1100 0 
L 459 3500 
z
" transform="scale(0.015625)"/>
       <path id="DejaVuSans-2f" d="M 1625 4666 
L 2156 4666 
L 531 -594 
L 0 -594 
L 1625 4666 
z
" transform="scale(0.015625)"/>
       <path id="DejaVuSans-Oblique-65" d="M 3078 2063 
Q 3088 2113 3092 2166 
Q 3097 2219 3097 2272 
Q 3097 2653 2873 2875 
Q 2650 3097 2266 3097 
Q 1838 3097 1509 2826 
Q 1181 2556 1013 2059 
L 3078 2063 
z
M 3578 1613 
L 903 1613 
Q 884 1494 878 1425 
Q 872 1356 872 1306 
Q 872 872 1139 634 
Q 1406 397 1894 397 
Q 2269 397 2603 481 
Q 2938 566 3225 728 
L 3116 159 
Q 2806 34 2476 -28 
Q 2147 -91 1806 -91 
Q 1078 -91 686 257 
Q 294 606 294 1247 
Q 294 1794 489 2264 
Q 684 2734 1063 3103 
Q 1306 3334 1642 3459 
Q 1978 3584 2356 3584 
Q 2950 3584 3301 3228 
Q 3653 2872 3653 2272 
Q 3653 2128 3634 1964 
Q 3616 1800 3578 1613 
z
" transform="scale(0.015625)"/>
      </defs>
      <use xlink:href="#DejaVuSans-394" transform="translate(0 0.09375)"/>
      <use xlink:href="#DejaVuSans-Oblique-76" transform="translate(68.408203 0.09375)"/>
      <use xlink:href="#DejaVuSans-2f" transform="translate(127.587891 0.09375)"/>
      <use xlink:href="#DejaVuSans-Oblique-76" transform="translate(161.279297 0.09375)"/>
      <use xlink:href="#DejaVuSans-Oblique-65" transform="translate(220.458984 -16.3125) scale(0.7)"/>
     </g>
    </g>
   </g>
   <g id="matplotlib.axis_2">
    <g id="ytick_1">
     <g id="line2d_13">
      <path d="M 44.280938 385.113125 
L 545.746082 385.113125 
" clip-path="url(#pe391beacf3)" style="fill: none; stroke-dasharray: 2.96,1.28; stroke-dashoffset: 0; stroke: #cccccc; stroke-opacity: 0.7; stroke-width: 0.8"/>
     </g>
     <g id="line2d_14"/>
     <g id="text_8">
      <!-- 0 -->
      <g style="fill: #262626" transform="translate(35.610625 388.692812) scale(0.1 -0.1)">
       <use xlink:href="#LXGW-Bright-Regular-30"/>
      </g>
     </g>
    </g>
    <g id="ytick_2">
     <g id="line2d_15">
      <path d="M 44.280938 312.735125 
L 545.746082 312.735125 
" clip-path="url(#pe391beacf3)" style="fill: none; stroke-dasharray: 2.96,1.28; stroke-dashoffset: 0; stroke: #cccccc; stroke-opacity: 0.7; stroke-width: 0.8"/>
     </g>
     <g id="line2d_16"/>
     <g id="text_9">
      <!-- 20 -->
      <g style="fill: #262626" transform="translate(30.440313 316.314812) scale(0.1 -0.1)">
       <use xlink:href="#LXGW-Bright-Regular-32"/>
       <use xlink:href="#LXGW-Bright-Regular-30" x="51.699997"/>
      </g>
     </g>
    </g>
    <g id="ytick_3">
     <g id="line2d_17">
      <path d="M 44.280938 240.357125 
L 545.746082 240.357125 
" clip-path="url(#pe391beacf3)" style="fill: none; stroke-dasharray: 2.96,1.28; stroke-dashoffset: 0; stroke: #cccccc; stroke-opacity: 0.7; stroke-width: 0.8"/>
     </g>
     <g id="line2d_18"/>
     <g id="text_10">
      <!-- 40 -->
      <g style="fill: #262626" transform="translate(30.440313 243.936812) scale(0.1 -0.1)">
       <use xlink:href="#LXGW-Bright-Regular-34"/>
       <use xlink:href="#LXGW-Bright-Regular-30" x="51.699997"/>
      </g>
     </g>
    </g>
    <g id="ytick_4">
     <g id="line2d_19">
      <path d="M 44.280938 167.979125 
L 545.746082 167.979125 
" clip-path="url(#pe391beacf3)" style="fill: none; stroke-dasharray: 2.96,1.28; stroke-dashoffset: 0; stroke: #cccccc; stroke-opacity: 0.7; stroke-width: 0.8"/>
     </g>
     <g id="line2d_20"/>
     <g id="text_11">
      <!-- 60 -->
      <g style="fill: #262626" transform="translate(30.440313 171.558812) scale(0.1 -0.1)">
       <defs>
        <path id="LXGW-Bright-Regular-36" d="M 1933 2368 
Q 2470 2368 2755 2051 
Q 3040 1734 3040 1235 
Q 3040 864 2873 576 
Q 2707 288 2406 125 
Q 2106 -38 1715 -38 
Q 1075 -38 716 397 
Q 358 832 358 1562 
Q 358 2266 668 2854 
Q 979 3443 1526 3814 
Q 2074 4186 2752 4262 
L 2835 3904 
Q 2317 3853 1888 3593 
Q 1459 3334 1180 2912 
Q 902 2490 832 1965 
Q 1312 2368 1933 2368 
z
M 806 1613 
Q 806 1024 1065 662 
Q 1325 301 1779 301 
Q 2144 301 2368 531 
Q 2592 762 2592 1152 
Q 2592 1542 2374 1788 
Q 2157 2035 1754 2035 
Q 1504 2035 1251 1936 
Q 998 1837 806 1651 
L 806 1613 
z
" transform="scale(0.015625)"/>
       </defs>
       <use xlink:href="#LXGW-Bright-Regular-36"/>
       <use xlink:href="#LXGW-Bright-Regular-30" x="51.699997"/>
      </g>
     </g>
    </g>
    <g id="ytick_5">
     <g id="line2d_21">
      <path d="M 44.280938 95.601125 
L 545.746082 95.601125 
" clip-path="url(#pe391beacf3)" style="fill: none; stroke-dasharray: 2.96,1.28; stroke-dashoffset: 0; stroke: #cccccc; stroke-opacity: 0.7; stroke-width: 0.8"/>
     </g>
     <g id="line2d_22"/>
     <g id="text_12">
      <!-- 80 -->
      <g style="fill: #262626" transform="translate(30.440313 99.180812) scale(0.1 -0.1)">
       <defs>
        <path id="LXGW-Bright-Regular-38" d="M 1658 -38 
Q 1293 -38 1005 90 
Q 717 218 553 448 
Q 390 678 390 986 
Q 390 1728 1293 2214 
Q 922 2419 717 2649 
Q 512 2880 512 3226 
Q 512 3680 845 3965 
Q 1178 4250 1734 4250 
Q 2240 4250 2550 4003 
Q 2861 3757 2861 3354 
Q 2861 3027 2656 2755 
Q 2451 2483 2080 2266 
Q 2515 2042 2755 1782 
Q 2995 1523 2995 1107 
Q 2995 781 2828 518 
Q 2662 256 2358 109 
Q 2054 -38 1658 -38 
z
M 826 1075 
Q 826 710 1082 499 
Q 1338 288 1728 288 
Q 2118 288 2339 499 
Q 2560 710 2560 1024 
Q 2560 1280 2425 1469 
Q 2291 1658 2092 1782 
Q 1894 1907 1562 2080 
Q 826 1677 826 1075 
z
M 934 3283 
Q 934 3078 1049 2921 
Q 1165 2765 1341 2653 
Q 1517 2541 1805 2400 
Q 2445 2765 2445 3258 
Q 2445 3558 2233 3744 
Q 2022 3930 1677 3930 
Q 1338 3930 1136 3754 
Q 934 3578 934 3283 
z
" transform="scale(0.015625)"/>
       </defs>
       <use xlink:href="#LXGW-Bright-Regular-38"/>
       <use xlink:href="#LXGW-Bright-Regular-30" x="51.699997"/>
      </g>
     </g>
    </g>
    <g id="ytick_6">
     <g id="line2d_23">
      <path d="M 44.280938 23.223125 
L 545.746082 23.223125 
" clip-path="url(#pe391beacf3)" style="fill: none; stroke-dasharray: 2.96,1.28; stroke-dashoffset: 0; stroke: #cccccc; stroke-opacity: 0.7; stroke-width: 0.8"/>
     </g>
     <g id="line2d_24"/>
     <g id="text_13">
      <!-- 100 -->
      <g style="fill: #262626" transform="translate(25.27 26.802812) scale(0.1 -0.1)">
       <use xlink:href="#LXGW-Bright-Regular-31"/>
       <use xlink:href="#LXGW-Bright-Regular-30" x="51.699997"/>
       <use xlink:href="#LXGW-Bright-Regular-30" x="103.399994"/>
      </g>
     </g>
    </g>
    <g id="text_14">
     <!-- $m_0 / m_f$ -->
     <g style="fill: #262626" transform="translate(17.223125 225.448125) rotate(-90) scale(0.14 -0.14)">
      <defs>
       <path id="DejaVuSans-Oblique-6d" d="M 5747 2113 
L 5338 0 
L 4763 0 
L 5166 2094 
Q 5191 2228 5203 2325 
Q 5216 2422 5216 2491 
Q 5216 2772 5059 2928 
Q 4903 3084 4622 3084 
Q 4203 3084 3875 2770 
Q 3547 2456 3450 1953 
L 3066 0 
L 2491 0 
L 2900 2094 
Q 2925 2209 2937 2307 
Q 2950 2406 2950 2484 
Q 2950 2769 2794 2926 
Q 2638 3084 2363 3084 
Q 1938 3084 1609 2770 
Q 1281 2456 1184 1953 
L 800 0 
L 225 0 
L 909 3500 
L 1484 3500 
L 1375 2956 
Q 1609 3263 1923 3423 
Q 2238 3584 2597 3584 
Q 2978 3584 3223 3384 
Q 3469 3184 3519 2828 
Q 3781 3197 4126 3390 
Q 4472 3584 4856 3584 
Q 5306 3584 5551 3325 
Q 5797 3066 5797 2591 
Q 5797 2488 5784 2364 
Q 5772 2241 5747 2113 
z
" transform="scale(0.015625)"/>
       <path id="DejaVuSans-30" d="M 2034 4250 
Q 1547 4250 1301 3770 
Q 1056 3291 1056 2328 
Q 1056 1369 1301 889 
Q 1547 409 2034 409 
Q 2525 409 2770 889 
Q 3016 1369 3016 2328 
Q 3016 3291 2770 3770 
Q 2525 4250 2034 4250 
z
M 2034 4750 
Q 2819 4750 3233 4129 
Q 3647 3509 3647 2328 
Q 3647 1150 3233 529 
Q 2819 -91 2034 -91 
Q 1250 -91 836 529 
Q 422 1150 422 2328 
Q 422 3509 836 4129 
Q 1250 4750 2034 4750 
z
" transform="scale(0.015625)"/>
       <path id="DejaVuSans-Oblique-66" d="M 3059 4863 
L 2969 4384 
L 2419 4384 
Q 2106 4384 1964 4261 
Q 1822 4138 1753 3809 
L 1691 3500 
L 2638 3500 
L 2553 3053 
L 1606 3053 
L 1013 0 
L 434 0 
L 1031 3053 
L 481 3053 
L 563 3500 
L 1113 3500 
L 1159 3744 
Q 1278 4363 1576 4613 
Q 1875 4863 2516 4863 
L 3059 4863 
z
" transform="scale(0.015625)"/>
      </defs>
      <use xlink:href="#DejaVuSans-Oblique-6d" transform="translate(0 0.09375)"/>
      <use xlink:href="#DejaVuSans-30" transform="translate(97.412109 -16.3125) scale(0.7)"/>
      <use xlink:href="#DejaVuSans-2f" transform="translate(144.682617 0.09375)"/>
      <use xlink:href="#DejaVuSans-Oblique-6d" transform="translate(178.374023 0.09375)"/>
      <use xlink:href="#DejaVuSans-Oblique-66" transform="translate(275.786133 -16.3125) scale(0.7)"/>
     </g>
    </g>
   </g>
   <g id="PolyCollection_1">
    <path d="M 44.280938 23.223125 
L 44.280938 312.735125 
L 49.346242 312.735125 
L 54.411546 312.735125 
L 59.476851 312.735125 
L 64.542155 312.735125 
L 69.60746 312.735125 
L 74.672764 312.735125 
L 79.738069 312.735125 
L 84.803373 312.735125 
L 89.868678 312.735125 
L 94.933982 312.735125 
L 99.999287 312.735125 
L 105.064591 312.735125 
L 110.129896 312.735125 
L 115.1952 312.735125 
L 120.260505 312.735125 
L 125.325809 312.735125 
L 130.391114 312.735125 
L 135.456418 312.735125 
L 140.521723 312.735125 
L 145.587027 312.735125 
L 150.652332 312.735125 
L 155.717636 312.735125 
L 160.782941 312.735125 
L 165.848245 312.735125 
L 170.91355 312.735125 
L 175.978854 312.735125 
L 181.044159 312.735125 
L 186.109463 312.735125 
L 191.174768 312.735125 
L 196.240072 312.735125 
L 201.305377 312.735125 
L 206.370681 312.735125 
L 211.435986 312.735125 
L 216.50129 312.735125 
L 221.566595 312.735125 
L 226.631899 312.735125 
L 231.697204 312.735125 
L 236.762508 312.735125 
L 241.827812 312.735125 
L 246.893117 312.735125 
L 251.958421 312.735125 
L 257.023726 312.735125 
L 262.08903 312.735125 
L 267.154335 312.735125 
L 272.219639 312.735125 
L 277.284944 312.735125 
L 282.350248 312.735125 
L 287.415553 312.735125 
L 292.480857 312.735125 
L 297.546162 312.735125 
L 302.611466 312.735125 
L 307.676771 312.735125 
L 312.742075 312.735125 
L 317.80738 312.735125 
L 322.872684 312.735125 
L 327.937989 312.735125 
L 333.003293 312.735125 
L 338.068598 312.735125 
L 343.133902 312.735125 
L 348.199207 312.735125 
L 353.264511 312.735125 
L 358.329816 312.735125 
L 363.39512 312.735125 
L 368.460425 312.735125 
L 373.525729 312.735125 
L 378.591034 312.735125 
L 383.656338 312.735125 
L 388.721643 312.735125 
L 393.786947 312.735125 
L 398.852252 312.735125 
L 403.917556 312.735125 
L 408.982861 312.735125 
L 414.048165 312.735125 
L 419.11347 312.735125 
L 424.178774 312.735125 
L 429.244079 312.735125 
L 434.309383 312.735125 
L 439.374687 312.735125 
L 444.439992 312.735125 
L 449.505296 312.735125 
L 454.570601 312.735125 
L 459.635905 312.735125 
L 464.70121 312.735125 
L 469.766514 312.735125 
L 474.831819 312.735125 
L 479.897123 312.735125 
L 484.962428 312.735125 
L 490.027732 312.735125 
L 495.093037 312.735125 
L 500.158341 312.735125 
L 505.223646 312.735125 
L 510.28895 312.735125 
L 515.354255 312.735125 
L 520.419559 312.735125 
L 525.484864 312.735125 
L 530.550168 312.735125 
L 535.615473 312.735125 
L 540.680777 312.735125 
L 545.746082 312.735125 
L 545.746082 23.223125 
L 545.746082 23.223125 
L 540.680777 23.223125 
L 535.615473 23.223125 
L 530.550168 23.223125 
L 525.484864 23.223125 
L 520.419559 23.223125 
L 515.354255 23.223125 
L 510.28895 23.223125 
L 505.223646 23.223125 
L 500.158341 23.223125 
L 495.093037 23.223125 
L 490.027732 23.223125 
L 484.962428 23.223125 
L 479.897123 23.223125 
L 474.831819 23.223125 
L 469.766514 23.223125 
L 464.70121 23.223125 
L 459.635905 23.223125 
L 454.570601 23.223125 
L 449.505296 23.223125 
L 444.439992 23.223125 
L 439.374687 23.223125 
L 434.309383 23.223125 
L 429.244079 23.223125 
L 424.178774 23.223125 
L 419.11347 23.223125 
L 414.048165 23.223125 
L 408.982861 23.223125 
L 403.917556 23.223125 
L 398.852252 23.223125 
L 393.786947 23.223125 
L 388.721643 23.223125 
L 383.656338 23.223125 
L 378.591034 23.223125 
L 373.525729 23.223125 
L 368.460425 23.223125 
L 363.39512 23.223125 
L 358.329816 23.223125 
L 353.264511 23.223125 
L 348.199207 23.223125 
L 343.133902 23.223125 
L 338.068598 23.223125 
L 333.003293 23.223125 
L 327.937989 23.223125 
L 322.872684 23.223125 
L 317.80738 23.223125 
L 312.742075 23.223125 
L 307.676771 23.223125 
L 302.611466 23.223125 
L 297.546162 23.223125 
L 292.480857 23.223125 
L 287.415553 23.223125 
L 282.350248 23.223125 
L 277.284944 23.223125 
L 272.219639 23.223125 
L 267.154335 23.223125 
L 262.08903 23.223125 
L 257.023726 23.223125 
L 251.958421 23.223125 
L 246.893117 23.223125 
L 241.827812 23.223125 
L 236.762508 23.223125 
L 231.697204 23.223125 
L 226.631899 23.223125 
L 221.566595 23.223125 
L 216.50129 23.223125 
L 211.435986 23.223125 
L 206.370681 23.223125 
L 201.305377 23.223125 
L 196.240072 23.223125 
L 191.174768 23.223125 
L 186.109463 23.223125 
L 181.044159 23.223125 
L 175.978854 23.223125 
L 170.91355 23.223125 
L 165.848245 23.223125 
L 160.782941 23.223125 
L 155.717636 23.223125 
L 150.652332 23.223125 
L 145.587027 23.223125 
L 140.521723 23.223125 
L 135.456418 23.223125 
L 130.391114 23.223125 
L 125.325809 23.223125 
L 120.260505 23.223125 
L 115.1952 23.223125 
L 110.129896 23.223125 
L 105.064591 23.223125 
L 99.999287 23.223125 
L 94.933982 23.223125 
L 89.868678 23.223125 
L 84.803373 23.223125 
L 79.738069 23.223125 
L 74.672764 23.223125 
L 69.60746 23.223125 
L 64.542155 23.223125 
L 59.476851 23.223125 
L 54.411546 23.223125 
L 49.346242 23.223125 
L 44.280938 23.223125 
z
" clip-path="url(#pe391beacf3)" style="fill: url(#hafab5f78c5); fill-opacity: 0.5; stroke: #808080; stroke-opacity: 0.5"/>
   </g>
   <g id="line2d_25">
    <path d="M 53.924498 381.494225 
L 77.092211 380.511496 
L 97.36396 379.435003 
L 115.705066 378.245552 
L 132.598189 376.930722 
L 148.043331 375.509448 
L 162.523152 373.953568 
L 176.037651 372.27478 
L 188.586829 370.490551 
L 200.170685 368.624238 
L 211.271881 366.612551 
L 221.890416 364.459066 
L 232.02629 362.170031 
L 241.679504 359.754547 
L 250.850057 357.224688 
L 259.537949 354.595565 
L 267.743181 351.88531 
L 275.948413 348.934357 
L 283.670984 345.917995 
L 290.910894 342.862144 
L 298.150804 339.568043 
L 304.908054 336.262229 
L 311.665303 332.716468 
L 318.422553 328.913344 
L 324.697142 325.135119 
L 330.971731 321.10289 
L 337.246319 316.799581 
L 343.038248 312.57095 
L 348.830176 308.080566 
L 354.622104 303.312226 
L 360.414032 298.248724 
L 366.205961 292.87179 
L 371.515228 287.651042 
L 376.824496 282.134807 
L 382.133763 276.306359 
L 387.443031 270.148029 
L 392.752298 263.641144 
L 398.061566 256.765978 
L 403.370833 249.501685 
L 408.680101 241.826243 
L 413.506708 234.472228 
L 418.333314 226.740777 
L 423.159921 218.61252 
L 427.986528 210.067091 
L 432.813135 201.083078 
L 437.639742 191.637973 
L 442.466349 181.70811 
L 447.292955 171.268609 
L 452.119562 160.293314 
L 456.946169 148.754726 
L 461.772776 136.623936 
L 466.599383 123.870547 
L 471.42599 110.462608 
L 476.252596 96.366524 
L 481.079203 81.546976 
L 485.90581 65.966833 
L 490.732417 49.587061 
L 495.559024 32.366617 
L 500.385631 14.262356 
L 504.274876 -1 
L 504.274876 -1 
" clip-path="url(#pe391beacf3)" style="fill: none; stroke: #0000ff; stroke-width: 2.5; stroke-linecap: round"/>
   </g>
   <g id="line2d_26">
    <defs>
     <path id="m63db449e74" d="M 0 3 
C 0.795609 3 1.55874 2.683901 2.12132 2.12132 
C 2.683901 1.55874 3 0.795609 3 0 
C 3 -0.795609 2.683901 -1.55874 2.12132 -2.12132 
C 1.55874 -2.683901 0.795609 -3 0 -3 
C -0.795609 -3 -1.55874 -2.683901 -2.12132 -2.12132 
C -2.683901 -1.55874 -3 -0.795609 -3 0 
C -3 0.795609 -2.683901 1.55874 -2.12132 2.12132 
C -1.55874 2.683901 -0.795609 3 0 3 
z
" style="stroke: #ff0000"/>
    </defs>
    <g clip-path="url(#pe391beacf3)">
     <use xlink:href="#m63db449e74" x="302.249456" y="337.590587" style="fill: #ff0000; stroke: #ff0000"/>
    </g>
   </g>
   <g id="line2d_27">
    <path d="M 44.280938 312.735125 
L 545.746082 312.735125 
" clip-path="url(#pe391beacf3)" style="fill: none; stroke-dasharray: 5.55,2.4; stroke-dashoffset: 0; stroke: #ff0000; stroke-opacity: 0.7; stroke-width: 1.5"/>
   </g>
   <g id="patch_3">
    <path d="M 44.280938 385.113125 
L 44.280938 23.223125 
" style="fill: none; stroke: #cccccc; stroke-linejoin: miter; stroke-linecap: square"/>
   </g>
   <g id="patch_4">
    <path d="M 545.746082 385.113125 
L 545.746082 23.223125 
" style="fill: none; stroke: #cccccc; stroke-linejoin: miter; stroke-linecap: square"/>
   </g>
   <g id="patch_5">
    <path d="M 44.280938 385.113125 
L 545.746082 385.113125 
" style="fill: none; stroke: #cccccc; stroke-linejoin: miter; stroke-linecap: square"/>
   </g>
   <g id="patch_6">
    <path d="M 44.280938 23.223125 
L 545.746082 23.223125 
" style="fill: none; stroke: #cccccc; stroke-linejoin: miter; stroke-linecap: square"/>
   </g>
   <g id="patch_7">
    <path d="M 346.158926 332.324687 
Q 331.403904 334.348587 316.648882 336.372486 
L 317.362328 341.573784 
Q 311.010439 339.416962 304.65855 337.260139 
Q 310.195073 333.472622 315.731595 329.685104 
L 316.445041 334.886401 
Q 331.200063 332.862502 345.955085 330.838602 
L 346.158926 332.324687 
z
" style="stroke: #000000; stroke-linecap: round"/>
   </g>
   <g id="text_15">
    <!-- 地球 LEO -->
    <g style="fill: #262626" transform="translate(350.467258 305.12233) scale(0.1 -0.1)">
     <defs>
      <path id="LXGW-Bright-Regular-5730" d="M 4365 896 
Q 4365 736 4256 736 
Q 4243 736 4166 768 
Q 3949 845 3949 1011 
L 3949 1056 
Q 3974 1261 3974 1485 
L 3981 2810 
L 3290 2534 
L 3264 442 
Q 3264 269 3331 201 
Q 3398 134 3584 115 
Q 4474 6 5485 147 
Q 5594 166 5664 198 
Q 5734 230 5795 358 
Q 5856 486 5971 1229 
Q 6010 1504 6090 1504 
Q 6170 1504 6176 1261 
Q 6182 1018 6182 778 
Q 6182 538 6156 291 
Q 6131 45 6012 -92 
Q 5894 -230 5594 -262 
Q 4922 -333 4410 -333 
Q 3898 -333 3558 -304 
Q 3219 -275 3049 -118 
Q 2880 38 2880 352 
L 2880 365 
L 2906 2381 
L 2566 2246 
Q 2464 2208 2377 2208 
Q 2291 2208 2204 2275 
Q 2118 2342 2074 2406 
Q 2067 2426 2057 2442 
Q 2048 2458 2048 2464 
Q 2048 2502 2134 2502 
Q 2221 2502 2451 2579 
L 2912 2765 
L 2918 3546 
Q 2918 3750 2835 3853 
Q 2803 3898 2803 3910 
Q 2803 3949 2870 3949 
Q 2938 3949 3098 3904 
Q 3258 3859 3280 3801 
Q 3302 3744 3302 3667 
L 3296 2918 
L 3981 3194 
L 3987 4653 
Q 3987 4851 3885 4979 
Q 3866 5011 3866 5030 
Q 3866 5069 3946 5069 
Q 4026 5069 4160 5030 
Q 4294 4992 4336 4944 
Q 4378 4896 4378 4806 
L 4371 3354 
L 5312 3731 
Q 5376 3763 5430 3763 
Q 5485 3763 5587 3699 
Q 5690 3635 5690 3571 
Q 5690 3507 5674 3472 
Q 5658 3437 5651 3405 
Q 5562 1958 5472 1574 
Q 5382 1190 5289 1072 
Q 5197 954 5078 954 
Q 4960 954 4774 1133 
Q 4589 1312 4422 1549 
L 4365 1645 
L 4365 896 
z
M 429 3130 
Q 589 3098 717 3098 
L 806 3098 
L 1286 3130 
L 1286 4307 
Q 1286 4467 1222 4547 
Q 1158 4627 1158 4672 
Q 1158 4717 1242 4717 
L 1306 4710 
Q 1690 4640 1690 4493 
L 1677 3162 
L 1882 3174 
Q 2029 3187 2096 3212 
Q 2163 3238 2195 3238 
Q 2227 3238 2310 3187 
Q 2534 3040 2534 2925 
Q 2534 2861 2387 2842 
L 1677 2790 
L 1664 1280 
Q 1958 1389 2243 1513 
Q 2528 1638 2579 1638 
Q 2630 1638 2630 1600 
Q 2630 1466 1715 947 
Q 1222 659 956 547 
Q 691 435 630 435 
Q 570 435 480 524 
Q 390 614 320 720 
Q 250 826 250 870 
Q 250 915 301 915 
L 365 915 
Q 659 915 1286 1146 
L 1286 2765 
L 928 2739 
Q 883 2733 845 2733 
L 781 2733 
Q 717 2733 605 2781 
Q 493 2829 403 3066 
Q 397 3078 397 3104 
Q 397 3130 429 3130 
z
M 5005 1414 
Q 5043 1414 5043 1453 
Q 5152 1830 5193 2300 
Q 5235 2771 5261 3322 
L 4371 2970 
L 4365 1747 
L 4384 1754 
Q 4435 1754 4566 1664 
Q 4698 1574 4845 1494 
Q 4992 1414 5005 1414 
z
" transform="scale(0.015625)"/>
      <path id="LXGW-Bright-Regular-7403" d="M 4365 6 
L 4384 -269 
Q 4384 -416 4285 -515 
Q 4186 -614 4102 -614 
Q 3917 -614 3354 -166 
Q 3053 96 3053 160 
Q 3053 205 3117 205 
Q 3181 205 3315 144 
Q 3450 83 3626 3 
Q 3802 -77 3968 -141 
L 3987 3424 
L 3008 3354 
Q 2867 3341 2765 3341 
L 2707 3341 
Q 2650 3354 2630 3366 
Q 2509 3482 2458 3648 
Q 2451 3661 2451 3686 
Q 2451 3712 2490 3712 
L 2509 3712 
Q 2611 3699 2688 3699 
L 2803 3699 
Q 2848 3699 2906 3706 
L 3987 3776 
L 3994 4781 
Q 3994 4960 3878 5120 
Q 3859 5152 3859 5171 
Q 3859 5222 3942 5222 
Q 4026 5222 4179 5171 
Q 4333 5120 4365 5069 
Q 4397 5018 4397 4947 
L 4390 3795 
L 5286 3853 
Q 5382 3859 5472 3897 
Q 5562 3936 5619 3936 
Q 5677 3936 5760 3875 
Q 5843 3814 5900 3740 
Q 5958 3667 5958 3629 
Q 5958 3558 5792 3546 
L 4384 3450 
L 4384 2739 
Q 4467 2579 4553 2438 
Q 4640 2298 4717 2170 
Q 4986 2432 5242 2822 
Q 5293 2893 5318 3033 
Q 5344 3174 5392 3174 
Q 5440 3174 5510 3107 
Q 5581 3040 5635 2953 
Q 5690 2867 5690 2803 
Q 5690 2739 5366 2387 
Q 5043 2035 4883 1901 
Q 5190 1446 5504 1132 
Q 5818 819 6234 506 
Q 6304 454 6304 419 
Q 6304 384 6259 320 
Q 6125 160 6016 160 
Q 5907 160 5356 749 
Q 4806 1338 4378 2157 
L 4365 6 
z
M 5216 4624 
Q 5363 4506 5468 4400 
Q 5574 4294 5574 4240 
Q 5574 4186 5504 4096 
Q 5434 4006 5379 4006 
Q 5325 4006 5222 4115 
Q 4954 4403 4640 4640 
Q 4589 4678 4589 4720 
Q 4589 4762 4649 4835 
Q 4710 4909 4764 4909 
Q 4819 4909 4944 4825 
Q 5069 4742 5216 4624 
z
M 640 4141 
L 2016 4224 
Q 2176 4243 2237 4265 
Q 2298 4288 2333 4288 
Q 2368 4288 2445 4237 
Q 2637 4115 2637 4006 
Q 2637 3923 2490 3910 
L 1715 3859 
L 1709 2720 
L 1869 2733 
Q 1990 2739 2073 2771 
Q 2157 2803 2185 2803 
Q 2214 2803 2291 2752 
Q 2502 2630 2502 2515 
Q 2502 2432 2349 2419 
L 1702 2374 
L 1696 1210 
Q 2061 1376 2307 1497 
Q 2554 1619 2618 1619 
Q 2682 1619 2682 1552 
Q 2682 1485 2528 1389 
Q 1696 838 1168 569 
Q 640 301 547 301 
Q 454 301 361 384 
Q 269 467 240 518 
Q 211 570 201 586 
Q 192 602 192 614 
Q 192 659 269 668 
Q 346 678 432 704 
Q 518 730 710 806 
Q 902 883 1293 1037 
L 1306 2349 
L 973 2323 
Q 928 2317 883 2317 
L 813 2317 
Q 608 2317 512 2509 
Q 461 2598 461 2643 
Q 461 2688 512 2688 
Q 538 2688 592 2675 
Q 646 2662 768 2662 
L 851 2662 
L 1306 2694 
L 1318 3834 
L 883 3802 
Q 781 3789 697 3789 
Q 614 3789 563 3821 
Q 429 3930 393 4019 
Q 358 4109 358 4122 
Q 358 4166 410 4166 
L 640 4141 
z
M 3513 2537 
Q 3622 2419 3696 2326 
Q 3770 2234 3770 2176 
Q 3770 2118 3677 2044 
Q 3584 1971 3542 1971 
Q 3501 1971 3450 2035 
Q 3238 2317 2790 2733 
Q 2746 2778 2746 2806 
Q 2746 2835 2813 2924 
Q 2880 3014 2931 3014 
Q 2982 3014 3075 2944 
Q 3168 2874 3286 2765 
Q 3405 2656 3513 2537 
z
M 2995 659 
Q 2842 480 2714 361 
Q 2586 243 2534 243 
Q 2483 243 2432 268 
Q 2381 294 2265 384 
Q 2150 474 2150 518 
Q 2150 563 2240 588 
Q 2330 614 2509 742 
Q 3002 1101 3603 1754 
Q 3725 1875 3779 1875 
Q 3834 1875 3834 1814 
Q 3834 1754 3766 1654 
Q 3699 1555 3577 1395 
Q 3456 1235 3302 1036 
Q 3149 838 2995 659 
z
" transform="scale(0.015625)"/>
      <path id="LXGW-Bright-Regular-20" transform="scale(0.015625)"/>
      <path id="LXGW-Bright-Regular-4c" d="M 698 4211 
L 1171 4211 
L 1171 378 
L 3360 378 
L 3360 0 
L 698 0 
L 698 4211 
z
" transform="scale(0.015625)"/>
      <path id="LXGW-Bright-Regular-45" d="M 698 0 
L 698 4211 
L 3155 4211 
L 3155 3834 
L 1158 3834 
L 1158 2317 
L 2912 2317 
L 2912 1952 
L 1158 1952 
L 1158 378 
L 3354 378 
L 3354 0 
L 698 0 
z
" transform="scale(0.015625)"/>
      <path id="LXGW-Bright-Regular-4f" d="M 2496 -58 
Q 1888 -58 1401 217 
Q 915 493 640 982 
Q 365 1472 365 2086 
Q 365 2720 659 3219 
Q 954 3718 1459 3993 
Q 1965 4269 2573 4269 
Q 3181 4269 3664 3993 
Q 4147 3718 4422 3228 
Q 4698 2739 4698 2125 
Q 4698 1485 4406 989 
Q 4115 493 3609 217 
Q 3104 -58 2496 -58 
z
M 2579 288 
Q 3053 288 3421 512 
Q 3789 736 3990 1136 
Q 4192 1536 4192 2054 
Q 4192 2605 3968 3030 
Q 3744 3456 3353 3689 
Q 2963 3923 2483 3923 
Q 2022 3923 1657 3699 
Q 1293 3475 1088 3075 
Q 883 2675 883 2157 
Q 883 1613 1107 1187 
Q 1331 762 1718 525 
Q 2106 288 2579 288 
z
" transform="scale(0.015625)"/>
     </defs>
     <use xlink:href="#LXGW-Bright-Regular-5730"/>
     <use xlink:href="#LXGW-Bright-Regular-7403" x="99.999985"/>
     <use xlink:href="#LXGW-Bright-Regular-20" x="199.999969"/>
     <use xlink:href="#LXGW-Bright-Regular-4c" x="224.59996"/>
     <use xlink:href="#LXGW-Bright-Regular-45" x="279.499954"/>
     <use xlink:href="#LXGW-Bright-Regular-4f" x="337.399948"/>
    </g>
    <!-- $\Delta v/v_e$ ≈ 2.58 -->
    <g style="fill: #262626" transform="translate(350.467258 316.604205) scale(0.1 -0.1)">
     <defs>
      <path id="LXGW-Bright-Regular-2248" d="M 2406 454 
Q 2195 454 2032 531 
Q 1869 608 1658 755 
Q 1472 883 1350 944 
Q 1229 1005 1082 1005 
Q 896 1005 765 873 
Q 634 742 570 493 
L 282 557 
Q 358 922 579 1130 
Q 800 1338 1114 1338 
Q 1318 1338 1475 1261 
Q 1632 1184 1850 1037 
Q 2035 909 2163 845 
Q 2291 781 2438 781 
Q 2624 781 2755 909 
Q 2886 1037 2950 1293 
L 3238 1235 
Q 3155 864 2937 659 
Q 2720 454 2406 454 
z
M 2406 1606 
Q 2195 1606 2032 1683 
Q 1869 1760 1658 1907 
Q 1472 2035 1350 2096 
Q 1229 2157 1082 2157 
Q 896 2157 765 2025 
Q 634 1894 570 1645 
L 282 1709 
Q 358 2074 579 2282 
Q 800 2490 1114 2490 
Q 1318 2490 1475 2413 
Q 1632 2336 1850 2189 
Q 2035 2061 2163 1997 
Q 2291 1933 2438 1933 
Q 2624 1933 2755 2061 
Q 2886 2189 2950 2445 
L 3238 2387 
Q 3155 2016 2937 1811 
Q 2720 1606 2406 1606 
z
" transform="scale(0.015625)"/>
      <path id="LXGW-Bright-Regular-2e" d="M 819 -32 
Q 672 -32 579 57 
Q 486 147 486 288 
Q 486 435 579 524 
Q 672 614 819 614 
Q 960 614 1049 524 
Q 1139 435 1139 288 
Q 1139 147 1052 57 
Q 966 -32 819 -32 
z
" transform="scale(0.015625)"/>
     </defs>
     <use xlink:href="#DejaVuSans-394" transform="translate(0 0.09375)"/>
     <use xlink:href="#DejaVuSans-Oblique-76" transform="translate(68.408203 0.09375)"/>
     <use xlink:href="#DejaVuSans-2f" transform="translate(127.587891 0.09375)"/>
     <use xlink:href="#DejaVuSans-Oblique-76" transform="translate(161.279297 0.09375)"/>
     <use xlink:href="#DejaVuSans-Oblique-65" transform="translate(220.458984 -16.3125) scale(0.7)"/>
     <use xlink:href="#LXGW-Bright-Regular-20" transform="translate(266.259766 0.09375)"/>
     <use xlink:href="#LXGW-Bright-Regular-2248" transform="translate(290.859756 0.09375)"/>
     <use xlink:href="#LXGW-Bright-Regular-20" transform="translate(345.859741 0.09375)"/>
     <use xlink:href="#LXGW-Bright-Regular-32" transform="translate(370.459732 0.09375)"/>
     <use xlink:href="#LXGW-Bright-Regular-2e" transform="translate(422.159729 0.09375)"/>
     <use xlink:href="#LXGW-Bright-Regular-35" transform="translate(447.659714 0.09375)"/>
     <use xlink:href="#LXGW-Bright-Regular-38" transform="translate(499.359711 0.09375)"/>
    </g>
    <!-- $m_0/m_f$ ≈ 13.1 -->
    <g style="fill: #262626" transform="translate(350.467258 328.08608) scale(0.1 -0.1)">
     <use xlink:href="#DejaVuSans-Oblique-6d" transform="translate(0 0.09375)"/>
     <use xlink:href="#DejaVuSans-30" transform="translate(97.412109 -16.3125) scale(0.7)"/>
     <use xlink:href="#DejaVuSans-2f" transform="translate(144.682617 0.09375)"/>
     <use xlink:href="#DejaVuSans-Oblique-6d" transform="translate(178.374023 0.09375)"/>
     <use xlink:href="#DejaVuSans-Oblique-66" transform="translate(275.786133 -16.3125) scale(0.7)"/>
     <use xlink:href="#LXGW-Bright-Regular-20" transform="translate(303.164062 0.09375)"/>
     <use xlink:href="#LXGW-Bright-Regular-2248" transform="translate(327.764053 0.09375)"/>
     <use xlink:href="#LXGW-Bright-Regular-20" transform="translate(382.764038 0.09375)"/>
     <use xlink:href="#LXGW-Bright-Regular-31" transform="translate(407.364029 0.09375)"/>
     <use xlink:href="#LXGW-Bright-Regular-33" transform="translate(459.064026 0.09375)"/>
     <use xlink:href="#LXGW-Bright-Regular-2e" transform="translate(510.764023 0.09375)"/>
     <use xlink:href="#LXGW-Bright-Regular-31" transform="translate(536.264008 0.09375)"/>
    </g>
   </g>
   <g id="text_16">
    <!-- 可实现的典型质量比上限 -->
    <g style="fill: #262626" transform="translate(439.666917 305.497325) scale(0.1 -0.1)">
     <defs>
      <path id="LXGW-Bright-Regular-53ef" d="M 4870 -13 
L 4883 -269 
Q 4883 -493 4685 -582 
Q 4608 -614 4553 -614 
Q 4499 -614 4320 -534 
Q 4141 -454 3920 -329 
Q 3699 -205 3491 -73 
Q 3283 58 3148 166 
Q 3014 275 3014 320 
Q 3014 365 3081 365 
Q 3149 365 3571 208 
Q 3994 51 4435 -64 
L 4435 4077 
L 1120 3904 
Q 992 3891 883 3891 
L 851 3891 
L 787 3910 
Q 576 4070 538 4237 
L 538 4262 
Q 538 4307 589 4307 
Q 621 4307 710 4288 
Q 800 4269 934 4269 
L 992 4269 
L 5306 4499 
Q 5459 4512 5555 4541 
Q 5651 4570 5686 4570 
Q 5722 4570 5808 4518 
Q 5894 4467 5968 4390 
Q 6042 4314 6042 4256 
Q 6042 4198 5997 4179 
Q 5952 4160 5882 4154 
L 4883 4102 
L 4870 -13 
z
M 3450 1824 
Q 3597 1645 3597 1574 
Q 3597 1504 3542 1494 
Q 3488 1485 3405 1478 
L 1997 1440 
L 2022 1197 
L 2022 1165 
Q 2022 1037 1897 1037 
Q 1773 1037 1680 1117 
Q 1587 1197 1587 1306 
L 1587 1331 
Q 1600 1446 1600 1526 
Q 1600 1606 1587 1696 
L 1478 2675 
Q 1466 2880 1395 2995 
Q 1376 3040 1363 3069 
Q 1350 3098 1350 3123 
Q 1350 3168 1459 3168 
Q 1568 3168 1875 3046 
L 3162 3123 
Q 3200 3130 3238 3130 
L 3296 3130 
Q 3462 3130 3548 3040 
Q 3635 2950 3635 2899 
Q 3635 2848 3612 2819 
Q 3590 2790 3584 2758 
L 3450 1824 
z
M 3155 2771 
L 1875 2694 
L 1965 1786 
L 3053 1824 
L 3155 2771 
z
" transform="scale(0.015625)"/>
      <path id="LXGW-Bright-Regular-5b9e" d="M 1344 3661 
Q 1190 3213 979 2816 
Q 947 2739 876 2739 
Q 806 2739 694 2812 
Q 582 2886 582 2947 
Q 582 3008 681 3168 
Q 781 3328 928 3680 
Q 1075 4032 1178 4371 
Q 1210 4480 1293 4480 
Q 1350 4480 1449 4445 
Q 1549 4410 1549 4346 
Q 1549 4282 1466 4026 
L 2970 4115 
L 2970 4755 
Q 2970 4877 2902 4973 
Q 2835 5069 2835 5094 
Q 2835 5152 2918 5152 
Q 3002 5152 3117 5126 
Q 3430 5043 3430 4915 
L 3424 4147 
L 5510 4269 
L 5555 4269 
Q 5683 4269 5788 4198 
Q 5894 4128 5894 4057 
Q 5894 3987 5849 3945 
Q 5805 3904 5728 3782 
Q 5651 3661 5372 3299 
Q 5094 2938 4973 2938 
Q 4922 2938 4922 3005 
Q 4922 3072 5056 3302 
Q 5190 3533 5312 3885 
L 1344 3661 
z
M 2460 1670 
Q 2387 1581 2339 1581 
Q 2291 1581 1996 1779 
Q 1702 1978 1248 2195 
Q 1165 2246 1165 2300 
Q 1165 2355 1213 2435 
Q 1261 2515 1318 2515 
Q 1376 2515 1709 2364 
Q 2042 2214 2400 1984 
Q 2534 1907 2534 1833 
Q 2534 1760 2460 1670 
z
M 2953 2454 
Q 2880 2368 2835 2368 
Q 2790 2368 2480 2576 
Q 2170 2784 1747 2982 
Q 1664 3034 1664 3088 
Q 1664 3142 1712 3222 
Q 1760 3302 1817 3302 
Q 1875 3302 2188 3161 
Q 2502 3021 2899 2771 
Q 3027 2694 3027 2617 
Q 3027 2541 2953 2454 
z
M 5549 -355 
Q 5549 -429 5462 -518 
Q 5376 -608 5305 -608 
Q 5235 -608 5165 -538 
Q 4813 -294 4438 -54 
Q 4064 186 3584 390 
Q 3520 429 3520 467 
Q 3520 506 3546 557 
Q 3616 710 3718 710 
Q 3770 710 4058 582 
Q 4672 307 5466 -224 
Q 5549 -282 5549 -355 
z
M 2848 883 
L 934 800 
Q 858 800 739 848 
Q 621 896 538 1139 
Q 525 1178 525 1197 
Q 525 1216 550 1216 
Q 576 1216 646 1190 
Q 717 1165 890 1165 
L 954 1165 
L 3066 1261 
Q 3251 1683 3354 2445 
Q 3373 2618 3373 2886 
L 3373 2989 
Q 3373 3187 3264 3328 
Q 3245 3354 3245 3392 
Q 3245 3462 3318 3462 
Q 3392 3462 3507 3443 
Q 3622 3424 3724 3379 
Q 3827 3334 3827 3200 
Q 3814 2675 3724 2128 
Q 3635 1581 3520 1280 
L 5139 1357 
Q 5286 1370 5356 1398 
Q 5427 1427 5456 1427 
Q 5485 1427 5568 1376 
Q 5805 1229 5805 1101 
Q 5805 1024 5658 1005 
L 3334 902 
Q 2963 282 2150 -141 
Q 1510 -474 838 -621 
Q 608 -672 595 -672 
Q 538 -672 538 -608 
Q 538 -518 691 -461 
Q 1530 -179 2170 256 
Q 2592 550 2848 883 
z
" transform="scale(0.015625)"/>
      <path id="LXGW-Bright-Regular-73b0" d="M 1990 -506 
Q 1926 -531 1920 -531 
Q 1914 -531 1914 -486 
Q 1914 -378 2029 -314 
Q 3040 211 3456 864 
Q 3680 1229 3782 1712 
Q 3885 2195 3885 3552 
Q 3885 3629 3817 3705 
Q 3750 3782 3750 3836 
Q 3750 3891 3789 3891 
Q 3898 3891 4054 3849 
Q 4211 3808 4259 3776 
Q 4307 3744 4307 3654 
Q 4288 2688 4237 2144 
Q 4429 2093 4480 2041 
Q 4531 1990 4531 1894 
Q 4531 1798 4512 320 
Q 4512 141 4547 61 
Q 4582 -19 4697 -35 
Q 4813 -51 5213 -51 
Q 5613 -51 5728 -22 
Q 5843 6 5894 166 
Q 5990 493 6038 832 
Q 6086 1171 6163 1171 
Q 6195 1171 6233 1036 
Q 6272 902 6272 553 
Q 6272 205 6253 22 
Q 6234 -160 6147 -259 
Q 6061 -358 5865 -396 
Q 5670 -435 5200 -435 
Q 4730 -435 4522 -387 
Q 4314 -339 4218 -198 
Q 4122 -58 4122 218 
L 4122 243 
L 4134 1517 
Q 4038 1139 3866 819 
Q 3386 -13 1990 -506 
z
M 2861 1709 
Q 2886 1843 2886 2022 
L 2886 2125 
L 2822 4403 
Q 2810 4608 2755 4701 
Q 2701 4794 2701 4829 
Q 2701 4864 2800 4864 
Q 2899 4864 3206 4742 
L 5075 4858 
L 5139 4858 
Q 5248 4858 5344 4781 
Q 5440 4704 5440 4656 
Q 5440 4608 5427 4576 
Q 5414 4544 5408 4512 
L 5318 2035 
L 5312 1702 
L 5306 1651 
Q 5299 1510 5190 1517 
Q 5101 1523 4992 1593 
Q 4883 1664 4890 1741 
Q 4934 2042 4934 2054 
L 4941 2157 
L 4998 4506 
L 3206 4403 
L 3270 2029 
L 3283 1696 
L 3283 1645 
Q 3283 1504 3174 1504 
Q 3085 1504 2973 1568 
Q 2861 1632 2861 1709 
z
M 698 4301 
L 2061 4384 
Q 2221 4403 2281 4425 
Q 2342 4448 2368 4448 
Q 2394 4448 2470 4403 
Q 2682 4282 2682 4166 
Q 2682 4096 2534 4077 
L 1734 4019 
L 1728 2874 
L 1914 2886 
Q 2035 2893 2118 2925 
Q 2202 2957 2243 2957 
Q 2285 2957 2362 2906 
Q 2547 2771 2547 2669 
Q 2547 2592 2394 2579 
L 1722 2534 
L 1715 1280 
Q 2131 1466 2371 1584 
Q 2611 1702 2681 1702 
Q 2752 1702 2752 1651 
Q 2752 1555 2307 1273 
Q 1862 992 1318 717 
Q 774 442 672 442 
Q 474 442 294 704 
Q 288 723 278 739 
Q 269 755 269 768 
Q 269 832 352 832 
Q 435 832 611 867 
Q 787 902 1318 1120 
L 1331 2502 
L 1030 2483 
Q 986 2477 941 2477 
L 870 2477 
Q 749 2477 717 2502 
Q 595 2592 556 2681 
Q 518 2771 518 2797 
Q 518 2842 570 2842 
Q 595 2842 649 2829 
Q 704 2816 826 2816 
L 909 2816 
L 1331 2848 
L 1344 3994 
L 941 3968 
Q 838 3955 755 3955 
Q 672 3955 621 3987 
Q 480 4096 448 4182 
Q 416 4269 416 4282 
Q 416 4326 467 4326 
L 698 4301 
z
" transform="scale(0.015625)"/>
      <path id="LXGW-Bright-Regular-7684" d="M 3846 4890 
L 3834 4992 
Q 3834 5069 3898 5069 
Q 3917 5069 4019 5024 
Q 4307 4896 4307 4762 
Q 4307 4589 3898 3738 
L 5504 3834 
L 5530 3834 
Q 5613 3834 5696 3773 
Q 5779 3712 5779 3616 
L 5760 3469 
Q 5709 1747 5530 301 
Q 5427 -544 5082 -544 
Q 4934 -544 4841 -483 
Q 4749 -422 4605 -313 
Q 4461 -205 4301 -70 
Q 4141 64 4025 179 
Q 3910 294 3910 345 
Q 3910 397 3984 397 
Q 4058 397 4282 262 
Q 4506 128 4947 -45 
L 4960 -45 
Q 4998 -45 5018 6 
Q 5299 1107 5338 3469 
L 3731 3366 
Q 3450 2880 3232 2595 
Q 3014 2310 2944 2310 
Q 2912 2310 2912 2371 
Q 2912 2432 3104 2787 
Q 3296 3142 3571 3875 
Q 3846 4608 3846 4845 
L 3846 4890 
z
M 1715 4749 
Q 1715 4768 1702 4845 
Q 1702 4922 1779 4922 
Q 1920 4922 2035 4832 
Q 2150 4742 2150 4665 
Q 2150 4589 1920 4160 
Q 1715 3802 1581 3603 
L 2483 3654 
L 2560 3654 
Q 2746 3654 2803 3507 
Q 2822 3462 2822 3456 
L 2790 3328 
L 2688 480 
Q 2842 282 2842 214 
Q 2842 147 2790 134 
Q 2739 122 2656 115 
L 1229 64 
L 1235 -147 
L 1235 -166 
Q 1235 -307 1126 -307 
Q 979 -307 892 -233 
Q 806 -160 806 -77 
L 851 243 
L 794 3232 
Q 794 3418 717 3539 
Q 672 3629 672 3664 
Q 672 3699 768 3699 
Q 864 3699 1165 3584 
L 1222 3584 
Q 1715 4512 1715 4749 
z
M 2400 3302 
L 1171 3238 
L 1190 2061 
L 2368 2118 
L 2400 3302 
z
M 4755 1446 
Q 4755 1318 4589 1229 
Q 4525 1190 4483 1190 
Q 4442 1190 4358 1299 
Q 4160 1619 3913 1913 
Q 3667 2208 3564 2307 
Q 3462 2406 3462 2464 
Q 3462 2522 3532 2589 
Q 3603 2656 3657 2656 
Q 3712 2656 3869 2505 
Q 4026 2355 4390 1939 
Q 4755 1523 4755 1446 
z
M 2355 1773 
L 1197 1722 
L 1222 422 
L 2317 461 
L 2355 1773 
z
" transform="scale(0.015625)"/>
      <path id="LXGW-Bright-Regular-5178" d="M 1229 3494 
Q 1210 3718 1155 3827 
Q 1101 3936 1101 3981 
Q 1101 4026 1200 4026 
Q 1299 4026 1606 3872 
L 2381 3917 
L 2362 4678 
Q 2362 4813 2285 4912 
Q 2208 5011 2208 5030 
Q 2208 5075 2294 5075 
Q 2381 5075 2531 5030 
Q 2682 4986 2707 4947 
Q 2733 4909 2733 4838 
L 2733 4819 
L 2752 3942 
L 3526 3987 
L 3539 4781 
Q 3539 4954 3437 5069 
Q 3405 5114 3405 5146 
Q 3405 5178 3501 5178 
Q 3597 5178 3725 5142 
Q 3853 5107 3885 5059 
Q 3917 5011 3917 4902 
L 3898 4006 
L 4838 4064 
L 4902 4064 
Q 5018 4064 5107 3977 
Q 5197 3891 5197 3836 
Q 5197 3782 5181 3756 
Q 5165 3731 5158 3699 
L 4992 1504 
L 5459 1523 
Q 5658 1542 5709 1564 
Q 5760 1587 5785 1587 
Q 5811 1587 5894 1536 
Q 6138 1376 6138 1274 
Q 6138 1210 5984 1197 
L 646 992 
Q 525 992 461 1037 
Q 250 1222 250 1344 
Q 250 1370 294 1370 
L 595 1331 
L 691 1338 
L 1331 1363 
L 1229 3494 
z
M 4762 3686 
L 3891 3642 
L 3872 2797 
L 4704 2842 
L 4762 3686 
z
M 3520 3622 
L 2758 3578 
L 2778 2739 
L 3501 2778 
L 3520 3622 
z
M 2387 3558 
L 1606 3520 
L 1645 2682 
L 2413 2720 
L 2387 3558 
z
M 4678 2496 
L 3866 2458 
L 3846 1459 
L 4608 1491 
L 4678 2496 
z
M 3494 2438 
L 2784 2406 
L 2810 1421 
L 3475 1446 
L 3494 2438 
z
M 2419 2387 
L 1664 2355 
L 1709 1376 
L 2445 1408 
L 2419 2387 
z
M 2579 416 
Q 1997 -64 1424 -317 
Q 851 -570 748 -570 
Q 646 -570 646 -525 
Q 646 -461 762 -397 
Q 1574 64 2112 576 
Q 2208 672 2224 790 
Q 2240 909 2294 909 
Q 2349 909 2432 832 
Q 2515 755 2579 662 
Q 2643 570 2643 518 
Q 2643 467 2579 416 
z
M 5184 -538 
Q 5133 -538 5024 -461 
Q 4384 96 3661 531 
Q 3578 582 3578 649 
Q 3578 717 3642 800 
Q 3706 883 3782 883 
Q 3936 883 5306 -96 
Q 5414 -173 5414 -243 
Q 5414 -262 5376 -333 
Q 5280 -538 5184 -538 
z
" transform="scale(0.015625)"/>
      <path id="LXGW-Bright-Regular-578b" d="M 5472 1888 
L 5478 1715 
Q 5478 1549 5414 1472 
Q 5312 1363 5229 1363 
Q 5146 1363 4947 1456 
Q 4749 1549 4413 1782 
Q 4077 2016 4077 2080 
Q 4077 2125 4150 2125 
Q 4224 2125 4547 2019 
Q 4870 1914 5069 1875 
L 5082 4646 
Q 5082 4794 5021 4890 
Q 4960 4986 4960 5024 
Q 4960 5062 5037 5062 
Q 5114 5062 5267 5008 
Q 5421 4954 5453 4912 
Q 5485 4870 5485 4800 
L 5472 1888 
z
M 1062 4557 
L 3053 4704 
Q 3226 4717 3322 4745 
Q 3418 4774 3440 4774 
Q 3462 4774 3552 4732 
Q 3642 4691 3722 4627 
Q 3802 4563 3802 4492 
Q 3802 4422 3674 4410 
L 3040 4365 
L 3040 3520 
L 3232 3533 
Q 3392 3546 3494 3574 
Q 3597 3603 3638 3603 
Q 3680 3603 3763 3552 
Q 3974 3424 3974 3315 
Q 3974 3232 3853 3219 
L 3040 3168 
L 3034 1882 
Q 3034 1715 2931 1715 
Q 2803 1715 2710 1798 
Q 2618 1882 2618 1933 
L 2618 1997 
Q 2618 2022 2640 2166 
Q 2662 2310 2662 2554 
L 2669 3149 
L 1907 3104 
Q 1792 2086 973 1459 
Q 832 1350 787 1350 
Q 742 1350 742 1388 
Q 742 1427 813 1530 
Q 1037 1805 1248 2189 
Q 1459 2573 1517 3078 
L 1075 3053 
Q 902 3034 854 3034 
Q 806 3034 736 3046 
Q 550 3078 474 3334 
Q 467 3347 467 3379 
Q 467 3411 502 3411 
Q 538 3411 608 3395 
Q 678 3379 806 3379 
L 1562 3424 
Q 1594 3763 1594 4269 
L 1338 4250 
Q 1267 4243 1200 4236 
Q 1133 4230 1046 4230 
Q 960 4230 883 4297 
Q 806 4365 774 4438 
Q 742 4512 736 4525 
Q 730 4538 730 4563 
Q 730 4589 762 4589 
Q 794 4589 858 4573 
Q 922 4557 1062 4557 
z
M 4454 2618 
Q 4454 2438 4371 2438 
Q 4365 2438 4275 2464 
Q 4026 2541 4026 2701 
Q 4026 2752 4045 2854 
Q 4064 2957 4064 3155 
L 4058 4058 
Q 4058 4205 4003 4297 
Q 3949 4390 3949 4410 
Q 3949 4454 4019 4454 
Q 4090 4454 4234 4403 
Q 4378 4352 4406 4313 
Q 4435 4275 4435 4192 
L 4454 2618 
z
M 2675 4339 
L 1990 4294 
Q 1990 3872 1952 3450 
L 2669 3494 
L 2675 4339 
z
M 1990 723 
L 1869 717 
Q 1702 717 1613 794 
Q 1466 992 1466 1040 
Q 1466 1088 1494 1088 
Q 1523 1088 1606 1069 
Q 1690 1050 1798 1050 
L 1862 1050 
L 3008 1094 
L 3008 1261 
Q 3008 1414 2918 1542 
Q 2886 1606 2886 1626 
Q 2886 1670 2960 1670 
Q 3034 1670 3174 1619 
Q 3315 1568 3366 1526 
Q 3418 1485 3418 1414 
L 3411 1107 
L 4179 1139 
Q 4346 1152 4429 1184 
Q 4512 1216 4544 1216 
Q 4576 1216 4659 1171 
Q 4890 1050 4890 934 
Q 4890 845 4730 832 
L 3405 781 
L 3392 38 
L 5382 96 
Q 5542 96 5628 128 
Q 5715 160 5753 160 
Q 5792 160 5869 109 
Q 6074 -26 6074 -141 
Q 6074 -230 5920 -243 
L 877 -378 
L 736 -384 
Q 646 -384 540 -333 
Q 435 -282 346 -38 
Q 339 -26 339 -3 
Q 339 19 364 19 
Q 390 19 480 -6 
Q 570 -32 704 -32 
L 749 -32 
L 3002 32 
L 3008 762 
L 1990 723 
z
" transform="scale(0.015625)"/>
      <path id="LXGW-Bright-Regular-8d28" d="M 3398 1734 
Q 3398 1850 3353 1907 
Q 3309 1965 3309 2003 
Q 3309 2086 3446 2086 
Q 3584 2086 3696 2035 
Q 3808 1984 3808 1869 
Q 3770 672 3149 147 
Q 2566 -333 1696 -512 
Q 1530 -544 1510 -544 
Q 1427 -544 1427 -461 
Q 1427 -378 1562 -333 
Q 2144 -141 2589 147 
Q 3034 435 3200 794 
Q 3398 1190 3398 1619 
L 3398 1734 
z
M 3642 4429 
Q 3827 4358 3827 4224 
Q 3789 3962 3744 3686 
L 5120 3776 
Q 5350 3789 5408 3811 
Q 5466 3834 5523 3834 
Q 5581 3834 5654 3773 
Q 5728 3712 5773 3645 
Q 5818 3578 5818 3546 
Q 5818 3488 5670 3475 
L 3686 3360 
Q 3578 2861 3488 2650 
L 4851 2726 
L 4902 2726 
Q 4992 2726 5091 2662 
Q 5190 2598 5190 2540 
Q 5190 2483 5174 2454 
Q 5158 2426 5152 2400 
L 5050 781 
L 5043 666 
Q 5037 518 4928 518 
Q 4864 525 4758 585 
Q 4653 646 4659 755 
Q 4659 794 4672 835 
Q 4685 877 4762 2400 
L 2438 2278 
L 2470 602 
L 2470 486 
Q 2470 339 2362 339 
Q 2298 339 2189 396 
Q 2080 454 2080 563 
L 2099 742 
Q 2099 800 2080 2240 
Q 2080 2432 2032 2521 
Q 1984 2611 1984 2646 
Q 1984 2682 2070 2682 
Q 2157 2682 2451 2586 
L 3149 2624 
Q 3232 3014 3283 3334 
L 1638 3238 
Q 1562 1402 954 397 
Q 755 64 569 -160 
Q 384 -384 323 -384 
Q 262 -384 262 -320 
Q 262 -256 346 -115 
Q 954 896 1133 2003 
Q 1254 2758 1254 3987 
Q 1254 4269 1216 4406 
Q 1178 4544 1178 4563 
L 1178 4595 
Q 1178 4666 1258 4666 
Q 1338 4666 1696 4454 
Q 3142 4627 4397 5018 
Q 4589 5069 4678 5171 
Q 4710 5203 4764 5203 
Q 4819 5203 4902 5136 
Q 4986 5069 5043 4982 
Q 5101 4896 5101 4832 
Q 5101 4768 5011 4736 
Q 4346 4570 4032 4509 
Q 3718 4448 3642 4429 
z
M 5587 -115 
Q 5734 -211 5734 -272 
Q 5734 -333 5680 -451 
Q 5626 -570 5558 -570 
Q 5491 -570 5155 -349 
Q 4819 -128 3942 262 
Q 3878 294 3843 320 
Q 3808 346 3808 416 
Q 3808 486 3865 560 
Q 3923 634 3955 634 
Q 3987 634 4198 544 
Q 4410 454 4765 300 
Q 5120 147 5587 -115 
z
M 1664 4154 
L 1658 3648 
L 1651 3558 
L 3334 3661 
Q 3405 4102 3405 4211 
Q 3405 4320 3373 4384 
Q 2720 4269 1664 4154 
z
" transform="scale(0.015625)"/>
      <path id="LXGW-Bright-Regular-91cf" d="M 2080 3302 
Q 2080 3187 1952 3187 
Q 1888 3187 1776 3235 
Q 1664 3283 1664 3398 
L 1664 3437 
Q 1670 3469 1670 3507 
L 1670 3565 
Q 1670 3654 1658 3770 
L 1574 4550 
Q 1555 4698 1497 4797 
Q 1440 4896 1440 4934 
Q 1440 4973 1523 4973 
Q 1606 4973 1933 4851 
L 4563 4998 
L 4614 4998 
Q 4762 4998 4835 4934 
Q 4909 4870 4909 4828 
Q 4909 4787 4896 4761 
Q 4883 4736 4877 4717 
L 4730 3763 
Q 4870 3603 4870 3545 
Q 4870 3488 4822 3481 
Q 4774 3475 4704 3469 
L 2080 3347 
L 2080 3302 
z
M 4461 4698 
L 1952 4550 
L 1984 4250 
L 4422 4378 
L 4461 4698 
z
M 4390 4102 
L 2010 3974 
L 2048 3635 
L 4346 3750 
L 4390 4102 
z
M 1024 2682 
L 883 2675 
Q 806 2675 704 2720 
Q 602 2765 538 2982 
Q 531 2995 531 3017 
Q 531 3040 556 3040 
Q 582 3040 652 3024 
Q 723 3008 851 3008 
L 934 3008 
L 5318 3219 
Q 5472 3226 5549 3248 
Q 5626 3270 5645 3270 
Q 5664 3270 5731 3241 
Q 5798 3213 5868 3155 
Q 5939 3098 5939 3021 
Q 5939 2925 5830 2912 
L 1024 2682 
z
M 595 -51 
Q 774 -96 992 -96 
L 2982 -51 
L 2982 326 
L 1914 294 
L 1779 288 
Q 1638 288 1564 336 
Q 1491 384 1421 582 
L 1414 621 
Q 1414 640 1430 640 
Q 1446 640 1510 621 
Q 1574 602 1747 602 
L 1837 602 
L 2989 634 
L 2989 979 
L 1978 941 
L 1984 896 
L 1984 877 
Q 1984 781 1865 781 
Q 1747 781 1667 832 
Q 1587 883 1587 973 
L 1587 1005 
L 1594 1120 
Q 1594 1203 1581 1306 
L 1510 2170 
Q 1498 2323 1427 2451 
Q 1414 2490 1414 2502 
Q 1414 2547 1497 2547 
Q 1581 2547 1882 2445 
L 4666 2586 
L 4736 2586 
Q 4806 2586 4905 2538 
Q 5005 2490 5005 2387 
Q 5005 2349 4989 2317 
Q 4973 2285 4966 2259 
L 4819 1325 
Q 4954 1171 4954 1113 
Q 4954 1056 4806 1043 
L 3360 992 
L 3360 640 
L 4429 672 
Q 4582 685 4681 707 
Q 4781 730 4806 730 
Q 4832 730 4902 698 
Q 5088 608 5088 505 
Q 5088 403 4973 390 
L 3354 339 
L 3354 -45 
L 5293 0 
Q 5459 0 5548 29 
Q 5638 58 5673 58 
Q 5709 58 5786 13 
Q 5984 -96 5984 -211 
Q 5984 -326 5850 -326 
L 1011 -422 
L 947 -422 
Q 826 -422 730 -374 
Q 634 -326 576 -109 
Q 570 -96 570 -73 
Q 570 -51 595 -51 
z
M 4570 2278 
L 3366 2221 
L 3366 1907 
L 4531 1965 
L 4570 2278 
z
M 2995 2208 
L 1882 2157 
L 1907 1843 
L 2995 1894 
L 2995 2208 
z
M 4499 1683 
L 3360 1632 
L 3360 1274 
L 4461 1312 
L 4499 1683 
z
M 2989 1613 
L 1926 1568 
L 1958 1222 
L 2989 1261 
L 2989 1613 
z
" transform="scale(0.015625)"/>
      <path id="LXGW-Bright-Regular-6bd4" d="M 3494 4570 
Q 3494 4742 3379 4902 
Q 3347 4954 3347 4992 
Q 3347 5030 3404 5030 
Q 3462 5030 3584 5005 
Q 3910 4922 3910 4768 
L 3898 2560 
Q 4589 2944 5030 3354 
Q 5139 3450 5197 3661 
Q 5216 3744 5274 3744 
Q 5312 3744 5389 3674 
Q 5613 3482 5613 3309 
Q 5613 3238 5568 3213 
Q 5178 2938 4784 2666 
Q 4390 2394 3898 2170 
L 3885 435 
Q 3885 301 3926 224 
Q 3968 147 4134 118 
Q 4301 90 4704 90 
Q 5107 90 5305 122 
Q 5504 154 5561 189 
Q 5619 224 5692 374 
Q 5766 525 5875 1229 
Q 5926 1530 6003 1530 
Q 6061 1530 6080 1392 
Q 6099 1254 6099 854 
Q 6099 454 6073 224 
Q 6048 -6 5923 -121 
Q 5798 -237 5510 -275 
Q 5222 -314 4752 -314 
Q 4282 -314 4010 -278 
Q 3738 -243 3606 -92 
Q 3475 58 3475 403 
L 3494 4570 
z
M 1306 4333 
Q 1306 4512 1197 4659 
Q 1165 4710 1165 4742 
Q 1165 4774 1248 4774 
Q 1331 4774 1485 4723 
Q 1715 4653 1715 4525 
L 1709 2829 
L 2406 2861 
Q 2598 2880 2668 2905 
Q 2739 2931 2800 2931 
Q 2861 2931 2937 2867 
Q 3014 2803 3068 2726 
Q 3123 2650 3123 2611 
Q 3123 2528 2950 2515 
L 1709 2451 
L 1702 429 
Q 2470 794 2925 1075 
Q 3046 1152 3116 1152 
Q 3187 1152 3187 1107 
Q 3187 992 2816 730 
Q 2221 301 1769 38 
Q 1318 -224 1152 -304 
Q 986 -384 922 -384 
Q 858 -384 778 -342 
Q 698 -301 602 -195 
Q 506 -90 506 -45 
Q 506 0 685 22 
Q 864 45 1299 250 
L 1306 4333 
z
" transform="scale(0.015625)"/>
      <path id="LXGW-Bright-Regular-4e0a" d="M 666 237 
L 2803 314 
L 2771 4595 
Q 2771 4781 2675 4922 
Q 2650 4966 2650 4992 
Q 2650 5037 2723 5037 
Q 2797 5037 2944 4992 
Q 3226 4896 3226 4781 
L 3232 2918 
L 4390 2982 
Q 4627 3002 4700 3030 
Q 4774 3059 4841 3059 
Q 4909 3059 5001 2992 
Q 5094 2925 5158 2845 
Q 5222 2765 5222 2726 
Q 5222 2650 5062 2630 
L 3232 2522 
L 3245 333 
L 5325 410 
Q 5504 422 5597 448 
Q 5690 474 5731 474 
Q 5773 474 5865 416 
Q 5958 358 6035 275 
Q 6112 192 6112 134 
Q 6112 38 5952 26 
L 941 -154 
L 730 -160 
Q 442 -160 346 102 
Q 301 211 301 243 
Q 301 275 333 275 
Q 365 275 445 256 
Q 525 237 666 237 
z
" transform="scale(0.015625)"/>
      <path id="LXGW-Bright-Regular-9650" d="M 3840 2400 
Q 4115 1894 4403 1523 
Q 5024 1907 5235 2240 
Q 5325 2374 5347 2454 
Q 5370 2534 5424 2534 
Q 5478 2534 5580 2409 
Q 5683 2285 5683 2201 
Q 5683 2118 5651 2089 
Q 5619 2061 5485 1920 
Q 5178 1600 4614 1267 
Q 5299 486 6240 -6 
Q 6330 -51 6330 -92 
Q 6330 -134 6266 -198 
Q 6106 -358 5984 -358 
Q 5946 -358 5894 -326 
Q 4794 397 4122 1293 
Q 3770 1773 3456 2381 
L 3251 2374 
L 3245 218 
Q 3731 422 4022 569 
Q 4314 717 4374 717 
Q 4435 717 4435 678 
Q 4435 538 3603 38 
Q 3149 -243 2912 -352 
Q 2675 -461 2620 -461 
Q 2566 -461 2422 -323 
Q 2278 -186 2278 -90 
Q 2278 -45 2444 -45 
Q 2611 -45 2861 70 
L 2880 4256 
Q 2880 4512 2822 4633 
Q 2765 4755 2765 4780 
Q 2765 4806 2832 4806 
Q 2899 4806 3277 4678 
L 4915 4787 
L 4992 4794 
Q 5062 4794 5171 4730 
Q 5280 4666 5280 4576 
Q 5280 4544 5264 4509 
Q 5248 4474 5242 4422 
L 5088 2765 
Q 5242 2573 5242 2521 
Q 5242 2470 5194 2464 
Q 5146 2458 5056 2451 
L 3840 2400 
z
M 2208 4685 
L 2310 4691 
Q 2400 4691 2486 4608 
Q 2573 4525 2573 4480 
Q 2573 4435 2541 4403 
Q 2509 4371 2387 4137 
Q 2266 3904 1933 3405 
Q 1920 3379 1920 3353 
Q 1920 3328 1939 3309 
Q 2131 3110 2281 2848 
Q 2432 2586 2432 2138 
Q 2432 1939 2352 1763 
Q 2272 1587 2109 1587 
Q 1946 1587 1587 1872 
Q 1229 2157 1229 2259 
Q 1229 2304 1273 2304 
Q 1318 2304 1513 2205 
Q 1709 2106 1971 2029 
L 1990 2029 
Q 2029 2029 2029 2074 
Q 2042 2112 2042 2150 
L 2042 2240 
Q 2042 2458 1962 2669 
Q 1882 2880 1632 3168 
Q 1549 3270 1549 3350 
Q 1549 3430 1670 3632 
Q 1792 3834 2054 4339 
L 1197 4275 
L 1133 -416 
Q 1133 -608 1018 -608 
Q 998 -608 918 -579 
Q 838 -550 764 -489 
Q 691 -429 691 -365 
Q 691 -301 716 -153 
Q 742 -6 742 237 
L 794 3974 
L 794 4166 
Q 794 4442 752 4570 
Q 710 4698 710 4736 
Q 710 4794 777 4794 
Q 845 4794 1216 4608 
L 2208 4685 
z
M 4851 4429 
L 3258 4339 
L 3258 3712 
L 4806 3795 
L 4851 4429 
z
M 4781 3462 
L 3258 3386 
L 3251 2707 
L 4730 2771 
L 4781 3462 
z
" transform="scale(0.015625)"/>
     </defs>
     <use xlink:href="#LXGW-Bright-Regular-53ef"/>
     <use xlink:href="#LXGW-Bright-Regular-5b9e" x="99.999985"/>
     <use xlink:href="#LXGW-Bright-Regular-73b0" x="199.999969"/>
     <use xlink:href="#LXGW-Bright-Regular-7684" x="299.999954"/>
     <use xlink:href="#LXGW-Bright-Regular-5178" x="399.999939"/>
     <use xlink:href="#LXGW-Bright-Regular-578b" x="499.999924"/>
     <use xlink:href="#LXGW-Bright-Regular-8d28" x="599.999908"/>
     <use xlink:href="#LXGW-Bright-Regular-91cf" x="699.999893"/>
     <use xlink:href="#LXGW-Bright-Regular-6bd4" x="799.999878"/>
     <use xlink:href="#LXGW-Bright-Regular-4e0a" x="899.999863"/>
     <use xlink:href="#LXGW-Bright-Regular-9650" x="999.999847"/>
    </g>
   </g>
   <g id="text_17">
    <g id="patch_8">
     <path d="M 339.171312 284.653 
L 399.791312 284.653 
L 399.791312 259.453 
L 339.171312 259.453 
z
" style="fill: #ffffff; opacity: 0.8; stroke: #000000; stroke-linejoin: miter"/>
    </g>
    <!-- $r_m = e^{\frac{\Delta v}{v_e}}$ -->
    <g style="fill: #262626" transform="translate(343.231312 276.546125) scale(0.14 -0.14)">
     <defs>
      <path id="DejaVuSans-Oblique-72" d="M 2853 2969 
Q 2766 3016 2653 3041 
Q 2541 3066 2413 3066 
Q 1953 3066 1609 2717 
Q 1266 2369 1153 1784 
L 800 0 
L 225 0 
L 909 3500 
L 1484 3500 
L 1375 2956 
Q 1603 3259 1920 3421 
Q 2238 3584 2597 3584 
Q 2691 3584 2781 3573 
Q 2872 3563 2963 3538 
L 2853 2969 
z
" transform="scale(0.015625)"/>
      <path id="DejaVuSans-3d" d="M 678 2906 
L 4684 2906 
L 4684 2381 
L 678 2381 
L 678 2906 
z
M 678 1631 
L 4684 1631 
L 4684 1100 
L 678 1100 
L 678 1631 
z
" transform="scale(0.015625)"/>
     </defs>
     <use xlink:href="#DejaVuSans-Oblique-72" transform="translate(0 0.336875)"/>
     <use xlink:href="#DejaVuSans-Oblique-6d" transform="translate(41.113281 -16.069375) scale(0.7)"/>
     <use xlink:href="#DejaVuSans-3d" transform="translate(131.518555 0.336875)"/>
     <use xlink:href="#DejaVuSans-Oblique-65" transform="translate(234.790039 0.336875)"/>
     <use xlink:href="#DejaVuSans-394" transform="translate(300.963372 69.275938) scale(0.49)"/>
     <use xlink:href="#DejaVuSans-Oblique-76" transform="translate(334.483392 69.275938) scale(0.49)"/>
     <use xlink:href="#DejaVuSans-Oblique-76" transform="translate(306.963372 20.604063) scale(0.49)"/>
     <use xlink:href="#DejaVuSans-Oblique-65" transform="translate(335.961419 12.565) scale(0.343)"/>
     <path d="M 300.963372 51.775938 
L 300.963372 56.150938 
L 363.481439 56.150938 
L 363.481439 51.775938 
L 300.963372 51.775938 
z
"/>
    </g>
   </g>
   <g id="text_18">
    <!-- 火箭质量比与速度比的关系 -->
    <g style="fill: #262626" transform="translate(211.01351 17.223125) scale(0.14 -0.14)">
     <defs>
      <path id="LXGW-Bright-Regular-706b" d="M 3430 4083 
Q 3430 3072 3322 2490 
Q 4288 499 5933 -147 
Q 6054 -192 6054 -243 
Q 6054 -269 5990 -346 
Q 5805 -544 5664 -544 
Q 5645 -544 5606 -531 
Q 4806 -160 4195 493 
Q 3584 1146 3174 1958 
Q 2925 954 1946 192 
Q 1350 -269 794 -467 
Q 563 -550 470 -550 
Q 378 -550 378 -499 
Q 378 -422 550 -339 
Q 1434 102 2061 800 
Q 2778 1594 2918 2624 
Q 2989 3174 2989 3590 
Q 2989 4006 2979 4412 
Q 2970 4819 2957 4905 
Q 2944 4992 2902 5049 
Q 2861 5107 2861 5114 
Q 2861 5152 3027 5152 
Q 3194 5152 3290 5113 
Q 3386 5075 3405 5020 
Q 3424 4966 3424 4909 
L 3430 4083 
z
M 4726 3443 
Q 4826 3610 4851 3709 
Q 4877 3808 4880 3894 
Q 4883 3981 4947 3981 
Q 5011 3981 5110 3920 
Q 5210 3859 5290 3782 
Q 5370 3706 5370 3667 
Q 5370 3629 5350 3597 
Q 5030 3078 4448 2573 
Q 4211 2362 4035 2243 
Q 3859 2125 3808 2125 
Q 3757 2125 3757 2179 
Q 3757 2234 3987 2490 
Q 4218 2746 4422 3011 
Q 4627 3277 4726 3443 
z
M 2198 2733 
Q 2426 2394 2426 2342 
Q 2426 2291 2368 2227 
Q 2227 2093 2121 2093 
Q 2016 2093 1946 2221 
Q 1504 2944 1082 3475 
Q 1030 3546 1030 3597 
Q 1030 3648 1113 3725 
Q 1197 3802 1261 3802 
Q 1325 3802 1402 3712 
Q 1971 3072 2198 2733 
z
" transform="scale(0.015625)"/>
      <path id="LXGW-Bright-Regular-7bad" d="M 4352 5024 
Q 4352 4902 4109 4595 
L 5325 4685 
Q 5485 4698 5542 4720 
Q 5600 4742 5629 4742 
Q 5658 4742 5728 4698 
Q 5920 4589 5920 4474 
Q 5920 4403 5786 4390 
L 4589 4307 
Q 4627 4288 4908 4061 
Q 5190 3834 5190 3766 
Q 5190 3699 5114 3622 
Q 5037 3526 4985 3526 
Q 4934 3526 4800 3676 
Q 4666 3827 4397 4032 
Q 4301 4102 4301 4153 
Q 4301 4205 4365 4288 
L 3878 4256 
Q 3539 3853 3232 3635 
Q 3104 3539 3062 3539 
Q 3021 3539 3021 3587 
Q 3021 3635 3085 3718 
Q 3539 4275 3770 4762 
Q 3878 4986 3904 5126 
L 3910 5203 
Q 3923 5306 3977 5306 
Q 4032 5306 4121 5254 
Q 4211 5203 4281 5136 
Q 4352 5069 4352 5024 
z
M 1882 5165 
Q 1978 5120 2067 5053 
Q 2157 4986 2157 4906 
Q 2157 4826 1926 4531 
L 2867 4595 
Q 2989 4608 3069 4633 
Q 3149 4659 3197 4659 
Q 3245 4659 3315 4608 
Q 3386 4557 3434 4493 
Q 3482 4429 3482 4397 
Q 3482 4320 3341 4307 
L 2330 4243 
Q 2528 4122 2678 3990 
Q 2829 3859 2829 3795 
Q 2829 3731 2749 3654 
Q 2669 3578 2624 3578 
Q 2579 3578 2438 3712 
Q 2298 3846 2147 3961 
Q 1997 4077 1997 4118 
Q 1997 4160 2048 4224 
L 1670 4198 
Q 1184 3603 742 3315 
Q 570 3206 525 3206 
Q 480 3206 480 3257 
Q 480 3309 691 3520 
Q 902 3731 1302 4281 
Q 1702 4832 1702 5069 
L 1702 5120 
Q 1702 5210 1766 5210 
Q 1786 5210 1882 5165 
z
M 749 2874 
L 2490 2970 
Q 2189 3213 1888 3398 
Q 1805 3450 1805 3482 
Q 1805 3514 1830 3565 
Q 1894 3712 1980 3712 
Q 2067 3712 2310 3558 
Q 2765 3277 2765 3174 
Q 2765 3091 2650 2976 
L 3424 3014 
Q 3859 3430 3923 3629 
Q 3949 3712 3949 3792 
Q 3949 3872 4000 3872 
Q 4032 3872 4122 3814 
Q 4384 3654 4384 3542 
Q 4384 3430 4045 3181 
Q 3910 3085 3840 3040 
L 5350 3123 
Q 5510 3130 5600 3158 
Q 5690 3187 5738 3187 
Q 5786 3187 5856 3129 
Q 5926 3072 5974 3001 
Q 6022 2931 6022 2893 
Q 6022 2816 5843 2803 
L 928 2566 
L 806 2560 
Q 736 2560 633 2601 
Q 531 2643 480 2886 
Q 480 2906 502 2906 
Q 525 2906 579 2890 
Q 634 2874 749 2874 
z
M 5286 -51 
L 5293 -262 
Q 5293 -454 5184 -515 
Q 5075 -576 5005 -576 
Q 4819 -576 4237 -205 
Q 3936 -13 3936 58 
Q 3936 102 4035 102 
Q 4134 102 4237 51 
Q 4506 -32 4877 -83 
L 4896 2093 
Q 4896 2291 4835 2393 
Q 4774 2496 4774 2531 
Q 4774 2566 4841 2566 
Q 4909 2566 5030 2522 
Q 5299 2426 5299 2272 
L 5286 -51 
z
M 3174 -32 
L 3181 -250 
Q 3181 -365 3110 -461 
Q 3040 -557 2947 -557 
Q 2854 -557 2700 -473 
Q 2547 -390 2377 -272 
Q 2208 -154 2089 -38 
Q 1971 77 1971 134 
Q 1971 179 2035 179 
Q 2099 179 2310 73 
Q 2522 -32 2790 -96 
L 2797 595 
L 1555 550 
L 1542 -410 
Q 1542 -544 1440 -544 
Q 1363 -544 1244 -480 
Q 1126 -416 1126 -314 
Q 1126 -282 1152 -173 
Q 1178 -64 1178 90 
L 1210 1862 
Q 1210 2074 1171 2176 
Q 1133 2278 1133 2291 
Q 1133 2336 1203 2336 
Q 1274 2336 1581 2246 
L 2880 2330 
L 2938 2330 
Q 3078 2330 3139 2237 
Q 3200 2144 3200 2106 
L 3181 1990 
L 3174 -32 
z
M 4192 550 
Q 4192 384 4096 384 
Q 4083 384 4006 410 
Q 3776 480 3776 621 
Q 3776 659 3795 758 
Q 3814 858 3814 1107 
L 3808 1696 
Q 3808 1939 3725 2074 
Q 3718 2086 3718 2099 
Q 3718 2144 3785 2144 
Q 3853 2144 3981 2099 
Q 4109 2054 4137 2003 
Q 4166 1952 4166 1875 
L 4192 550 
z
M 2803 2003 
L 1574 1926 
L 1568 1549 
L 2803 1613 
L 2803 2003 
z
M 2797 1299 
L 1568 1242 
L 1562 864 
L 2797 909 
L 2797 1299 
z
" transform="scale(0.015625)"/>
      <path id="LXGW-Bright-Regular-4e0e" d="M 4800 1638 
Q 4883 2170 4909 2522 
L 2042 2381 
Q 1971 2374 1920 2358 
Q 1869 2342 1798 2342 
Q 1728 2342 1629 2387 
Q 1530 2432 1530 2547 
Q 1530 2586 1654 3101 
Q 1779 3616 1884 4173 
Q 1990 4730 1990 4832 
Q 1990 4934 1968 5014 
Q 1946 5094 1946 5126 
Q 1946 5178 2006 5178 
Q 2067 5178 2189 5126 
Q 2445 5024 2445 4896 
L 2342 4378 
Q 2298 4122 2246 3872 
L 4198 3974 
Q 4602 4006 4678 4038 
Q 4755 4070 4816 4070 
Q 4877 4070 4966 4019 
Q 5056 3968 5123 3894 
Q 5190 3821 5190 3763 
Q 5190 3686 5056 3674 
L 2170 3520 
L 1978 2739 
L 4998 2886 
L 5050 2886 
Q 5152 2886 5267 2819 
Q 5382 2752 5382 2672 
Q 5382 2592 5366 2547 
Q 5350 2502 5331 2326 
Q 5312 2150 5235 1658 
L 5171 1306 
Q 5037 627 4902 195 
Q 4768 -237 4678 -393 
Q 4589 -550 4505 -604 
Q 4422 -659 4352 -659 
Q 4282 -659 4006 -534 
Q 3731 -410 3302 -112 
Q 2874 186 2874 307 
Q 2874 358 2947 358 
Q 3021 358 3305 217 
Q 3590 77 4211 -128 
L 4237 -134 
Q 4282 -134 4307 -96 
Q 4538 352 4736 1286 
L 4800 1638 
z
M 941 1146 
Q 787 1133 678 1133 
Q 570 1133 483 1213 
Q 397 1293 352 1379 
Q 307 1466 307 1498 
Q 307 1530 358 1530 
L 390 1530 
Q 538 1485 742 1485 
L 832 1485 
L 3354 1600 
Q 3526 1606 3692 1644 
Q 3859 1683 3907 1683 
Q 3955 1683 4038 1632 
Q 4250 1504 4250 1376 
Q 4250 1299 4147 1286 
L 941 1146 
z
" transform="scale(0.015625)"/>
      <path id="LXGW-Bright-Regular-901f" d="M 3603 512 
Q 3654 922 3654 1088 
L 3661 1203 
L 3661 1766 
Q 3661 1856 3667 1965 
L 3674 2074 
Q 3507 1786 3088 1405 
Q 2669 1024 2416 883 
Q 2163 742 2096 742 
Q 2029 742 2029 781 
Q 2029 851 2265 1033 
Q 2502 1216 2828 1555 
Q 3155 1894 3450 2291 
L 2970 2272 
L 2976 2214 
L 2976 2189 
Q 2976 2061 2867 2061 
Q 2739 2061 2656 2131 
Q 2573 2202 2573 2285 
L 2573 2323 
Q 2586 2413 2586 2483 
L 2579 2579 
L 2509 3238 
Q 2496 3398 2435 3488 
Q 2374 3578 2374 3616 
Q 2374 3654 2473 3654 
Q 2573 3654 2842 3584 
L 3667 3629 
L 3667 4045 
L 2746 3987 
Q 2618 3974 2493 3974 
Q 2368 3974 2272 4112 
Q 2176 4250 2176 4304 
Q 2176 4358 2208 4358 
Q 2240 4358 2304 4342 
Q 2368 4326 2502 4326 
L 2573 4326 
L 3674 4397 
L 3674 4851 
Q 3674 5018 3616 5091 
Q 3558 5165 3558 5190 
Q 3558 5242 3654 5242 
Q 4032 5242 4032 5069 
L 4032 4416 
L 4832 4467 
Q 5005 4480 5069 4505 
Q 5133 4531 5165 4531 
Q 5197 4531 5280 4486 
Q 5504 4365 5504 4243 
Q 5504 4166 5395 4154 
L 4032 4070 
L 4032 3648 
L 5024 3706 
L 5069 3706 
Q 5171 3706 5267 3622 
Q 5363 3539 5363 3494 
Q 5363 3450 5334 3418 
Q 5306 3386 5299 3354 
L 5171 2656 
Q 5344 2509 5344 2454 
Q 5344 2400 5296 2390 
Q 5248 2381 5197 2374 
L 4026 2323 
L 4026 1965 
Q 4090 2074 4154 2074 
Q 4218 2074 4666 1808 
Q 5114 1542 5344 1379 
Q 5574 1216 5574 1165 
Q 5574 1114 5545 1050 
Q 5517 986 5469 934 
Q 5421 883 5369 883 
Q 5318 883 5004 1129 
Q 4691 1376 4026 1779 
L 4026 422 
Q 4026 237 3917 237 
Q 3885 237 3808 272 
Q 3731 307 3667 371 
Q 3603 435 3603 512 
z
M 1552 4233 
Q 1690 4096 1782 3981 
Q 1875 3866 1875 3830 
Q 1875 3795 1840 3734 
Q 1805 3674 1747 3619 
Q 1690 3565 1626 3565 
Q 1562 3565 1347 3843 
Q 1133 4122 723 4486 
Q 640 4557 640 4617 
Q 640 4678 726 4739 
Q 813 4800 851 4800 
Q 890 4800 1005 4717 
Q 1120 4634 1267 4502 
Q 1414 4371 1552 4233 
z
M 4909 3373 
L 4032 3328 
L 4026 2630 
L 4813 2662 
L 4909 3373 
z
M 3667 3309 
L 2880 3264 
L 2938 2586 
L 3661 2611 
L 3667 3309 
z
M 365 3072 
Q 518 3046 570 3046 
L 646 3046 
Q 672 3046 698 3053 
L 1670 3155 
L 1741 3162 
Q 1811 3162 1904 3091 
Q 1997 3021 1997 2957 
Q 1997 2893 1958 2854 
L 1882 2778 
Q 1824 2701 1725 2573 
Q 1626 2445 1456 2221 
Q 1286 1997 1286 1965 
Q 1286 1933 1318 1914 
Q 1702 1664 1833 1529 
Q 1965 1395 1965 1267 
Q 1965 1139 1833 992 
Q 1702 845 1376 544 
Q 1600 531 1914 474 
Q 3014 256 4048 99 
Q 5082 -58 5965 -58 
L 5997 -58 
Q 6144 -58 6144 -115 
Q 6144 -122 6106 -211 
Q 5990 -474 5811 -474 
L 5773 -474 
Q 4979 -448 4070 -301 
Q 2598 -51 2128 48 
Q 1658 147 1514 169 
Q 1370 192 1123 192 
Q 877 192 531 77 
Q 467 58 422 58 
Q 262 58 262 333 
Q 262 390 301 422 
Q 371 493 858 538 
Q 1222 858 1523 1229 
Q 1536 1254 1536 1267 
Q 1536 1280 1456 1363 
Q 1376 1446 1062 1651 
Q 890 1766 890 1891 
Q 890 2016 1046 2243 
Q 1203 2470 1421 2771 
L 813 2694 
Q 723 2682 691 2682 
Q 659 2682 592 2694 
Q 525 2707 448 2771 
Q 371 2835 333 2989 
Q 326 3002 326 3027 
Q 326 3072 365 3072 
z
" transform="scale(0.015625)"/>
      <path id="LXGW-Bright-Regular-5ea6" d="M 1075 4448 
Q 1075 4493 1152 4493 
Q 1229 4493 1606 4275 
L 3174 4365 
L 3168 4934 
Q 3168 5050 3104 5136 
Q 3040 5222 3040 5254 
Q 3040 5286 3094 5286 
Q 3149 5286 3264 5267 
Q 3584 5210 3584 5062 
L 3578 4390 
L 5037 4474 
Q 5235 4486 5318 4515 
Q 5402 4544 5453 4544 
Q 5504 4544 5581 4480 
Q 5658 4416 5706 4342 
Q 5754 4269 5754 4237 
Q 5754 4160 5594 4147 
L 1600 3910 
Q 1587 2618 1468 1955 
Q 1350 1293 1161 797 
Q 973 301 781 3 
Q 589 -294 445 -428 
Q 301 -563 265 -563 
Q 230 -563 230 -512 
Q 230 -461 294 -352 
Q 1056 1018 1152 2880 
Q 1171 3328 1171 3648 
L 1171 3827 
Q 1171 4090 1129 4237 
Q 1088 4384 1081 4406 
Q 1075 4429 1075 4448 
z
M 2851 1961 
Q 2771 1984 2694 2032 
Q 2618 2080 2624 2166 
Q 2630 2253 2630 2298 
L 2630 2406 
Q 2630 2464 2624 2509 
L 2586 2950 
L 2189 2925 
L 2061 2918 
Q 1978 2918 1859 2960 
Q 1741 3002 1664 3213 
Q 1658 3232 1658 3264 
Q 1658 3296 1690 3296 
Q 1722 3296 1779 3280 
Q 1837 3264 1965 3264 
L 2560 3296 
L 2541 3514 
Q 2528 3680 2406 3821 
Q 2394 3834 2394 3853 
Q 2394 3898 2458 3898 
Q 2906 3898 2918 3693 
L 2944 3322 
L 4090 3379 
L 4102 3578 
L 4109 3642 
Q 4109 3795 4054 3872 
Q 4000 3949 4000 3981 
Q 4000 4013 4054 4013 
Q 4109 4013 4218 3994 
Q 4518 3930 4518 3750 
L 4518 3738 
L 4480 3405 
L 4883 3424 
Q 5075 3443 5152 3475 
Q 5229 3507 5283 3507 
Q 5338 3507 5421 3446 
Q 5504 3386 5561 3312 
Q 5619 3238 5619 3200 
Q 5619 3123 5504 3110 
L 5491 3110 
L 4442 3053 
L 4384 2579 
Q 4525 2400 4525 2320 
Q 4525 2240 4339 2227 
L 3027 2150 
L 3027 2080 
Q 3027 1939 2938 1939 
Q 2931 1939 2851 1961 
z
M 4058 3027 
L 2970 2970 
L 3002 2490 
L 4019 2547 
L 4058 3027 
z
M 2381 1747 
L 4538 1869 
L 4614 1869 
Q 4755 1869 4832 1811 
Q 4954 1696 4954 1632 
Q 4954 1568 4912 1529 
Q 4870 1491 4845 1459 
Q 4416 896 3923 499 
Q 4832 -19 5926 -256 
Q 6048 -282 6048 -339 
Q 6048 -371 5939 -505 
Q 5830 -640 5734 -640 
Q 5715 -640 5526 -589 
Q 5338 -538 5037 -422 
Q 4243 -134 3590 250 
Q 2650 -365 1613 -525 
Q 1427 -550 1421 -550 
Q 1280 -550 1280 -476 
Q 1280 -403 1485 -339 
Q 2496 -19 3245 467 
Q 2963 659 2710 848 
Q 2458 1037 2432 1065 
Q 2406 1094 2406 1136 
Q 2406 1178 2464 1251 
Q 2522 1325 2589 1325 
Q 2656 1325 2797 1229 
Q 3251 909 3578 704 
Q 4038 1050 4403 1510 
L 2579 1395 
L 2413 1389 
Q 2349 1389 2224 1424 
Q 2099 1459 1997 1677 
Q 1984 1696 1984 1731 
Q 1984 1766 2035 1766 
L 2067 1766 
Q 2214 1747 2381 1747 
z
" transform="scale(0.015625)"/>
      <path id="LXGW-Bright-Regular-5173" d="M 2854 3865 
Q 2829 3782 2720 3731 
Q 2611 3680 2556 3696 
Q 2502 3712 2374 3981 
Q 2246 4250 1862 4723 
Q 1760 4826 1926 4947 
Q 2029 5018 2083 5002 
Q 2138 4986 2301 4800 
Q 2464 4614 2672 4281 
Q 2880 3949 2854 3865 
z
M 1120 1818 
Q 1005 1818 902 1850 
Q 762 1933 685 2125 
Q 672 2163 672 2176 
Q 672 2234 736 2234 
Q 762 2234 838 2214 
Q 915 2195 1069 2195 
L 1133 2195 
L 2829 2278 
Q 2918 2662 2938 3258 
L 1587 3181 
L 1459 3174 
Q 1286 3174 1229 3232 
Q 1056 3398 1056 3565 
Q 1056 3610 1088 3610 
Q 1126 3610 1206 3584 
Q 1286 3558 1414 3558 
L 1446 3558 
L 3309 3667 
Q 3322 3699 3392 3782 
Q 4045 4730 4026 5030 
Q 4013 5267 4275 5120 
Q 4378 5056 4458 4982 
Q 4538 4909 4544 4864 
Q 4550 4819 4493 4717 
Q 4096 4070 3686 3757 
Q 3565 3686 3546 3680 
L 4634 3744 
Q 4794 3757 4845 3776 
Q 4896 3795 4925 3795 
Q 4954 3795 5024 3731 
Q 5235 3578 5235 3469 
Q 5235 3386 5075 3366 
L 3386 3277 
Q 3360 2701 3270 2298 
L 4954 2374 
Q 5146 2394 5210 2416 
Q 5274 2438 5315 2438 
Q 5357 2438 5446 2381 
Q 5670 2234 5670 2112 
Q 5670 2029 5504 2010 
L 3398 1914 
Q 4122 864 5005 339 
Q 5478 58 6067 -134 
Q 6202 -173 6202 -221 
Q 6202 -269 6138 -346 
Q 5965 -544 5837 -544 
L 5651 -474 
Q 5158 -282 4662 73 
Q 4166 429 3792 809 
Q 3418 1190 3110 1677 
Q 3008 1408 2957 1299 
Q 2528 429 1734 -51 
Q 1139 -416 614 -525 
Q 422 -563 364 -563 
Q 307 -563 307 -506 
Q 307 -435 538 -326 
Q 2330 480 2726 1882 
L 1120 1818 
z
" transform="scale(0.015625)"/>
      <path id="LXGW-Bright-Regular-7cfb" d="M 3034 1504 
Q 1408 1357 1254 1357 
Q 1101 1357 1001 1421 
Q 902 1485 819 1741 
Q 813 1754 813 1786 
Q 813 1818 858 1818 
Q 870 1818 883 1818 
Q 896 1818 1017 1789 
Q 1139 1760 1299 1760 
L 1344 1760 
L 1734 1779 
Q 2490 2330 2758 2547 
Q 2419 2739 2144 2915 
Q 1869 3091 1626 3174 
Q 1459 3238 1459 3334 
Q 1459 3405 1532 3494 
Q 1606 3584 1660 3584 
Q 1715 3584 1785 3552 
Q 1856 3520 1920 3485 
Q 1984 3450 2042 3424 
Q 2573 3834 2867 4243 
Q 2899 4288 2918 4346 
Q 2342 4275 1331 4192 
L 1293 4192 
Q 1120 4192 1120 4278 
Q 1120 4365 1306 4397 
Q 3994 4800 4410 5062 
Q 4480 5107 4512 5145 
Q 4544 5184 4585 5184 
Q 4627 5184 4752 5046 
Q 4877 4909 4877 4800 
Q 4877 4691 4800 4672 
Q 3974 4486 3181 4378 
Q 3334 4262 3334 4198 
Q 3334 4134 3251 4032 
Q 3149 3923 2758 3584 
Q 2547 3411 2336 3251 
Q 2490 3162 3053 2797 
Q 3962 3584 4096 3821 
Q 4128 3885 4147 3936 
Q 4166 3987 4195 3987 
Q 4224 3987 4314 3930 
Q 4557 3750 4557 3642 
Q 4557 3597 4506 3558 
Q 3366 2528 2304 1811 
Q 3398 1875 4595 2003 
Q 4416 2182 4281 2291 
Q 4147 2400 4147 2454 
Q 4147 2509 4220 2595 
Q 4294 2682 4345 2682 
Q 4397 2682 4544 2573 
Q 4883 2304 5270 1907 
Q 5658 1510 5658 1430 
Q 5658 1350 5571 1257 
Q 5485 1165 5427 1165 
Q 5370 1165 5200 1373 
Q 5030 1581 4915 1702 
Q 4307 1626 3424 1542 
L 3430 -58 
L 3437 -269 
Q 3437 -371 3347 -480 
Q 3258 -589 3155 -589 
Q 3053 -589 2845 -496 
Q 2637 -403 2320 -169 
Q 2003 64 2003 134 
Q 2003 179 2064 179 
Q 2125 179 2329 96 
Q 2534 13 3040 -115 
L 3034 1504 
z
M 2285 838 
Q 1888 371 1347 16 
Q 806 -339 723 -345 
Q 640 -352 640 -320 
Q 634 -250 730 -173 
Q 1082 122 1344 403 
Q 1811 896 1843 1152 
Q 1856 1248 1917 1251 
Q 1978 1254 2074 1190 
Q 2170 1126 2250 1046 
Q 2330 966 2333 931 
Q 2336 896 2285 838 
z
M 5632 6 
Q 5619 -115 5516 -217 
Q 5414 -320 5356 -313 
Q 5299 -307 5229 -218 
Q 4806 339 4147 954 
Q 4064 1030 4070 1065 
Q 4077 1101 4109 1155 
Q 4141 1210 4195 1254 
Q 4250 1299 4307 1292 
Q 4365 1286 4707 985 
Q 5050 685 5568 115 
Q 5638 45 5632 6 
z
" transform="scale(0.015625)"/>
     </defs>
     <use xlink:href="#LXGW-Bright-Regular-706b"/>
     <use xlink:href="#LXGW-Bright-Regular-7bad" x="99.999985"/>
     <use xlink:href="#LXGW-Bright-Regular-8d28" x="199.999969"/>
     <use xlink:href="#LXGW-Bright-Regular-91cf" x="299.999954"/>
     <use xlink:href="#LXGW-Bright-Regular-6bd4" x="399.999939"/>
     <use xlink:href="#LXGW-Bright-Regular-4e0e" x="499.999924"/>
     <use xlink:href="#LXGW-Bright-Regular-901f" x="599.999908"/>
     <use xlink:href="#LXGW-Bright-Regular-5ea6" x="699.999893"/>
     <use xlink:href="#LXGW-Bright-Regular-6bd4" x="799.999878"/>
     <use xlink:href="#LXGW-Bright-Regular-7684" x="899.999863"/>
     <use xlink:href="#LXGW-Bright-Regular-5173" x="999.999847"/>
     <use xlink:href="#LXGW-Bright-Regular-7cfb" x="1099.999832"/>
    </g>
   </g>
   <g id="legend_1">
    <g id="line2d_28">
     <path d="M 55.080938 42.423125 
L 67.080938 42.423125 
L 79.080938 42.423125 
" style="fill: none; stroke: #0000ff; stroke-width: 2.5; stroke-linecap: round"/>
    </g>
    <g id="text_19">
     <!-- $\frac{m_0}{m_f} = e^{\frac{\Delta v}{v_e}}$ -->
     <g style="fill: #262626" transform="translate(88.680937 46.623125) scale(0.12 -0.12)">
      <use xlink:href="#DejaVuSans-Oblique-6d" transform="translate(0 56.314844) scale(0.7)"/>
      <use xlink:href="#DejaVuSans-30" transform="translate(68.188477 44.830469) scale(0.49)"/>
      <use xlink:href="#DejaVuSans-Oblique-6d" transform="translate(7 -26.31625) scale(0.7)"/>
      <use xlink:href="#DejaVuSans-Oblique-66" transform="translate(75.188477 -37.800625) scale(0.49)"/>
      <use xlink:href="#DejaVuSans-3d" transform="translate(133.260254 0.336875)"/>
      <use xlink:href="#DejaVuSans-Oblique-65" transform="translate(236.531738 0.336875)"/>
      <use xlink:href="#DejaVuSans-394" transform="translate(302.705072 69.275938) scale(0.49)"/>
      <use xlink:href="#DejaVuSans-Oblique-76" transform="translate(336.225091 69.275938) scale(0.49)"/>
      <use xlink:href="#DejaVuSans-Oblique-76" transform="translate(308.705072 20.604063) scale(0.49)"/>
      <use xlink:href="#DejaVuSans-Oblique-65" transform="translate(337.703118 12.565) scale(0.343)"/>
      <path d="M 0 19.13375 
L 0 25.38375 
L 101.277832 25.38375 
L 101.277832 19.13375 
L 0 19.13375 
z
"/>
      <path d="M 302.705072 51.775938 
L 302.705072 56.150938 
L 365.223138 56.150938 
L 365.223138 51.775938 
L 302.705072 51.775938 
z
"/>
     </g>
    </g>
    <g id="patch_9">
     <path d="M 55.080938 65.894375 
L 79.080938 65.894375 
L 79.080938 57.494375 
L 55.080938 57.494375 
z
" style="fill: url(#hafab5f78c5); fill-opacity: 0.5; stroke: #808080; stroke-opacity: 0.5; stroke-linejoin: miter"/>
    </g>
    <g id="text_20">
     <!-- 技术上难以实现区域 -->
     <g style="fill: #262626" transform="translate(88.680937 65.894375) scale(0.12 -0.12)">
      <defs>
       <path id="LXGW-Bright-Regular-6280" d="M 2682 3795 
Q 2874 3763 3002 3763 
L 3053 3763 
L 3974 3821 
L 3981 4787 
Q 3981 4890 3926 4986 
Q 3872 5082 3872 5107 
Q 3872 5158 3955 5158 
Q 4038 5158 4179 5107 
Q 4320 5056 4352 5021 
Q 4384 4986 4384 4915 
L 4371 3846 
L 5146 3891 
Q 5331 3904 5385 3926 
Q 5440 3949 5481 3949 
Q 5523 3949 5600 3904 
Q 5798 3776 5798 3661 
Q 5798 3578 5651 3565 
L 4365 3482 
L 4352 2547 
L 5171 2598 
L 5242 2598 
Q 5350 2598 5436 2531 
Q 5523 2464 5523 2397 
Q 5523 2330 5494 2288 
Q 5466 2246 5453 2227 
Q 5139 1427 4525 774 
Q 5216 211 6176 -186 
Q 6304 -243 6304 -282 
Q 6304 -301 6246 -365 
Q 6080 -550 5952 -550 
Q 5939 -550 5785 -480 
Q 5632 -410 5389 -269 
Q 4800 64 4256 512 
Q 3430 -192 2598 -486 
Q 2413 -557 2339 -557 
Q 2266 -557 2266 -512 
Q 2266 -429 2560 -269 
Q 3328 141 3981 762 
Q 3533 1210 3353 1475 
Q 3174 1741 3174 1785 
Q 3174 1830 3254 1900 
Q 3334 1971 3398 1971 
Q 3462 1971 3520 1882 
Q 3827 1421 4243 1024 
Q 4768 1594 5011 2234 
L 3341 2112 
Q 3290 2106 3238 2106 
L 3155 2106 
Q 3034 2106 2995 2138 
Q 2880 2234 2835 2336 
Q 2790 2438 2790 2470 
Q 2790 2502 2835 2502 
Q 2989 2477 3130 2477 
L 3206 2477 
L 3968 2522 
L 3974 3462 
L 3187 3411 
Q 3136 3405 3085 3405 
L 3002 3405 
Q 2880 3405 2819 3456 
Q 2758 3507 2697 3600 
Q 2637 3693 2637 3744 
Q 2637 3795 2682 3795 
z
M 1811 32 
L 1824 -160 
Q 1824 -378 1600 -467 
Q 1517 -499 1498 -499 
Q 1306 -499 941 -124 
Q 576 250 576 378 
Q 576 410 627 410 
Q 678 410 860 282 
Q 1043 154 1414 6 
L 1421 1626 
Q 710 1210 576 1210 
Q 442 1210 230 1466 
Q 211 1504 211 1523 
Q 211 1574 342 1587 
Q 474 1600 1427 2022 
L 1434 3174 
L 890 3130 
Q 774 3117 691 3117 
L 634 3117 
Q 499 3149 428 3270 
Q 358 3392 358 3450 
Q 358 3494 416 3494 
L 448 3494 
Q 544 3475 646 3475 
L 1434 3526 
L 1440 4627 
Q 1440 4781 1344 4947 
Q 1325 4986 1325 5005 
Q 1325 5062 1405 5062 
Q 1485 5062 1632 5011 
Q 1779 4960 1811 4918 
Q 1843 4877 1843 4800 
L 1837 3552 
L 2074 3571 
Q 2221 3584 2301 3609 
Q 2381 3635 2413 3635 
Q 2445 3635 2522 3590 
Q 2726 3469 2726 3360 
Q 2726 3277 2586 3264 
L 1830 3206 
L 1824 2214 
Q 2010 2304 2307 2457 
Q 2605 2611 2665 2611 
Q 2726 2611 2726 2566 
Q 2726 2522 2624 2422 
Q 2522 2323 1824 1869 
L 1811 32 
z
" transform="scale(0.015625)"/>
       <path id="LXGW-Bright-Regular-672f" d="M 4819 4157 
Q 4819 4058 4726 3978 
Q 4634 3898 4602 3898 
Q 4570 3898 4349 4096 
Q 4128 4294 3731 4531 
Q 3648 4576 3648 4637 
Q 3648 4698 3686 4755 
Q 3738 4851 3795 4851 
Q 3942 4851 4704 4339 
Q 4819 4256 4819 4157 
z
M 5565 3763 
Q 5658 3712 5734 3638 
Q 5811 3565 5811 3488 
Q 5811 3411 5702 3392 
L 5690 3392 
L 3462 3283 
Q 4672 1562 6208 653 
Q 6285 602 6285 563 
Q 6285 525 6211 461 
Q 6138 397 6051 352 
Q 5965 307 5920 307 
Q 5875 307 5779 371 
Q 5082 877 4490 1462 
Q 3898 2048 3366 2835 
L 3360 -499 
Q 3360 -634 3245 -634 
Q 3187 -634 3098 -589 
Q 2886 -480 2886 -326 
L 2886 -288 
Q 2944 147 2944 602 
L 2938 2669 
Q 2246 1574 1370 794 
Q 992 467 736 300 
Q 480 134 413 134 
Q 346 134 346 179 
Q 346 243 448 326 
Q 1126 934 1683 1596 
Q 2240 2259 2822 3245 
L 1414 3174 
Q 1350 3168 1299 3168 
L 1210 3168 
Q 1037 3168 947 3261 
Q 858 3354 826 3450 
L 800 3539 
Q 800 3578 835 3578 
Q 870 3578 940 3555 
Q 1011 3533 1229 3533 
L 1318 3533 
L 2938 3622 
L 2931 4755 
Q 2931 5062 2848 5190 
Q 2829 5222 2829 5235 
Q 2829 5280 2905 5280 
Q 2982 5280 3085 5248 
Q 3366 5178 3366 5005 
L 3366 3648 
L 4909 3731 
Q 5126 3744 5254 3779 
Q 5382 3814 5427 3814 
Q 5472 3814 5565 3763 
z
" transform="scale(0.015625)"/>
       <path id="LXGW-Bright-Regular-96be" d="M 4605 4285 
Q 4704 4570 4704 4637 
Q 4704 4704 4685 4819 
Q 4685 4870 4742 4870 
Q 4762 4870 4864 4832 
Q 5158 4717 5158 4595 
Q 5158 4531 5027 4281 
Q 4896 4032 4710 3750 
L 5286 3789 
Q 5453 3802 5513 3824 
Q 5574 3846 5612 3846 
Q 5651 3846 5728 3795 
Q 5920 3661 5920 3565 
Q 5920 3501 5766 3488 
L 4704 3424 
L 4698 2669 
L 5082 2694 
Q 5261 2707 5309 2729 
Q 5357 2752 5395 2752 
Q 5434 2752 5510 2707 
Q 5722 2573 5722 2470 
Q 5722 2400 5574 2387 
L 4698 2342 
L 4691 1626 
L 5120 1651 
Q 5280 1664 5344 1689 
Q 5408 1715 5440 1715 
Q 5472 1715 5552 1667 
Q 5632 1619 5699 1548 
Q 5766 1478 5766 1434 
Q 5766 1357 5619 1344 
L 4685 1293 
L 4678 397 
L 5530 429 
Q 5683 435 5766 467 
Q 5850 499 5888 499 
Q 5926 499 6009 448 
Q 6093 397 6160 323 
Q 6227 250 6227 198 
Q 6227 122 6067 102 
L 3424 0 
L 3424 -480 
Q 3424 -640 3315 -640 
Q 3174 -640 3072 -544 
Q 2970 -448 2970 -390 
Q 2970 -333 3002 -214 
Q 3034 -96 3034 102 
L 3053 3059 
Q 2886 2816 2755 2697 
Q 2624 2579 2579 2579 
Q 2547 2579 2547 2630 
Q 2547 2682 2784 3046 
Q 3021 3411 3309 4099 
Q 3597 4787 3597 4986 
L 3597 5018 
Q 3597 5030 3590 5113 
Q 3584 5197 3654 5197 
Q 3680 5197 3782 5165 
Q 4077 5056 4077 4928 
Q 4077 4826 3869 4384 
Q 3661 3942 3494 3674 
L 4352 3725 
Q 4506 4000 4605 4285 
z
M 4333 3405 
L 3405 3347 
L 3411 2592 
L 4320 2650 
L 4333 3405 
z
M 4320 2323 
L 3411 2272 
L 3418 1562 
L 4314 1606 
L 4320 2323 
z
M 4307 1274 
L 3418 1229 
L 3418 346 
L 4294 384 
L 4307 1274 
z
M 627 4301 
L 890 4275 
L 947 4275 
L 2336 4365 
L 2406 4365 
Q 2496 4365 2589 4301 
Q 2682 4237 2685 4173 
Q 2688 4109 2662 4070 
Q 2637 4032 2579 3731 
Q 2438 2931 2106 2118 
L 2067 2029 
Q 2502 1344 2633 1126 
Q 2765 909 2761 845 
Q 2758 781 2700 729 
Q 2643 678 2573 653 
Q 2432 595 2362 749 
Q 2176 1101 1869 1626 
Q 1414 787 858 198 
Q 614 -51 454 -176 
Q 294 -301 256 -301 
Q 218 -301 218 -237 
Q 218 -173 288 -102 
Q 1101 832 1638 2010 
Q 1242 2662 922 3117 
Q 858 3213 861 3273 
Q 864 3334 960 3392 
Q 1056 3450 1088 3443 
Q 1120 3437 1171 3392 
Q 1222 3347 1811 2432 
Q 1882 2573 2003 3056 
Q 2125 3539 2176 4000 
L 1094 3910 
Q 1037 3904 992 3904 
L 909 3904 
Q 781 3904 720 3965 
Q 659 4026 601 4128 
Q 544 4230 544 4265 
Q 544 4301 595 4301 
L 627 4301 
z
" transform="scale(0.015625)"/>
       <path id="LXGW-Bright-Regular-4ee5" d="M 4442 1638 
Q 4973 1190 5350 800 
Q 5728 410 5846 262 
Q 5965 115 5965 51 
Q 5965 -13 5907 -80 
Q 5850 -147 5782 -192 
Q 5715 -237 5676 -237 
Q 5638 -237 5568 -147 
Q 4877 768 4237 1325 
Q 3738 621 2982 115 
Q 2682 -83 2470 -185 
Q 2259 -288 2221 -288 
Q 2157 -288 2157 -217 
Q 2157 -147 2310 -38 
Q 3520 819 4067 1785 
Q 4614 2752 4838 4083 
Q 4883 4352 4883 4438 
Q 4883 4525 4860 4592 
Q 4838 4659 4838 4678 
Q 4838 4730 4899 4730 
Q 4960 4730 5075 4698 
Q 5382 4621 5382 4467 
Q 5382 4160 5043 3040 
Q 4787 2227 4454 1658 
L 4442 1638 
z
M 1242 4102 
Q 1242 4275 1181 4355 
Q 1120 4435 1120 4473 
Q 1120 4512 1190 4512 
Q 1261 4512 1370 4480 
Q 1664 4397 1664 4262 
L 1658 1126 
Q 2208 1478 2931 2035 
Q 3034 2118 3094 2118 
Q 3155 2118 3155 2048 
Q 3155 1933 2566 1398 
Q 1978 864 1501 512 
Q 1024 160 922 160 
Q 755 160 582 384 
L 493 493 
Q 480 518 480 525 
Q 480 557 589 576 
Q 870 634 1235 870 
L 1242 4102 
z
M 3408 3328 
Q 3552 3187 3645 3075 
Q 3738 2963 3738 2924 
Q 3738 2886 3693 2822 
Q 3571 2650 3475 2650 
Q 3379 2650 3302 2758 
Q 2880 3315 2419 3725 
Q 2336 3795 2336 3840 
Q 2336 3885 2397 3961 
Q 2458 4038 2541 4038 
Q 2624 4038 2678 3990 
Q 2733 3942 2848 3843 
Q 2963 3744 3113 3606 
Q 3264 3469 3408 3328 
z
" transform="scale(0.015625)"/>
       <path id="LXGW-Bright-Regular-533a" d="M 1152 4147 
Q 1152 4384 1107 4483 
Q 1062 4582 1062 4636 
Q 1062 4691 1129 4691 
Q 1197 4691 1542 4525 
L 4774 4717 
Q 4922 4730 5008 4762 
Q 5094 4794 5139 4794 
Q 5184 4794 5261 4749 
Q 5466 4627 5466 4506 
Q 5466 4403 5286 4390 
L 1542 4173 
L 1523 205 
L 5184 326 
Q 5376 339 5443 364 
Q 5510 390 5564 390 
Q 5619 390 5699 326 
Q 5779 262 5836 182 
Q 5894 102 5894 58 
Q 5894 -26 5690 -38 
L 1523 -173 
L 1523 -467 
Q 1523 -621 1402 -621 
Q 1267 -621 1174 -528 
Q 1082 -435 1082 -339 
L 1082 -307 
Q 1082 -288 1101 -208 
Q 1120 -128 1120 83 
L 1152 4147 
z
M 4243 4038 
Q 4243 4122 4304 4122 
Q 4365 4122 4461 4070 
Q 4717 3942 4717 3802 
Q 4717 3725 4429 3149 
Q 4141 2573 3923 2234 
Q 4518 1677 5082 1075 
Q 5165 992 5165 915 
Q 5165 838 5075 755 
Q 4986 672 4918 672 
Q 4851 672 4768 774 
Q 4333 1286 3699 1907 
Q 2970 922 1952 429 
Q 1869 390 1814 390 
Q 1760 390 1760 429 
Q 1760 486 1862 563 
Q 2912 1382 3405 2189 
Q 2822 2733 2144 3270 
Q 2099 3315 2099 3337 
Q 2099 3360 2125 3418 
Q 2202 3571 2323 3571 
Q 2387 3571 2445 3526 
Q 3194 2906 3610 2515 
Q 4000 3149 4186 3699 
Q 4243 3878 4243 4000 
L 4243 4038 
z
" transform="scale(0.015625)"/>
       <path id="LXGW-Bright-Regular-57df" d="M 4794 1626 
Q 5075 2131 5177 2476 
Q 5280 2822 5280 2876 
Q 5280 2931 5261 3027 
Q 5261 3078 5306 3078 
Q 5331 3078 5427 3034 
Q 5696 2893 5696 2746 
Q 5696 2714 5619 2502 
Q 5542 2291 5366 1926 
Q 5190 1562 4966 1222 
Q 5331 429 5581 109 
Q 5658 19 5779 -90 
Q 5850 -90 5997 774 
Q 6042 1037 6125 1037 
Q 6208 1037 6208 768 
L 6208 730 
Q 6195 109 6131 -243 
Q 6067 -595 5843 -595 
Q 5555 -595 5235 -109 
Q 4998 250 4704 864 
Q 4122 128 3597 -262 
Q 3386 -416 3325 -416 
Q 3264 -416 3264 -371 
Q 3264 -301 3386 -186 
Q 3904 320 4525 1229 
Q 4250 1920 4138 2409 
Q 4026 2899 3936 3379 
L 2534 3290 
L 2438 3290 
Q 2298 3290 2234 3344 
Q 2170 3398 2125 3481 
Q 2080 3565 2080 3590 
Q 2080 3635 2131 3635 
Q 2259 3610 2349 3610 
L 3885 3712 
Q 3840 3968 3808 4224 
Q 3776 4480 3747 4704 
Q 3718 4928 3657 5017 
Q 3597 5107 3597 5139 
Q 3597 5190 3654 5190 
Q 3712 5190 3821 5171 
Q 4122 5133 4134 4960 
Q 4186 4307 4275 3731 
L 5389 3808 
Q 5517 3821 5568 3840 
Q 5619 3859 5680 3859 
Q 5741 3859 5811 3802 
Q 5958 3661 5958 3571 
Q 5958 3514 5818 3494 
L 4326 3398 
Q 4525 2298 4794 1626 
z
M 4960 4026 
Q 4717 4320 4429 4570 
Q 4371 4627 4371 4675 
Q 4371 4723 4432 4790 
Q 4493 4858 4544 4858 
Q 4659 4858 4985 4541 
Q 5312 4224 5312 4157 
Q 5312 4090 5229 4006 
Q 5146 3923 5104 3923 
Q 5062 3923 4960 4026 
z
M 378 3053 
L 614 3014 
L 704 3014 
Q 736 3014 762 3021 
L 1178 3059 
L 1178 4224 
Q 1178 4371 1114 4457 
Q 1050 4544 1050 4592 
Q 1050 4640 1120 4640 
Q 1190 4640 1299 4614 
Q 1581 4550 1581 4410 
L 1568 3091 
L 1632 3098 
Q 1773 3110 1856 3142 
Q 1939 3174 1980 3174 
Q 2022 3174 2096 3116 
Q 2170 3059 2227 2985 
Q 2285 2912 2285 2867 
Q 2285 2790 2125 2771 
L 1568 2720 
L 1555 1357 
Q 1824 1498 2019 1610 
Q 2214 1722 2268 1722 
Q 2323 1722 2323 1677 
Q 2323 1619 2227 1523 
Q 1766 1114 1389 870 
Q 736 461 589 461 
Q 538 461 442 537 
Q 346 614 272 710 
Q 198 806 198 851 
Q 198 896 243 896 
L 288 896 
Q 480 896 694 979 
Q 909 1062 1178 1178 
L 1178 2688 
L 883 2662 
Q 851 2656 819 2656 
L 736 2656 
Q 685 2656 566 2701 
Q 448 2746 358 2989 
Q 352 3002 352 3027 
Q 352 3053 378 3053 
z
M 3590 2867 
L 3654 2874 
Q 3706 2874 3786 2819 
Q 3866 2765 3866 2713 
Q 3866 2662 3856 2636 
Q 3846 2611 3840 2573 
L 3744 1894 
Q 3878 1722 3878 1674 
Q 3878 1626 3827 1616 
Q 3776 1606 3686 1600 
L 2886 1562 
L 2893 1485 
L 2893 1466 
Q 2893 1344 2797 1344 
Q 2675 1344 2595 1414 
Q 2515 1485 2515 1568 
L 2515 1594 
Q 2522 1626 2522 1664 
L 2522 1798 
Q 2522 1830 2515 1869 
L 2464 2522 
Q 2458 2656 2406 2752 
Q 2355 2848 2355 2886 
Q 2355 2944 2451 2944 
Q 2547 2944 2835 2822 
L 3590 2867 
z
M 3456 2560 
L 2829 2528 
L 2867 1856 
L 3411 1888 
L 3456 2560 
z
M 2054 794 
Q 2086 787 2118 787 
L 2176 787 
Q 2522 787 3565 1126 
Q 3802 1203 3904 1241 
Q 4006 1280 4080 1280 
Q 4154 1280 4154 1229 
Q 4154 1126 3706 909 
Q 3411 755 2896 553 
Q 2381 352 2285 352 
Q 2131 352 2016 653 
L 1978 755 
Q 1978 794 2029 794 
L 2054 794 
z
" transform="scale(0.015625)"/>
      </defs>
      <use xlink:href="#LXGW-Bright-Regular-6280"/>
      <use xlink:href="#LXGW-Bright-Regular-672f" x="99.999985"/>
      <use xlink:href="#LXGW-Bright-Regular-4e0a" x="199.999969"/>
      <use xlink:href="#LXGW-Bright-Regular-96be" x="299.999954"/>
      <use xlink:href="#LXGW-Bright-Regular-4ee5" x="399.999939"/>
      <use xlink:href="#LXGW-Bright-Regular-5b9e" x="499.999924"/>
      <use xlink:href="#LXGW-Bright-Regular-73b0" x="599.999908"/>
      <use xlink:href="#LXGW-Bright-Regular-533a" x="699.999893"/>
      <use xlink:href="#LXGW-Bright-Regular-57df" x="799.999878"/>
     </g>
    </g>
   </g>
  </g>
 </g>
 <defs>
  <clipPath id="pe391beacf3">
   <rect x="44.280938" y="23.223125" width="501.465144" height="361.89"/>
  </clipPath>
 </defs>
 <defs>
  <pattern id="hafab5f78c5" patternUnits="userSpaceOnUse" x="0" y="0" width="72" height="72">
   <rect x="0" y="0" width="73" height="73" fill="#d3d3d3"/>
   <path d="M -36 36 
L 36 -36 
M -34 38 
L 38 -34 
M -32 40 
L 40 -32 
M -30 42 
L 42 -30 
M -28 44 
L 44 -28 
M -26 46 
L 46 -26 
M -24 48 
L 48 -24 
M -22 50 
L 50 -22 
M -20 52 
L 52 -20 
M -18 54 
L 54 -18 
M -16 56 
L 56 -16 
M -14 58 
L 58 -14 
M -12 60 
L 60 -12 
M -10 62 
L 62 -10 
M -8 64 
L 64 -8 
M -6 66 
L 66 -6 
M -4 68 
L 68 -4 
M -2 70 
L 70 -2 
M 0 72 
L 72 0 
M 2 74 
L 74 2 
M 4 76 
L 76 4 
M 6 78 
L 78 6 
M 8 80 
L 80 8 
M 10 82 
L 82 10 
M 12 84 
L 84 12 
M 14 86 
L 86 14 
M 16 88 
L 88 16 
M 18 90 
L 90 18 
M 20 92 
L 92 20 
M 22 94 
L 94 22 
M 24 96 
L 96 24 
M 26 98 
L 98 26 
M 28 100 
L 100 28 
M 30 102 
L 102 30 
M 32 104 
L 104 32 
M 34 106 
L 106 34 
M 36 108 
L 108 36 
" style="fill: #808080; stroke: #808080; stroke-width: 0.5; stroke-linecap: butt; stroke-linejoin: miter; stroke-opacity: 0.5"/>
  </pattern>
 </defs>
</svg>
