<?xml version="1.0" encoding="utf-8" standalone="no"?>
<!DOCTYPE svg PUBLIC "-//W3C//DTD SVG 1.1//EN"
  "http://www.w3.org/Graphics/SVG/1.1/DTD/svg11.dtd">
<svg xmlns:xlink="http://www.w3.org/1999/xlink" width="636.434952pt" height="392.555625pt" viewBox="0 0 636.434952 392.555625" xmlns="http://www.w3.org/2000/svg" version="1.1">
 <metadata>
  <rdf:RDF xmlns:dc="http://purl.org/dc/elements/1.1/" xmlns:cc="http://creativecommons.org/ns#" xmlns:rdf="http://www.w3.org/1999/02/22-rdf-syntax-ns#">
   <cc:Work>
    <dc:type rdf:resource="http://purl.org/dc/dcmitype/StillImage"/>
    <dc:date>2025-03-20T01:50:41.477097</dc:date>
    <dc:format>image/svg+xml</dc:format>
    <dc:creator>
     <cc:Agent>
      <dc:title>Matplotlib v3.9.2, https://matplotlib.org/</dc:title>
     </cc:Agent>
    </dc:creator>
   </cc:Work>
  </rdf:RDF>
 </metadata>
 <defs>
  <style type="text/css">*{stroke-linejoin: round; stroke-linecap: butt}</style>
 </defs>
 <g id="figure_1">
  <g id="patch_1">
   <path d="M 0 392.555625 
L 636.434952 392.555625 
L 636.434952 0 
L 0 0 
z
" style="fill: #ffffff"/>
  </g>
  <g id="axes_1">
   <g id="patch_2">
    <path d="M 38.061875 355.985625 
L 596.061875 355.985625 
L 596.061875 23.345625 
L 38.061875 23.345625 
z
" style="fill: #ffffff"/>
   </g>
   <g id="matplotlib.axis_1">
    <g id="xtick_1">
     <g id="line2d_1">
      <path d="M 102.44649 355.985625 
L 102.44649 23.345625 
" clip-path="url(#p29d1ade687)" style="fill: none; stroke-dasharray: 2.96,1.28; stroke-dashoffset: 0; stroke: #cccccc; stroke-opacity: 0.7; stroke-width: 0.8"/>
     </g>
     <g id="line2d_2"/>
     <g id="text_1">
      <!-- 0.6 -->
      <g style="fill: #262626" transform="translate(95.49649 366.643437) scale(0.1 -0.1)">
       <defs>
        <path id="ArialUnicodeMS-30" d="M 1778 4603 
Q 3272 4603 3272 2259 
Q 3272 1075 2886 498 
Q 2500 -78 1778 -78 
Q 288 -78 288 2259 
Q 288 3444 673 4023 
Q 1059 4603 1778 4603 
z
M 1778 384 
Q 2231 384 2462 823 
Q 2694 1263 2694 2259 
Q 2694 2953 2592 3351 
Q 2491 3750 2286 3945 
Q 2081 4141 1772 4141 
Q 1319 4141 1091 3694 
Q 863 3247 863 2259 
Q 863 1575 966 1175 
Q 1069 775 1272 579 
Q 1475 384 1778 384 
z
" transform="scale(0.015625)"/>
        <path id="ArialUnicodeMS-2e" d="M 1209 0 
L 569 0 
L 569 641 
L 1209 641 
L 1209 0 
z
" transform="scale(0.015625)"/>
        <path id="ArialUnicodeMS-36" d="M 838 2363 
Q 1225 2969 1941 2969 
Q 2503 2969 2897 2553 
Q 3291 2138 3291 1491 
Q 3291 838 2898 380 
Q 2506 -78 1856 -78 
Q 1197 -78 733 409 
Q 269 897 269 2144 
Q 269 3369 689 3986 
Q 1109 4603 1906 4603 
Q 2422 4603 2778 4315 
Q 3134 4028 3213 3463 
L 2650 3413 
Q 2497 4141 1875 4141 
Q 1444 4141 1134 3712 
Q 825 3284 825 2363 
L 838 2363 
z
M 1844 384 
Q 2231 384 2472 696 
Q 2713 1009 2713 1453 
Q 2713 1897 2472 2187 
Q 2231 2478 1825 2478 
Q 1453 2478 1184 2204 
Q 916 1931 916 1484 
Q 916 1028 1180 706 
Q 1444 384 1844 384 
z
" transform="scale(0.015625)"/>
       </defs>
       <use xlink:href="#ArialUnicodeMS-30"/>
       <use xlink:href="#ArialUnicodeMS-2e" x="55.615234"/>
       <use xlink:href="#ArialUnicodeMS-36" x="83.398438"/>
      </g>
     </g>
    </g>
    <g id="xtick_2">
     <g id="line2d_3">
      <path d="M 209.754183 355.985625 
L 209.754183 23.345625 
" clip-path="url(#p29d1ade687)" style="fill: none; stroke-dasharray: 2.96,1.28; stroke-dashoffset: 0; stroke: #cccccc; stroke-opacity: 0.7; stroke-width: 0.8"/>
     </g>
     <g id="line2d_4"/>
     <g id="text_2">
      <!-- 0.8 -->
      <g style="fill: #262626" transform="translate(202.804183 366.643437) scale(0.1 -0.1)">
       <defs>
        <path id="ArialUnicodeMS-38" d="M 2425 2478 
Q 3284 2203 3284 1306 
Q 3284 716 2862 319 
Q 2441 -78 1778 -78 
Q 1109 -78 689 322 
Q 269 722 269 1325 
Q 269 1759 505 2084 
Q 741 2409 1141 2478 
L 1141 2491 
Q 453 2703 453 3419 
Q 453 3925 815 4264 
Q 1178 4603 1766 4603 
Q 2363 4603 2730 4253 
Q 3097 3903 3097 3406 
Q 3097 2731 2425 2491 
L 2425 2478 
z
M 1778 2700 
Q 2094 2700 2308 2901 
Q 2522 3103 2522 3406 
Q 2522 3716 2305 3928 
Q 2088 4141 1772 4141 
Q 1450 4141 1240 3931 
Q 1031 3722 1031 3438 
Q 1031 3097 1247 2898 
Q 1463 2700 1778 2700 
z
M 1778 384 
Q 2175 384 2440 640 
Q 2706 897 2706 1306 
Q 2706 1716 2432 1978 
Q 2159 2241 1766 2241 
Q 1356 2241 1100 1970 
Q 844 1700 844 1319 
Q 844 922 1108 653 
Q 1372 384 1778 384 
z
" transform="scale(0.015625)"/>
       </defs>
       <use xlink:href="#ArialUnicodeMS-30"/>
       <use xlink:href="#ArialUnicodeMS-2e" x="55.615234"/>
       <use xlink:href="#ArialUnicodeMS-38" x="83.398438"/>
      </g>
     </g>
    </g>
    <g id="xtick_3">
     <g id="line2d_5">
      <path d="M 317.061875 355.985625 
L 317.061875 23.345625 
" clip-path="url(#p29d1ade687)" style="fill: none; stroke-dasharray: 2.96,1.28; stroke-dashoffset: 0; stroke: #cccccc; stroke-opacity: 0.7; stroke-width: 0.8"/>
     </g>
     <g id="line2d_6"/>
     <g id="text_3">
      <!-- 1.0 -->
      <g style="fill: #262626" transform="translate(310.111875 366.643437) scale(0.1 -0.1)">
       <defs>
        <path id="ArialUnicodeMS-31" d="M 2400 0 
L 1838 0 
L 1838 3584 
Q 1416 3184 709 2906 
L 709 3450 
Q 1681 3916 2034 4603 
L 2400 4603 
L 2400 0 
z
" transform="scale(0.015625)"/>
       </defs>
       <use xlink:href="#ArialUnicodeMS-31"/>
       <use xlink:href="#ArialUnicodeMS-2e" x="55.615234"/>
       <use xlink:href="#ArialUnicodeMS-30" x="83.398438"/>
      </g>
     </g>
    </g>
    <g id="xtick_4">
     <g id="line2d_7">
      <path d="M 424.369567 355.985625 
L 424.369567 23.345625 
" clip-path="url(#p29d1ade687)" style="fill: none; stroke-dasharray: 2.96,1.28; stroke-dashoffset: 0; stroke: #cccccc; stroke-opacity: 0.7; stroke-width: 0.8"/>
     </g>
     <g id="line2d_8"/>
     <g id="text_4">
      <!-- 1.2 -->
      <g style="fill: #262626" transform="translate(417.419567 366.643437) scale(0.1 -0.1)">
       <defs>
        <path id="ArialUnicodeMS-32" d="M 3231 0 
L 197 0 
Q 197 388 467 784 
Q 738 1181 1478 1778 
Q 1931 2141 2287 2539 
Q 2644 2938 2644 3341 
Q 2644 3688 2398 3914 
Q 2153 4141 1778 4141 
Q 1400 4141 1144 3908 
Q 888 3675 884 3213 
L 306 3278 
Q 359 3922 764 4262 
Q 1169 4603 1791 4603 
Q 2466 4603 2842 4229 
Q 3219 3856 3219 3328 
Q 3219 2888 2901 2436 
Q 2584 1984 1638 1228 
Q 1141 831 978 544 
L 3231 544 
L 3231 0 
z
" transform="scale(0.015625)"/>
       </defs>
       <use xlink:href="#ArialUnicodeMS-31"/>
       <use xlink:href="#ArialUnicodeMS-2e" x="55.615234"/>
       <use xlink:href="#ArialUnicodeMS-32" x="83.398438"/>
      </g>
     </g>
    </g>
    <g id="xtick_5">
     <g id="line2d_9">
      <path d="M 531.67726 355.985625 
L 531.67726 23.345625 
" clip-path="url(#p29d1ade687)" style="fill: none; stroke-dasharray: 2.96,1.28; stroke-dashoffset: 0; stroke: #cccccc; stroke-opacity: 0.7; stroke-width: 0.8"/>
     </g>
     <g id="line2d_10"/>
     <g id="text_5">
      <!-- 1.4 -->
      <g style="fill: #262626" transform="translate(524.72726 366.643437) scale(0.1 -0.1)">
       <defs>
        <path id="ArialUnicodeMS-34" d="M 3263 1094 
L 2644 1094 
L 2644 0 
L 2081 0 
L 2081 1094 
L 97 1094 
L 97 1613 
L 2181 4581 
L 2644 4581 
L 2644 1613 
L 3263 1613 
L 3263 1094 
z
M 2081 1613 
L 2081 3681 
L 2069 3681 
L 647 1613 
L 2081 1613 
z
" transform="scale(0.015625)"/>
       </defs>
       <use xlink:href="#ArialUnicodeMS-31"/>
       <use xlink:href="#ArialUnicodeMS-2e" x="55.615234"/>
       <use xlink:href="#ArialUnicodeMS-34" x="83.398438"/>
      </g>
     </g>
    </g>
    <g id="text_6">
     <!-- 行星质量 (相比地球质量 $M_{Earth}$) -->
     <g style="fill: #262626" transform="translate(233.121875 382.835625) scale(0.12 -0.12)">
      <defs>
       <path id="ArialUnicodeMS-884c" d="M 2406 5113 
Q 1606 3906 838 3359 
L 409 3694 
Q 1353 4350 2028 5409 
L 2406 5113 
z
M 5631 4441 
L 2881 4441 
L 2881 4909 
L 5631 4909 
L 5631 4441 
z
M 2688 3597 
Q 2538 3313 1906 2553 
L 1906 -397 
L 1422 -397 
L 1422 2047 
Q 772 1578 703 1538 
L 325 1931 
Q 1372 2534 2297 3859 
L 2688 3597 
z
M 6022 2888 
L 4878 2888 
L 4878 206 
Q 4878 -372 4166 -372 
Q 3781 -372 3494 -359 
L 3341 128 
Q 3969 103 4069 103 
Q 4244 103 4308 154 
Q 4372 206 4372 341 
L 4372 2888 
L 2725 2888 
L 2725 3353 
L 6022 3353 
L 6022 2888 
z
" transform="scale(0.015625)"/>
       <path id="ArialUnicodeMS-661f" d="M 5131 2706 
L 1331 2706 
L 1331 4991 
L 5131 4991 
L 5131 2706 
z
M 4647 4091 
L 4647 4525 
L 1784 4525 
L 1784 4091 
L 4647 4091 
z
M 4647 3175 
L 4647 3622 
L 1784 3622 
L 1784 3175 
L 4647 3175 
z
M 5984 -116 
L 750 -116 
L 750 353 
L 3091 353 
L 3091 819 
L 1575 819 
L 1575 1288 
L 3091 1288 
L 3091 1703 
L 1747 1703 
Q 1431 1203 1038 856 
L 616 1166 
Q 1409 1816 1638 2638 
L 2094 2463 
Q 2056 2328 1978 2169 
L 3091 2169 
L 3091 2597 
L 3578 2597 
L 3578 2169 
L 5441 2169 
L 5441 1703 
L 3578 1703 
L 3578 1288 
L 5178 1288 
L 5178 819 
L 3578 819 
L 3578 353 
L 5984 353 
L 5984 -116 
z
" transform="scale(0.015625)"/>
       <path id="ArialUnicodeMS-8d28" d="M 5197 4891 
Q 3900 4506 1453 4494 
L 1453 2125 
Q 1453 488 550 -397 
L 159 -50 
Q 966 725 966 2450 
L 966 4997 
Q 3859 5013 4934 5319 
L 5197 4891 
z
M 5797 3597 
L 3822 3597 
L 3822 3219 
L 5125 3219 
L 5125 856 
L 4641 856 
L 4641 2753 
L 2419 2753 
L 2419 878 
L 1959 878 
L 1959 3219 
L 3334 3219 
L 3334 3597 
L 1644 3597 
L 1644 4063 
L 3334 4063 
L 3334 4428 
L 3822 4428 
L 3822 4063 
L 5797 4063 
L 5797 3597 
z
M 3694 2394 
Q 3700 2194 3700 2050 
Q 3700 1384 3520 931 
Q 3341 478 2814 107 
Q 2288 -263 1594 -416 
L 1363 72 
Q 2316 234 2755 712 
Q 3194 1191 3194 1813 
Q 3194 1953 3231 2472 
L 3694 2394 
z
M 5619 -72 
L 5300 -441 
Q 4628 275 3572 634 
L 3847 1006 
Q 4991 672 5619 -72 
z
" transform="scale(0.015625)"/>
       <path id="ArialUnicodeMS-91cf" d="M 5056 3378 
L 1313 3378 
L 1313 5050 
L 5056 5050 
L 5056 3378 
z
M 4569 4403 
L 4569 4609 
L 1797 4609 
L 1797 4403 
L 4569 4403 
z
M 4569 3794 
L 4569 4031 
L 1797 4031 
L 1797 3794 
L 4569 3794 
z
M 5797 2816 
L 581 2816 
L 581 3231 
L 5797 3231 
L 5797 2816 
z
M 6059 -191 
L 341 -191 
L 341 275 
L 2950 275 
L 2950 459 
L 897 459 
L 897 878 
L 2950 878 
L 2950 1044 
L 1125 1044 
L 1125 2669 
L 5269 2669 
L 5269 1044 
L 3438 1044 
L 3438 878 
L 5509 878 
L 5509 459 
L 3438 459 
L 3438 275 
L 6059 275 
L 6059 -191 
z
M 4781 2053 
L 4781 2253 
L 3438 2253 
L 3438 2053 
L 4781 2053 
z
M 2950 2053 
L 2950 2253 
L 1613 2253 
L 1613 2053 
L 2950 2053 
z
M 4781 1459 
L 4781 1697 
L 3438 1697 
L 3438 1459 
L 4781 1459 
z
M 2950 1459 
L 2950 1697 
L 1613 1697 
L 1613 1459 
L 2950 1459 
z
" transform="scale(0.015625)"/>
       <path id="ArialUnicodeMS-20" transform="scale(0.015625)"/>
       <path id="ArialUnicodeMS-28" d="M 1900 -1344 
L 1497 -1344 
Q 978 -681 681 103 
Q 384 888 384 1656 
Q 384 2528 700 3275 
Q 1016 4022 1497 4659 
L 1900 4659 
Q 1344 3747 1155 3059 
Q 966 2372 966 1663 
Q 966 153 1900 -1344 
z
" transform="scale(0.015625)"/>
       <path id="ArialUnicodeMS-76f8" d="M 3009 1791 
L 2566 1503 
Q 2322 1975 2003 2406 
L 2003 -416 
L 1509 -416 
L 1509 2094 
Q 1313 1497 659 678 
L 275 972 
Q 1053 1969 1459 3603 
L 519 3603 
L 519 4072 
L 1516 4072 
L 1516 5300 
L 2003 5300 
L 2003 4072 
L 2881 4072 
L 2881 3603 
L 2003 3603 
L 2003 2900 
L 2131 2975 
Q 2681 2434 3009 1791 
z
M 5691 -416 
L 5178 -416 
L 5178 38 
L 3659 38 
L 3659 -416 
L 3150 -416 
L 3150 4966 
L 5691 4966 
L 5691 -416 
z
M 5178 3547 
L 5178 4500 
L 3659 4500 
L 3659 3547 
L 5178 3547 
z
M 5178 2059 
L 5178 3078 
L 3659 3078 
L 3659 2059 
L 5178 2059 
z
M 5178 506 
L 5178 1594 
L 3659 1594 
L 3659 506 
L 5178 506 
z
" transform="scale(0.015625)"/>
       <path id="ArialUnicodeMS-6bd4" d="M 6119 1100 
Q 5975 -197 5300 -197 
L 4103 -197 
Q 3828 -197 3658 -42 
Q 3488 113 3488 378 
L 3488 5191 
L 3994 5191 
L 3994 2906 
Q 4775 3172 5600 3916 
L 5984 3584 
Q 5013 2703 3994 2388 
L 3994 506 
Q 4022 269 4225 269 
L 5153 269 
Q 5375 269 5464 464 
Q 5553 659 5625 1325 
L 6119 1100 
z
M 3238 306 
L 653 -231 
L 378 250 
L 1131 391 
L 1131 5166 
L 1638 5166 
L 1638 3450 
L 3238 3450 
L 3238 2981 
L 1638 2981 
L 1638 500 
L 3238 819 
L 3238 306 
z
" transform="scale(0.015625)"/>
       <path id="ArialUnicodeMS-5730" d="M 5984 934 
Q 5844 191 5708 -70 
Q 5572 -331 5288 -331 
L 3150 -331 
Q 2650 -331 2650 191 
L 2650 2316 
L 2309 2203 
L 2144 2669 
L 2650 2816 
L 2650 4109 
L 3138 4109 
L 3138 2963 
L 3816 3175 
L 3816 5172 
L 4300 5172 
L 4300 3284 
L 5650 3653 
Q 5584 2619 5482 1981 
Q 5381 1344 5267 1194 
Q 5153 1044 4972 1044 
Q 4759 1044 4434 1125 
L 4353 1678 
Q 4769 1497 4800 1497 
Q 4997 1497 5125 3016 
L 4300 2797 
L 4300 750 
L 3816 750 
L 3816 2650 
L 3138 2438 
L 3138 306 
Q 3138 134 3291 134 
L 5222 134 
Q 5363 134 5428 506 
L 5528 1088 
L 5984 934 
z
M 2444 903 
L 641 263 
L 359 666 
L 1228 947 
L 1228 2888 
L 519 2888 
L 519 3353 
L 1228 3353 
L 1228 4716 
L 1716 4716 
L 1716 3353 
L 2388 3353 
L 2388 2888 
L 1716 2888 
L 1716 1147 
L 2444 1388 
L 2444 903 
z
" transform="scale(0.015625)"/>
       <path id="ArialUnicodeMS-7403" d="M 6138 603 
L 5766 250 
Q 4797 1016 4366 2009 
L 4366 84 
Q 4366 -106 4220 -254 
Q 4075 -403 3884 -403 
L 3194 -403 
L 3016 109 
Q 3400 63 3609 63 
Q 3859 63 3859 244 
L 3859 1509 
Q 3353 1047 2363 434 
L 2016 831 
Q 3172 1484 3859 2106 
L 3859 3653 
L 2328 3653 
L 2328 4134 
L 3859 4134 
L 3859 5319 
L 4366 5319 
L 4366 4134 
L 5931 4134 
L 5931 3653 
L 4366 3653 
L 4366 3328 
Q 4481 2806 4684 2450 
Q 5163 2781 5491 3291 
L 5875 2963 
Q 5344 2316 4863 2041 
Q 5291 1247 6138 603 
z
M 5766 4513 
L 5441 4184 
Q 5091 4650 4494 4863 
L 4806 5197 
Q 5400 4963 5766 4513 
z
M 2528 1259 
L 678 616 
L 341 1038 
Q 1128 1253 1269 1313 
L 1269 2700 
L 609 2700 
L 609 3163 
L 1269 3163 
L 1269 4341 
L 469 4341 
L 469 4800 
L 2438 4800 
L 2438 4341 
L 1753 4341 
L 1753 3163 
L 2356 3163 
L 2356 2700 
L 1753 2700 
L 1753 1484 
L 2528 1759 
L 2528 1259 
z
M 3578 2425 
L 3138 2150 
Q 2947 2791 2438 3263 
L 2847 3494 
Q 3341 3084 3578 2425 
z
" transform="scale(0.015625)"/>
       <path id="DejaVuSans-Oblique-4d" d="M 1081 4666 
L 2028 4666 
L 2572 1522 
L 4378 4666 
L 5350 4666 
L 4441 0 
L 3828 0 
L 4622 4091 
L 2791 897 
L 2175 897 
L 1581 4103 
L 788 0 
L 172 0 
L 1081 4666 
z
" transform="scale(0.015625)"/>
       <path id="DejaVuSans-Oblique-45" d="M 1081 4666 
L 4031 4666 
L 3928 4134 
L 1606 4134 
L 1338 2753 
L 3566 2753 
L 3463 2222 
L 1234 2222 
L 909 531 
L 3284 531 
L 3181 0 
L 172 0 
L 1081 4666 
z
" transform="scale(0.015625)"/>
       <path id="DejaVuSans-Oblique-61" d="M 3438 1997 
L 3047 0 
L 2472 0 
L 2578 531 
Q 2325 219 2001 64 
Q 1678 -91 1281 -91 
Q 834 -91 548 182 
Q 263 456 263 884 
Q 263 1497 752 1853 
Q 1241 2209 2100 2209 
L 2900 2209 
L 2931 2363 
Q 2938 2388 2941 2417 
Q 2944 2447 2944 2509 
Q 2944 2788 2717 2942 
Q 2491 3097 2081 3097 
Q 1800 3097 1504 3025 
Q 1209 2953 897 2809 
L 997 3341 
Q 1322 3463 1633 3523 
Q 1944 3584 2234 3584 
Q 2853 3584 3176 3315 
Q 3500 3047 3500 2534 
Q 3500 2431 3484 2292 
Q 3469 2153 3438 1997 
z
M 2816 1759 
L 2241 1759 
Q 1534 1759 1195 1570 
Q 856 1381 856 984 
Q 856 709 1029 553 
Q 1203 397 1509 397 
Q 1978 397 2328 733 
Q 2678 1069 2791 1631 
L 2816 1759 
z
" transform="scale(0.015625)"/>
       <path id="DejaVuSans-Oblique-72" d="M 2853 2969 
Q 2766 3016 2653 3041 
Q 2541 3066 2413 3066 
Q 1953 3066 1609 2717 
Q 1266 2369 1153 1784 
L 800 0 
L 225 0 
L 909 3500 
L 1484 3500 
L 1375 2956 
Q 1603 3259 1920 3421 
Q 2238 3584 2597 3584 
Q 2691 3584 2781 3573 
Q 2872 3563 2963 3538 
L 2853 2969 
z
" transform="scale(0.015625)"/>
       <path id="DejaVuSans-Oblique-74" d="M 2706 3500 
L 2619 3053 
L 1472 3053 
L 1100 1153 
Q 1081 1047 1072 975 
Q 1063 903 1063 863 
Q 1063 663 1183 572 
Q 1303 481 1569 481 
L 2150 481 
L 2053 0 
L 1503 0 
Q 991 0 739 200 
Q 488 400 488 806 
Q 488 878 497 964 
Q 506 1050 525 1153 
L 897 3053 
L 409 3053 
L 500 3500 
L 978 3500 
L 1172 4494 
L 1747 4494 
L 1556 3500 
L 2706 3500 
z
" transform="scale(0.015625)"/>
       <path id="DejaVuSans-Oblique-68" d="M 3566 2113 
L 3156 0 
L 2578 0 
L 2988 2091 
Q 3016 2238 3031 2350 
Q 3047 2463 3047 2528 
Q 3047 2791 2881 2937 
Q 2716 3084 2419 3084 
Q 1956 3084 1617 2771 
Q 1278 2459 1178 1941 
L 800 0 
L 225 0 
L 1172 4863 
L 1747 4863 
L 1375 2950 
Q 1594 3244 1934 3414 
Q 2275 3584 2650 3584 
Q 3113 3584 3367 3334 
Q 3622 3084 3622 2631 
Q 3622 2519 3608 2391 
Q 3594 2263 3566 2113 
z
" transform="scale(0.015625)"/>
       <path id="ArialUnicodeMS-29" d="M 634 4659 
Q 1153 3997 1450 3212 
Q 1747 2428 1747 1656 
Q 1747 788 1431 41 
Q 1116 -706 634 -1344 
L 231 -1344 
Q 788 -431 977 255 
Q 1166 941 1166 1650 
Q 1166 3163 231 4659 
L 634 4659 
z
" transform="scale(0.015625)"/>
      </defs>
      <use xlink:href="#ArialUnicodeMS-884c" transform="translate(0 0.484375)"/>
      <use xlink:href="#ArialUnicodeMS-661f" transform="translate(100 0.484375)"/>
      <use xlink:href="#ArialUnicodeMS-8d28" transform="translate(200 0.484375)"/>
      <use xlink:href="#ArialUnicodeMS-91cf" transform="translate(300 0.484375)"/>
      <use xlink:href="#ArialUnicodeMS-20" transform="translate(400 0.484375)"/>
      <use xlink:href="#ArialUnicodeMS-28" transform="translate(427.783203 0.484375)"/>
      <use xlink:href="#ArialUnicodeMS-76f8" transform="translate(461.083984 0.484375)"/>
      <use xlink:href="#ArialUnicodeMS-6bd4" transform="translate(561.083984 0.484375)"/>
      <use xlink:href="#ArialUnicodeMS-5730" transform="translate(661.083984 0.484375)"/>
      <use xlink:href="#ArialUnicodeMS-7403" transform="translate(761.083984 0.484375)"/>
      <use xlink:href="#ArialUnicodeMS-8d28" transform="translate(861.083984 0.484375)"/>
      <use xlink:href="#ArialUnicodeMS-91cf" transform="translate(961.083984 0.484375)"/>
      <use xlink:href="#ArialUnicodeMS-20" transform="translate(1061.083984 0.484375)"/>
      <use xlink:href="#DejaVuSans-Oblique-4d" transform="translate(1088.867188 0.484375)"/>
      <use xlink:href="#DejaVuSans-Oblique-45" transform="translate(1175.146484 -15.921875) scale(0.7)"/>
      <use xlink:href="#DejaVuSans-Oblique-61" transform="translate(1219.375 -15.921875) scale(0.7)"/>
      <use xlink:href="#DejaVuSans-Oblique-72" transform="translate(1262.270508 -15.921875) scale(0.7)"/>
      <use xlink:href="#DejaVuSans-Oblique-74" transform="translate(1291.049805 -15.921875) scale(0.7)"/>
      <use xlink:href="#DejaVuSans-Oblique-68" transform="translate(1318.496094 -15.921875) scale(0.7)"/>
      <use xlink:href="#ArialUnicodeMS-29" transform="translate(1365.595703 0.484375)"/>
     </g>
    </g>
   </g>
   <g id="matplotlib.axis_2">
    <g id="ytick_1">
     <g id="line2d_11">
      <path d="M 38.061875 355.985625 
L 596.061875 355.985625 
" clip-path="url(#p29d1ade687)" style="fill: none; stroke-dasharray: 2.96,1.28; stroke-dashoffset: 0; stroke: #cccccc; stroke-opacity: 0.7; stroke-width: 0.8"/>
     </g>
     <g id="line2d_12"/>
     <g id="text_7">
      <!-- 0 -->
      <g style="fill: #262626" transform="translate(29.000938 359.564531) scale(0.1 -0.1)">
       <use xlink:href="#ArialUnicodeMS-30"/>
      </g>
     </g>
    </g>
    <g id="ytick_2">
     <g id="line2d_13">
      <path d="M 38.061875 319.025625 
L 596.061875 319.025625 
" clip-path="url(#p29d1ade687)" style="fill: none; stroke-dasharray: 2.96,1.28; stroke-dashoffset: 0; stroke: #cccccc; stroke-opacity: 0.7; stroke-width: 0.8"/>
     </g>
     <g id="line2d_14"/>
     <g id="text_8">
      <!-- 5 -->
      <g style="fill: #262626" transform="translate(29.000938 322.604531) scale(0.1 -0.1)">
       <defs>
        <path id="ArialUnicodeMS-35" d="M 1013 2753 
Q 1431 3041 1881 3041 
Q 2453 3041 2878 2636 
Q 3303 2231 3303 1556 
Q 3303 875 2872 398 
Q 2441 -78 1741 -78 
Q 1169 -78 750 245 
Q 331 569 269 1203 
L 856 1247 
Q 928 813 1162 598 
Q 1397 384 1741 384 
Q 2169 384 2434 707 
Q 2700 1031 2700 1503 
Q 2700 1984 2428 2262 
Q 2156 2541 1728 2541 
Q 1188 2541 897 2100 
L 366 2163 
L 813 4519 
L 3084 4519 
L 3084 3975 
L 1259 3975 
L 1013 2753 
z
" transform="scale(0.015625)"/>
       </defs>
       <use xlink:href="#ArialUnicodeMS-35"/>
      </g>
     </g>
    </g>
    <g id="ytick_3">
     <g id="line2d_15">
      <path d="M 38.061875 282.065625 
L 596.061875 282.065625 
" clip-path="url(#p29d1ade687)" style="fill: none; stroke-dasharray: 2.96,1.28; stroke-dashoffset: 0; stroke: #cccccc; stroke-opacity: 0.7; stroke-width: 0.8"/>
     </g>
     <g id="line2d_16"/>
     <g id="text_9">
      <!-- 10 -->
      <g style="fill: #262626" transform="translate(23.44 285.644531) scale(0.1 -0.1)">
       <use xlink:href="#ArialUnicodeMS-31"/>
       <use xlink:href="#ArialUnicodeMS-30" x="55.615234"/>
      </g>
     </g>
    </g>
    <g id="ytick_4">
     <g id="line2d_17">
      <path d="M 38.061875 245.105625 
L 596.061875 245.105625 
" clip-path="url(#p29d1ade687)" style="fill: none; stroke-dasharray: 2.96,1.28; stroke-dashoffset: 0; stroke: #cccccc; stroke-opacity: 0.7; stroke-width: 0.8"/>
     </g>
     <g id="line2d_18"/>
     <g id="text_10">
      <!-- 15 -->
      <g style="fill: #262626" transform="translate(23.44 248.684531) scale(0.1 -0.1)">
       <use xlink:href="#ArialUnicodeMS-31"/>
       <use xlink:href="#ArialUnicodeMS-35" x="55.615234"/>
      </g>
     </g>
    </g>
    <g id="ytick_5">
     <g id="line2d_19">
      <path d="M 38.061875 208.145625 
L 596.061875 208.145625 
" clip-path="url(#p29d1ade687)" style="fill: none; stroke-dasharray: 2.96,1.28; stroke-dashoffset: 0; stroke: #cccccc; stroke-opacity: 0.7; stroke-width: 0.8"/>
     </g>
     <g id="line2d_20"/>
     <g id="text_11">
      <!-- 20 -->
      <g style="fill: #262626" transform="translate(23.44 211.724531) scale(0.1 -0.1)">
       <use xlink:href="#ArialUnicodeMS-32"/>
       <use xlink:href="#ArialUnicodeMS-30" x="55.615234"/>
      </g>
     </g>
    </g>
    <g id="ytick_6">
     <g id="line2d_21">
      <path d="M 38.061875 171.185625 
L 596.061875 171.185625 
" clip-path="url(#p29d1ade687)" style="fill: none; stroke-dasharray: 2.96,1.28; stroke-dashoffset: 0; stroke: #cccccc; stroke-opacity: 0.7; stroke-width: 0.8"/>
     </g>
     <g id="line2d_22"/>
     <g id="text_12">
      <!-- 25 -->
      <g style="fill: #262626" transform="translate(23.44 174.764531) scale(0.1 -0.1)">
       <use xlink:href="#ArialUnicodeMS-32"/>
       <use xlink:href="#ArialUnicodeMS-35" x="55.615234"/>
      </g>
     </g>
    </g>
    <g id="ytick_7">
     <g id="line2d_23">
      <path d="M 38.061875 134.225625 
L 596.061875 134.225625 
" clip-path="url(#p29d1ade687)" style="fill: none; stroke-dasharray: 2.96,1.28; stroke-dashoffset: 0; stroke: #cccccc; stroke-opacity: 0.7; stroke-width: 0.8"/>
     </g>
     <g id="line2d_24"/>
     <g id="text_13">
      <!-- 30 -->
      <g style="fill: #262626" transform="translate(23.44 137.804531) scale(0.1 -0.1)">
       <defs>
        <path id="ArialUnicodeMS-33" d="M 2425 2478 
Q 2850 2397 3067 2067 
Q 3284 1738 3284 1350 
Q 3284 725 2829 323 
Q 2375 -78 1741 -78 
Q 1134 -78 740 275 
Q 347 628 281 1209 
L 844 1288 
Q 928 834 1151 609 
Q 1375 384 1741 384 
Q 2134 384 2407 661 
Q 2681 938 2681 1338 
Q 2681 1722 2432 1975 
Q 2184 2228 1784 2228 
Q 1622 2228 1388 2169 
L 1453 2663 
Q 1678 2663 1809 2684 
Q 1941 2706 2103 2790 
Q 2266 2875 2372 3033 
Q 2478 3191 2478 3425 
Q 2478 3766 2251 3953 
Q 2025 4141 1728 4141 
Q 1388 4141 1173 3925 
Q 959 3709 903 3309 
L 341 3413 
Q 450 4009 823 4306 
Q 1197 4603 1716 4603 
Q 2288 4603 2670 4258 
Q 3053 3913 3053 3413 
Q 3053 2772 2425 2491 
L 2425 2478 
z
" transform="scale(0.015625)"/>
       </defs>
       <use xlink:href="#ArialUnicodeMS-33"/>
       <use xlink:href="#ArialUnicodeMS-30" x="55.615234"/>
      </g>
     </g>
    </g>
    <g id="ytick_8">
     <g id="line2d_25">
      <path d="M 38.061875 97.265625 
L 596.061875 97.265625 
" clip-path="url(#p29d1ade687)" style="fill: none; stroke-dasharray: 2.96,1.28; stroke-dashoffset: 0; stroke: #cccccc; stroke-opacity: 0.7; stroke-width: 0.8"/>
     </g>
     <g id="line2d_26"/>
     <g id="text_14">
      <!-- 35 -->
      <g style="fill: #262626" transform="translate(23.44 100.844531) scale(0.1 -0.1)">
       <use xlink:href="#ArialUnicodeMS-33"/>
       <use xlink:href="#ArialUnicodeMS-35" x="55.615234"/>
      </g>
     </g>
    </g>
    <g id="ytick_9">
     <g id="line2d_27">
      <path d="M 38.061875 60.305625 
L 596.061875 60.305625 
" clip-path="url(#p29d1ade687)" style="fill: none; stroke-dasharray: 2.96,1.28; stroke-dashoffset: 0; stroke: #cccccc; stroke-opacity: 0.7; stroke-width: 0.8"/>
     </g>
     <g id="line2d_28"/>
     <g id="text_15">
      <!-- 40 -->
      <g style="fill: #262626" transform="translate(23.44 63.884531) scale(0.1 -0.1)">
       <use xlink:href="#ArialUnicodeMS-34"/>
       <use xlink:href="#ArialUnicodeMS-30" x="55.615234"/>
      </g>
     </g>
    </g>
    <g id="ytick_10">
     <g id="line2d_29">
      <path d="M 38.061875 23.345625 
L 596.061875 23.345625 
" clip-path="url(#p29d1ade687)" style="fill: none; stroke-dasharray: 2.96,1.28; stroke-dashoffset: 0; stroke: #cccccc; stroke-opacity: 0.7; stroke-width: 0.8"/>
     </g>
     <g id="line2d_30"/>
     <g id="text_16">
      <!-- 45 -->
      <g style="fill: #262626" transform="translate(23.44 26.924531) scale(0.1 -0.1)">
       <use xlink:href="#ArialUnicodeMS-34"/>
       <use xlink:href="#ArialUnicodeMS-35" x="55.615234"/>
      </g>
     </g>
    </g>
    <g id="text_17">
     <!-- 质量比 $r_m = m_0/m_f$ -->
     <g style="fill: #262626" transform="translate(17.049375 241.625625) rotate(-90) scale(0.12 -0.12)">
      <defs>
       <path id="DejaVuSans-Oblique-6d" d="M 5747 2113 
L 5338 0 
L 4763 0 
L 5166 2094 
Q 5191 2228 5203 2325 
Q 5216 2422 5216 2491 
Q 5216 2772 5059 2928 
Q 4903 3084 4622 3084 
Q 4203 3084 3875 2770 
Q 3547 2456 3450 1953 
L 3066 0 
L 2491 0 
L 2900 2094 
Q 2925 2209 2937 2307 
Q 2950 2406 2950 2484 
Q 2950 2769 2794 2926 
Q 2638 3084 2363 3084 
Q 1938 3084 1609 2770 
Q 1281 2456 1184 1953 
L 800 0 
L 225 0 
L 909 3500 
L 1484 3500 
L 1375 2956 
Q 1609 3263 1923 3423 
Q 2238 3584 2597 3584 
Q 2978 3584 3223 3384 
Q 3469 3184 3519 2828 
Q 3781 3197 4126 3390 
Q 4472 3584 4856 3584 
Q 5306 3584 5551 3325 
Q 5797 3066 5797 2591 
Q 5797 2488 5784 2364 
Q 5772 2241 5747 2113 
z
" transform="scale(0.015625)"/>
       <path id="DejaVuSans-3d" d="M 678 2906 
L 4684 2906 
L 4684 2381 
L 678 2381 
L 678 2906 
z
M 678 1631 
L 4684 1631 
L 4684 1100 
L 678 1100 
L 678 1631 
z
" transform="scale(0.015625)"/>
       <path id="DejaVuSans-30" d="M 2034 4250 
Q 1547 4250 1301 3770 
Q 1056 3291 1056 2328 
Q 1056 1369 1301 889 
Q 1547 409 2034 409 
Q 2525 409 2770 889 
Q 3016 1369 3016 2328 
Q 3016 3291 2770 3770 
Q 2525 4250 2034 4250 
z
M 2034 4750 
Q 2819 4750 3233 4129 
Q 3647 3509 3647 2328 
Q 3647 1150 3233 529 
Q 2819 -91 2034 -91 
Q 1250 -91 836 529 
Q 422 1150 422 2328 
Q 422 3509 836 4129 
Q 1250 4750 2034 4750 
z
" transform="scale(0.015625)"/>
       <path id="DejaVuSans-2f" d="M 1625 4666 
L 2156 4666 
L 531 -594 
L 0 -594 
L 1625 4666 
z
" transform="scale(0.015625)"/>
       <path id="DejaVuSans-Oblique-66" d="M 3059 4863 
L 2969 4384 
L 2419 4384 
Q 2106 4384 1964 4261 
Q 1822 4138 1753 3809 
L 1691 3500 
L 2638 3500 
L 2553 3053 
L 1606 3053 
L 1013 0 
L 434 0 
L 1031 3053 
L 481 3053 
L 563 3500 
L 1113 3500 
L 1159 3744 
Q 1278 4363 1576 4613 
Q 1875 4863 2516 4863 
L 3059 4863 
z
" transform="scale(0.015625)"/>
      </defs>
      <use xlink:href="#ArialUnicodeMS-8d28" transform="translate(0 0.890625)"/>
      <use xlink:href="#ArialUnicodeMS-91cf" transform="translate(100 0.890625)"/>
      <use xlink:href="#ArialUnicodeMS-6bd4" transform="translate(200 0.890625)"/>
      <use xlink:href="#ArialUnicodeMS-20" transform="translate(300 0.890625)"/>
      <use xlink:href="#DejaVuSans-Oblique-72" transform="translate(327.783203 0.890625)"/>
      <use xlink:href="#DejaVuSans-Oblique-6d" transform="translate(368.896484 -15.515625) scale(0.7)"/>
      <use xlink:href="#DejaVuSans-3d" transform="translate(459.301758 0.890625)"/>
      <use xlink:href="#DejaVuSans-Oblique-6d" transform="translate(562.573242 0.890625)"/>
      <use xlink:href="#DejaVuSans-30" transform="translate(659.985352 -15.515625) scale(0.7)"/>
      <use xlink:href="#DejaVuSans-2f" transform="translate(707.255859 0.890625)"/>
      <use xlink:href="#DejaVuSans-Oblique-6d" transform="translate(740.947266 0.890625)"/>
      <use xlink:href="#DejaVuSans-Oblique-66" transform="translate(838.359375 -15.515625) scale(0.7)"/>
     </g>
    </g>
   </g>
   <g id="PolyCollection_1">
    <path d="M 38.061875 23.345625 
L 38.061875 208.145625 
L 43.698239 208.145625 
L 49.334602 208.145625 
L 54.970966 208.145625 
L 60.60733 208.145625 
L 66.243693 208.145625 
L 71.880057 208.145625 
L 77.51642 208.145625 
L 83.152784 208.145625 
L 88.789148 208.145625 
L 94.425511 208.145625 
L 100.061875 208.145625 
L 105.698239 208.145625 
L 111.334602 208.145625 
L 116.970966 208.145625 
L 122.60733 208.145625 
L 128.243693 208.145625 
L 133.880057 208.145625 
L 139.51642 208.145625 
L 145.152784 208.145625 
L 150.789148 208.145625 
L 156.425511 208.145625 
L 162.061875 208.145625 
L 167.698239 208.145625 
L 173.334602 208.145625 
L 178.970966 208.145625 
L 184.60733 208.145625 
L 190.243693 208.145625 
L 195.880057 208.145625 
L 201.51642 208.145625 
L 207.152784 208.145625 
L 212.789148 208.145625 
L 218.425511 208.145625 
L 224.061875 208.145625 
L 229.698239 208.145625 
L 235.334602 208.145625 
L 240.970966 208.145625 
L 246.60733 208.145625 
L 252.243693 208.145625 
L 257.880057 208.145625 
L 263.51642 208.145625 
L 269.152784 208.145625 
L 274.789148 208.145625 
L 280.425511 208.145625 
L 286.061875 208.145625 
L 291.698239 208.145625 
L 297.334602 208.145625 
L 302.970966 208.145625 
L 308.60733 208.145625 
L 314.243693 208.145625 
L 319.880057 208.145625 
L 325.51642 208.145625 
L 331.152784 208.145625 
L 336.789148 208.145625 
L 342.425511 208.145625 
L 348.061875 208.145625 
L 353.698239 208.145625 
L 359.334602 208.145625 
L 364.970966 208.145625 
L 370.60733 208.145625 
L 376.243693 208.145625 
L 381.880057 208.145625 
L 387.51642 208.145625 
L 393.152784 208.145625 
L 398.789148 208.145625 
L 404.425511 208.145625 
L 410.061875 208.145625 
L 415.698239 208.145625 
L 421.334602 208.145625 
L 426.970966 208.145625 
L 432.60733 208.145625 
L 438.243693 208.145625 
L 443.880057 208.145625 
L 449.51642 208.145625 
L 455.152784 208.145625 
L 460.789148 208.145625 
L 466.425511 208.145625 
L 472.061875 208.145625 
L 477.698239 208.145625 
L 483.334602 208.145625 
L 488.970966 208.145625 
L 494.60733 208.145625 
L 500.243693 208.145625 
L 505.880057 208.145625 
L 511.51642 208.145625 
L 517.152784 208.145625 
L 522.789148 208.145625 
L 528.425511 208.145625 
L 534.061875 208.145625 
L 539.698239 208.145625 
L 545.334602 208.145625 
L 550.970966 208.145625 
L 556.60733 208.145625 
L 562.243693 208.145625 
L 567.880057 208.145625 
L 573.51642 208.145625 
L 579.152784 208.145625 
L 584.789148 208.145625 
L 590.425511 208.145625 
L 596.061875 208.145625 
L 596.061875 23.345625 
L 596.061875 23.345625 
L 590.425511 23.345625 
L 584.789148 23.345625 
L 579.152784 23.345625 
L 573.51642 23.345625 
L 567.880057 23.345625 
L 562.243693 23.345625 
L 556.60733 23.345625 
L 550.970966 23.345625 
L 545.334602 23.345625 
L 539.698239 23.345625 
L 534.061875 23.345625 
L 528.425511 23.345625 
L 522.789148 23.345625 
L 517.152784 23.345625 
L 511.51642 23.345625 
L 505.880057 23.345625 
L 500.243693 23.345625 
L 494.60733 23.345625 
L 488.970966 23.345625 
L 483.334602 23.345625 
L 477.698239 23.345625 
L 472.061875 23.345625 
L 466.425511 23.345625 
L 460.789148 23.345625 
L 455.152784 23.345625 
L 449.51642 23.345625 
L 443.880057 23.345625 
L 438.243693 23.345625 
L 432.60733 23.345625 
L 426.970966 23.345625 
L 421.334602 23.345625 
L 415.698239 23.345625 
L 410.061875 23.345625 
L 404.425511 23.345625 
L 398.789148 23.345625 
L 393.152784 23.345625 
L 387.51642 23.345625 
L 381.880057 23.345625 
L 376.243693 23.345625 
L 370.60733 23.345625 
L 364.970966 23.345625 
L 359.334602 23.345625 
L 353.698239 23.345625 
L 348.061875 23.345625 
L 342.425511 23.345625 
L 336.789148 23.345625 
L 331.152784 23.345625 
L 325.51642 23.345625 
L 319.880057 23.345625 
L 314.243693 23.345625 
L 308.60733 23.345625 
L 302.970966 23.345625 
L 297.334602 23.345625 
L 291.698239 23.345625 
L 286.061875 23.345625 
L 280.425511 23.345625 
L 274.789148 23.345625 
L 269.152784 23.345625 
L 263.51642 23.345625 
L 257.880057 23.345625 
L 252.243693 23.345625 
L 246.60733 23.345625 
L 240.970966 23.345625 
L 235.334602 23.345625 
L 229.698239 23.345625 
L 224.061875 23.345625 
L 218.425511 23.345625 
L 212.789148 23.345625 
L 207.152784 23.345625 
L 201.51642 23.345625 
L 195.880057 23.345625 
L 190.243693 23.345625 
L 184.60733 23.345625 
L 178.970966 23.345625 
L 173.334602 23.345625 
L 167.698239 23.345625 
L 162.061875 23.345625 
L 156.425511 23.345625 
L 150.789148 23.345625 
L 145.152784 23.345625 
L 139.51642 23.345625 
L 133.880057 23.345625 
L 128.243693 23.345625 
L 122.60733 23.345625 
L 116.970966 23.345625 
L 111.334602 23.345625 
L 105.698239 23.345625 
L 100.061875 23.345625 
L 94.425511 23.345625 
L 88.789148 23.345625 
L 83.152784 23.345625 
L 77.51642 23.345625 
L 71.880057 23.345625 
L 66.243693 23.345625 
L 60.60733 23.345625 
L 54.970966 23.345625 
L 49.334602 23.345625 
L 43.698239 23.345625 
L 38.061875 23.345625 
z
" clip-path="url(#p29d1ade687)" style="fill: url(#h3efa51999a); fill-opacity: 0.5; stroke: #808080; stroke-opacity: 0.5"/>
   </g>
   <g id="PolyCollection_2">
    <path d="M 563.869567 23.345625 
L 563.869567 355.985625 
L 596.061875 355.985625 
L 596.061875 23.345625 
L 596.061875 23.345625 
L 563.869567 23.345625 
z
" clip-path="url(#p29d1ade687)" style="fill: url(#h15daba09a6); fill-opacity: 0.5; stroke: #808080; stroke-opacity: 0.5"/>
   </g>
   <g id="line2d_31">
    <path d="M 48.792644 321.154847 
L 94.444065 316.449567 
L 137.947183 311.745543 
L 180.376151 306.93506 
L 221.730967 302.022125 
L 262.011632 297.013156 
L 301.218147 291.916304 
L 339.887585 286.666567 
L 378.019948 281.264986 
L 415.615236 275.713217 
L 452.136373 270.097696 
L 488.120434 264.343538 
L 523.567419 258.453985 
L 559.014404 252.338277 
L 585.331106 247.647659 
L 585.331106 247.647659 
" clip-path="url(#p29d1ade687)" style="fill: none; stroke: #800080; stroke-width: 2; stroke-linecap: round"/>
   </g>
   <g id="line2d_32">
    <defs>
     <path id="m1b77f82d16" d="M 0 3 
C 0.795609 3 1.55874 2.683901 2.12132 2.12132 
C 2.683901 1.55874 3 0.795609 3 0 
C 3 -0.795609 2.683901 -1.55874 2.12132 -2.12132 
C 1.55874 -2.683901 0.795609 -3 0 -3 
C -0.795609 -3 -1.55874 -2.683901 -2.12132 -2.12132 
C -2.683901 -1.55874 -3 -0.795609 -3 0 
C -3 0.795609 -2.683901 1.55874 -2.12132 2.12132 
C -1.55874 2.683901 -0.795609 3 0 3 
z
" style="stroke: #ff0000"/>
    </defs>
    <g clip-path="url(#p29d1ade687)">
     <use xlink:href="#m1b77f82d16" x="317.061875" y="289.792596" style="fill: #ff0000; stroke: #ff0000"/>
    </g>
   </g>
   <g id="line2d_33">
    <path d="M 38.061875 208.145625 
L 596.061875 208.145625 
" clip-path="url(#p29d1ade687)" style="fill: none; stroke-dasharray: 5.55,2.4; stroke-dashoffset: 0; stroke: #ff0000; stroke-opacity: 0.7; stroke-width: 1.5"/>
   </g>
   <g id="line2d_34">
    <path d="M 563.869567 355.985625 
L 563.869567 23.345625 
" clip-path="url(#p29d1ade687)" style="fill: none; stroke-dasharray: 9.6,2.4,1.5,2.4; stroke-dashoffset: 0; stroke: #ff0000; stroke-opacity: 0.7; stroke-width: 1.5"/>
   </g>
   <g id="patch_3">
    <path d="M 38.061875 355.985625 
L 38.061875 23.345625 
" style="fill: none; stroke: #cccccc; stroke-linejoin: miter; stroke-linecap: square"/>
   </g>
   <g id="patch_4">
    <path d="M 596.061875 355.985625 
L 596.061875 23.345625 
" style="fill: none; stroke: #cccccc; stroke-linejoin: miter; stroke-linecap: square"/>
   </g>
   <g id="patch_5">
    <path d="M 38.061875 355.985625 
L 596.061875 355.985625 
" style="fill: none; stroke: #cccccc; stroke-linejoin: miter; stroke-linecap: square"/>
   </g>
   <g id="patch_6">
    <path d="M 38.061875 23.345625 
L 596.061875 23.345625 
" style="fill: none; stroke: #cccccc; stroke-linejoin: miter; stroke-linecap: square"/>
   </g>
   <g id="patch_7">
    <path d="M 340.868193 279.271989 
Q 335.211701 281.96916 329.555209 284.66633 
L 331.81482 289.405176 
Q 325.107708 289.279716 318.400596 289.154257 
Q 322.525295 283.863893 326.649994 278.573529 
L 328.909605 283.312374 
Q 334.566098 280.615204 340.22259 277.918033 
L 340.868193 279.271989 
z
" style="stroke: #000000; stroke-linecap: round"/>
   </g>
   <g id="text_18">
    <!-- 地球标准质量 -->
    <g style="fill: #262626" transform="translate(343.888798 264.427033) scale(0.1 -0.1)">
     <defs>
      <path id="ArialUnicodeMS-6807" d="M 2597 2169 
L 2175 1931 
Q 2006 2331 1703 2772 
L 1691 2772 
L 1691 -353 
L 1203 -353 
L 1203 2253 
L 1191 2253 
Q 1022 1659 494 1106 
L 134 1453 
Q 966 2294 1172 3653 
L 372 3653 
L 372 4122 
L 1203 4122 
L 1203 5331 
L 1691 5331 
L 1691 4122 
L 2419 4122 
L 2419 3653 
L 1691 3653 
L 1691 3091 
L 1875 3206 
Q 2334 2725 2597 2169 
z
M 5569 4384 
L 2669 4384 
L 2669 4825 
L 5569 4825 
L 5569 4384 
z
M 5863 2931 
L 4353 2931 
L 4353 422 
Q 4353 78 4300 -64 
Q 4247 -206 4150 -261 
Q 4053 -316 3397 -378 
L 3219 116 
L 3756 91 
Q 3866 91 3866 281 
L 3866 2931 
L 2388 2931 
L 2388 3372 
L 5863 3372 
L 5863 2931 
z
M 6016 728 
L 5556 481 
Q 5247 1438 4531 2309 
L 4909 2547 
Q 5678 1606 6016 728 
z
M 3494 2316 
Q 3028 1181 2222 459 
L 1825 781 
Q 2694 1544 3097 2528 
L 3494 2316 
z
" transform="scale(0.015625)"/>
      <path id="ArialUnicodeMS-51c6" d="M 6081 56 
L 2944 56 
L 2944 -416 
L 2450 -416 
L 2450 3181 
Q 2297 2922 2028 2638 
L 1538 2859 
Q 2488 3813 2900 5344 
L 3353 5172 
Q 3178 4503 3028 4197 
L 4072 4197 
Q 4394 4750 4500 5338 
L 4972 5172 
Q 4900 4766 4641 4197 
L 5869 4197 
L 5869 3731 
L 4563 3731 
L 4563 3034 
L 5672 3034 
L 5672 2566 
L 4563 2566 
L 4563 1813 
L 5672 1813 
L 5672 1344 
L 4563 1344 
L 4563 525 
L 6081 525 
L 6081 56 
z
M 4078 3034 
L 4078 3731 
L 2944 3731 
L 2944 3034 
L 4078 3034 
z
M 4078 1813 
L 4078 2566 
L 2944 2566 
L 2944 1813 
L 4078 1813 
z
M 4078 525 
L 4078 1344 
L 2944 1344 
L 2944 525 
L 4078 525 
z
M 1931 3878 
L 1503 3603 
Q 1103 4347 581 4684 
L 1025 4947 
Q 1456 4669 1931 3878 
z
M 1825 2413 
Q 1728 1144 825 -97 
L 366 172 
Q 1266 1400 1331 2572 
L 1825 2413 
z
" transform="scale(0.015625)"/>
     </defs>
     <use xlink:href="#ArialUnicodeMS-5730"/>
     <use xlink:href="#ArialUnicodeMS-7403" x="100"/>
     <use xlink:href="#ArialUnicodeMS-6807" x="200"/>
     <use xlink:href="#ArialUnicodeMS-51c6" x="300"/>
     <use xlink:href="#ArialUnicodeMS-8d28" x="400"/>
     <use xlink:href="#ArialUnicodeMS-91cf" x="500"/>
    </g>
    <!-- 质量比 ≈ 9.0 -->
    <g style="fill: #262626" transform="translate(343.888798 275.008596) scale(0.1 -0.1)">
     <defs>
      <path id="ArialUnicodeMS-2248" d="M 3384 2822 
Q 3047 2491 2572 2491 
Q 2391 2491 1884 2678 
Q 1338 2881 1125 2881 
Q 728 2881 353 2484 
L 353 3059 
Q 681 3406 1172 3406 
Q 1391 3406 1984 3191 
Q 2478 3016 2631 3016 
Q 3047 3016 3384 3413 
L 3384 2822 
z
M 3384 1434 
Q 3047 1100 2572 1100 
Q 2391 1100 1884 1288 
Q 1338 1491 1125 1491 
Q 728 1491 353 1094 
L 353 1672 
Q 681 2016 1172 2016 
Q 1391 2016 1984 1803 
Q 2478 1625 2631 1625 
Q 3047 1625 3384 2022 
L 3384 1434 
z
" transform="scale(0.015625)"/>
      <path id="ArialUnicodeMS-39" d="M 2713 2156 
Q 2547 1888 2258 1722 
Q 1969 1556 1631 1556 
Q 1066 1556 670 1970 
Q 275 2384 275 3053 
Q 275 3734 678 4168 
Q 1081 4603 1716 4603 
Q 2353 4603 2818 4106 
Q 3284 3609 3284 2388 
Q 3284 1147 2859 534 
Q 2434 -78 1644 -78 
Q 1128 -78 781 205 
Q 434 488 359 1063 
L 897 1106 
Q 1025 384 1656 384 
Q 2175 384 2450 857 
Q 2725 1331 2725 2156 
L 2713 2156 
z
M 1766 2047 
Q 2178 2047 2420 2339 
Q 2663 2631 2663 3078 
Q 2663 3531 2414 3836 
Q 2166 4141 1778 4141 
Q 1388 4141 1119 3817 
Q 850 3494 850 3034 
Q 850 2600 1114 2323 
Q 1378 2047 1766 2047 
z
" transform="scale(0.015625)"/>
     </defs>
     <use xlink:href="#ArialUnicodeMS-8d28"/>
     <use xlink:href="#ArialUnicodeMS-91cf" x="100"/>
     <use xlink:href="#ArialUnicodeMS-6bd4" x="200"/>
     <use xlink:href="#ArialUnicodeMS-20" x="300"/>
     <use xlink:href="#ArialUnicodeMS-2248" x="327.783203"/>
     <use xlink:href="#ArialUnicodeMS-20" x="386.181641"/>
     <use xlink:href="#ArialUnicodeMS-39" x="413.964844"/>
     <use xlink:href="#ArialUnicodeMS-2e" x="469.580078"/>
     <use xlink:href="#ArialUnicodeMS-30" x="497.363281"/>
    </g>
   </g>
   <g id="text_19">
    <!-- 可实现的典型质量比上限 -->
    <g style="fill: #262626" transform="translate(451.19649 193.361625) scale(0.1 -0.1)">
     <defs>
      <path id="ArialUnicodeMS-53ef" d="M 5925 4434 
L 5113 4434 
L 5113 306 
Q 5113 -88 4969 -248 
Q 4825 -409 4678 -409 
L 3700 -409 
L 3513 122 
Q 3706 100 3872 103 
L 4481 116 
Q 4609 116 4609 269 
L 4609 4434 
L 628 4434 
L 628 4922 
L 5925 4922 
L 5925 4434 
z
M 3756 813 
L 3250 813 
L 3250 1288 
L 1925 1288 
L 1925 813 
L 1441 813 
L 1441 3681 
L 3756 3681 
L 3756 813 
z
M 3250 1772 
L 3250 3194 
L 1925 3194 
L 1925 1772 
L 3250 1772 
z
" transform="scale(0.015625)"/>
      <path id="ArialUnicodeMS-5b9e" d="M 5791 3513 
L 5306 3513 
L 5306 4103 
L 1063 4103 
L 1063 3513 
L 575 3513 
L 575 4569 
L 3144 4569 
Q 2956 4859 2547 5094 
L 2913 5325 
Q 3375 5066 3591 4666 
L 3384 4581 
L 3384 4569 
L 5791 4569 
L 5791 3513 
z
M 3122 3066 
L 2741 2803 
Q 2453 3331 1856 3731 
L 2181 4006 
Q 2759 3669 3122 3066 
z
M 5894 1684 
L 3634 1684 
Q 3063 131 831 -366 
L 469 72 
Q 2528 400 3109 1684 
L 469 1684 
L 469 2150 
L 3256 2150 
Q 3366 2500 3366 3022 
L 3366 3903 
L 3847 3903 
Q 3847 2459 3756 2150 
L 5894 2150 
L 5894 1684 
z
M 2450 2478 
L 2100 2188 
Q 1769 2722 1191 3084 
L 1503 3372 
Q 2100 3031 2450 2478 
z
M 5947 -13 
L 5613 -391 
Q 4900 422 3566 1006 
L 3816 1363 
Q 5075 866 5947 -13 
z
" transform="scale(0.015625)"/>
      <path id="ArialUnicodeMS-73b0" d="M 5484 1556 
Q 5263 1538 4997 1550 
L 4997 4575 
L 3297 4575 
L 3297 1563 
L 2809 1563 
L 2809 5044 
L 5484 5044 
L 5484 1556 
z
M 2559 1222 
L 525 659 
L 213 1159 
Q 791 1231 1234 1350 
L 1234 2841 
L 475 2841 
L 475 3309 
L 1234 3309 
L 1234 4353 
L 397 4353 
L 397 4819 
L 2559 4819 
L 2559 4353 
L 1722 4353 
L 1722 3309 
L 2503 3309 
L 2503 2841 
L 1722 2841 
L 1722 1472 
L 2559 1697 
L 2559 1222 
z
M 4384 4244 
Q 4434 2706 3982 1523 
Q 3531 341 2100 -378 
L 1722 19 
Q 2313 288 2708 588 
Q 3103 888 3404 1466 
Q 3706 2044 3804 2667 
Q 3903 3291 3903 4288 
L 4384 4244 
z
M 5953 691 
Q 5788 -153 5447 -153 
L 4666 -153 
Q 4506 -153 4368 -12 
Q 4231 128 4231 300 
L 4231 2016 
L 4716 2016 
L 4716 384 
Q 4744 313 4838 313 
L 5319 313 
Q 5341 319 5400 461 
Q 5459 603 5459 609 
L 5484 922 
L 5953 691 
z
" transform="scale(0.015625)"/>
      <path id="ArialUnicodeMS-7684" d="M 5644 4281 
Q 5619 1694 5395 673 
Q 5172 -347 4606 -347 
Q 4350 -347 3609 -134 
L 3525 403 
Q 4247 134 4531 134 
Q 4806 134 4976 1142 
Q 5147 2150 5159 3841 
L 3794 3841 
Q 3550 3166 3053 2497 
L 2719 2713 
L 2719 -147 
L 2216 -147 
L 2216 269 
L 1153 269 
L 1153 -250 
L 647 -250 
L 647 4184 
L 1234 4184 
Q 1494 4644 1625 5313 
L 2088 5125 
Q 1903 4444 1741 4184 
L 2719 4184 
L 2719 2881 
Q 3431 3888 3681 5363 
L 4191 5247 
Q 4106 4869 3916 4281 
L 5644 4281 
z
M 2216 2484 
L 2216 3719 
L 1153 3719 
L 1153 2484 
L 2216 2484 
z
M 2216 738 
L 2216 2016 
L 1153 2016 
L 1153 738 
L 2216 738 
z
M 4775 1369 
L 4313 1166 
Q 4034 1925 3444 2669 
L 3841 2931 
Q 4484 2191 4775 1369 
z
" transform="scale(0.015625)"/>
      <path id="ArialUnicodeMS-5178" d="M 5966 1306 
L 506 1306 
L 506 1772 
L 1056 1772 
L 1056 4525 
L 2344 4525 
L 2344 5319 
L 2828 5319 
L 2828 4525 
L 3609 4525 
L 3609 5331 
L 4097 5331 
L 4097 4525 
L 5409 4525 
L 5409 1772 
L 5966 1772 
L 5966 1306 
z
M 4922 3188 
L 4922 4056 
L 4097 4056 
L 4097 3188 
L 4922 3188 
z
M 3609 3188 
L 3609 4056 
L 2828 4056 
L 2828 3188 
L 3609 3188 
z
M 2344 3188 
L 2344 4056 
L 1544 4056 
L 1544 3188 
L 2344 3188 
z
M 4922 1772 
L 4922 2719 
L 4097 2719 
L 4097 1772 
L 4922 1772 
z
M 3609 1772 
L 3609 2719 
L 2828 2719 
L 2828 1772 
L 3609 1772 
z
M 2344 1772 
L 2344 2719 
L 1544 2719 
L 1544 1772 
L 2344 1772 
z
M 2772 844 
Q 2019 -34 709 -453 
L 331 -50 
Q 947 84 1548 428 
Q 2150 772 2438 1172 
L 2772 844 
z
M 6034 -72 
L 5703 -434 
Q 4772 466 3578 806 
L 3916 1153 
Q 4934 916 6034 -72 
z
" transform="scale(0.015625)"/>
      <path id="ArialUnicodeMS-578b" d="M 5606 2303 
Q 5606 1791 5172 1791 
L 4409 1791 
L 4206 2278 
Q 4641 2253 4716 2259 
L 5019 2278 
Q 5119 2288 5119 2456 
L 5119 5294 
L 5606 5294 
L 5606 2303 
z
M 4019 3188 
L 3284 3188 
L 3284 1906 
L 2797 1906 
L 2797 3188 
L 1925 3188 
Q 1897 2078 744 1550 
L 378 1894 
Q 922 2128 1201 2484 
Q 1481 2841 1453 3188 
L 609 3188 
L 609 3653 
L 1447 3653 
L 1447 4525 
L 756 4525 
L 756 4991 
L 3828 4991 
L 3828 4525 
L 3284 4525 
L 3284 3653 
L 4019 3653 
L 4019 3188 
z
M 2797 3653 
L 2797 4525 
L 1931 4525 
L 1931 3653 
L 2797 3653 
z
M 4603 2606 
L 4116 2606 
L 4116 4891 
L 4603 4891 
L 4603 2606 
z
M 6100 -159 
L 378 -159 
L 378 313 
L 2969 313 
L 2969 878 
L 984 878 
L 984 1344 
L 2969 1344 
L 2969 1778 
L 3456 1778 
L 3456 1344 
L 5472 1344 
L 5472 878 
L 3456 878 
L 3456 313 
L 6100 313 
L 6100 -159 
z
" transform="scale(0.015625)"/>
      <path id="ArialUnicodeMS-4e0a" d="M 5931 63 
L 588 63 
L 588 531 
L 2688 531 
L 2688 5209 
L 3175 5209 
L 3175 3353 
L 5369 3353 
L 5369 2888 
L 3175 2888 
L 3175 531 
L 5931 531 
L 5931 63 
z
" transform="scale(0.015625)"/>
      <path id="ArialUnicodeMS-9650" d="M 1991 3263 
Q 2597 2684 2597 2075 
Q 2597 1563 2301 1334 
Q 2006 1106 1747 1106 
Q 1641 1106 1409 1141 
L 1294 1672 
Q 1609 1594 1753 1594 
Q 2125 1594 2125 2016 
Q 2125 2588 1447 3181 
Q 1903 4238 2009 4609 
L 1216 4609 
L 1216 -391 
L 728 -391 
L 728 5088 
L 2528 5088 
L 2528 4616 
L 1991 3263 
z
M 6047 44 
L 5753 -359 
Q 4978 -38 4504 692 
Q 4031 1422 3956 2316 
L 3272 2316 
L 3272 341 
L 4294 641 
L 4294 153 
L 2388 -384 
L 2150 78 
L 2784 231 
L 2784 5075 
L 5497 5075 
L 5497 2316 
L 4416 2316 
Q 4469 1834 4653 1388 
L 5594 2216 
L 5959 1881 
Q 5622 1544 4872 997 
Q 5216 406 6047 44 
z
M 5013 3950 
L 5013 4609 
L 3272 4609 
L 3272 3950 
L 5013 3950 
z
M 5013 2778 
L 5013 3481 
L 3272 3481 
L 3272 2778 
L 5013 2778 
z
" transform="scale(0.015625)"/>
     </defs>
     <use xlink:href="#ArialUnicodeMS-53ef"/>
     <use xlink:href="#ArialUnicodeMS-5b9e" x="100"/>
     <use xlink:href="#ArialUnicodeMS-73b0" x="200"/>
     <use xlink:href="#ArialUnicodeMS-7684" x="300"/>
     <use xlink:href="#ArialUnicodeMS-5178" x="400"/>
     <use xlink:href="#ArialUnicodeMS-578b" x="500"/>
     <use xlink:href="#ArialUnicodeMS-8d28" x="600"/>
     <use xlink:href="#ArialUnicodeMS-91cf" x="700"/>
     <use xlink:href="#ArialUnicodeMS-6bd4" x="800"/>
     <use xlink:href="#ArialUnicodeMS-4e0a" x="900"/>
     <use xlink:href="#ArialUnicodeMS-9650" x="1000"/>
    </g>
   </g>
   <g id="text_20">
    <!-- 质量限制点 -->
    <g style="fill: #262626" transform="translate(569.234952 86.466562) scale(0.1 -0.1)">
     <defs>
      <path id="ArialUnicodeMS-5236" d="M 4184 2766 
L 2638 2766 
L 2638 2203 
L 3988 2203 
L 3988 775 
Q 3959 578 3812 459 
Q 3666 341 3477 333 
Q 3288 325 3003 325 
L 2841 806 
L 3366 781 
Q 3500 819 3500 891 
L 3500 1734 
L 2638 1734 
L 2638 -434 
L 2150 -434 
L 2150 1734 
L 1344 1734 
L 1344 263 
L 856 263 
L 856 2203 
L 2150 2203 
L 2150 2766 
L 494 2766 
L 494 3231 
L 2150 3231 
L 2150 3897 
L 1428 3897 
Q 1163 3428 1044 3309 
L 603 3531 
Q 1059 4038 1319 5050 
L 1741 4884 
Q 1722 4716 1606 4341 
L 2150 4341 
L 2150 5350 
L 2638 5350 
L 2638 4341 
L 3841 4341 
L 3841 3897 
L 2638 3897 
L 2638 3231 
L 4184 3231 
L 4184 2766 
z
M 5850 213 
Q 5850 -81 5719 -234 
Q 5588 -388 5228 -397 
L 4653 -409 
L 4488 84 
Q 4997 38 5106 38 
Q 5363 38 5363 231 
L 5363 5306 
L 5850 5306 
L 5850 213 
z
M 4863 909 
L 4378 909 
L 4378 4513 
L 4863 4513 
L 4863 909 
z
" transform="scale(0.015625)"/>
      <path id="ArialUnicodeMS-70b9" d="M 5522 4225 
L 3213 4225 
L 3213 3597 
L 4972 3597 
L 4972 1459 
L 1338 1459 
L 1338 3597 
L 2725 3597 
L 2725 5313 
L 3213 5313 
L 3213 4666 
L 5522 4666 
L 5522 4225 
z
M 4513 1900 
L 4513 3156 
L 1825 3156 
L 1825 1900 
L 4513 1900 
z
M 6081 -56 
L 5619 -325 
Q 5188 509 4544 1031 
L 4922 1288 
Q 5672 631 6081 -56 
z
M 1856 1044 
Q 1550 141 763 -453 
L 319 -91 
Q 1059 356 1447 1247 
L 1850 1044 
L 1856 1044 
z
M 4538 -109 
L 4072 -288 
Q 3759 481 3272 997 
L 3681 1197 
Q 4216 653 4538 -109 
z
M 3200 -134 
L 2700 -275 
Q 2519 444 2047 1013 
L 2463 1184 
Q 2925 600 3200 -134 
z
" transform="scale(0.015625)"/>
     </defs>
     <use xlink:href="#ArialUnicodeMS-8d28"/>
     <use xlink:href="#ArialUnicodeMS-91cf" x="100"/>
     <use xlink:href="#ArialUnicodeMS-9650" x="200"/>
     <use xlink:href="#ArialUnicodeMS-5236" x="300"/>
     <use xlink:href="#ArialUnicodeMS-70b9" x="400"/>
    </g>
    <!-- 火箭无法入轨 -->
    <g style="fill: #262626" transform="translate(569.234952 97.265625) scale(0.1 -0.1)">
     <defs>
      <path id="ArialUnicodeMS-706b" d="M 5881 128 
L 5563 -372 
Q 4475 172 3995 709 
Q 3516 1247 3194 2094 
Q 3025 1338 2389 661 
Q 1753 -16 825 -422 
L 544 25 
Q 1866 672 2377 1462 
Q 2888 2253 2888 3378 
L 2888 5216 
L 3378 5216 
L 3378 3297 
Q 3378 2656 4000 1592 
Q 4622 528 5881 128 
z
M 5288 4178 
Q 5103 3100 4500 2363 
L 4000 2572 
Q 4625 3172 4838 4403 
L 5288 4178 
z
M 2150 4159 
Q 1928 2984 1356 2375 
L 878 2597 
Q 1534 3238 1691 4366 
L 2150 4159 
z
" transform="scale(0.015625)"/>
      <path id="ArialUnicodeMS-7bad" d="M 3372 4391 
L 2584 4391 
L 2584 4384 
Q 2859 4184 2950 4025 
Q 2666 3863 2491 3794 
Q 2328 4225 2053 4391 
L 1588 4391 
Q 1394 4025 831 3584 
Q 641 3691 384 3884 
Q 1369 4588 1441 5472 
Q 1475 5469 1888 5281 
Q 1888 5091 1778 4856 
L 3372 4856 
L 3372 4391 
z
M 6125 3003 
L 409 3003 
L 409 3469 
L 2150 3469 
Q 2009 3681 1581 3938 
Q 1747 4013 2069 4172 
Q 2438 3916 2644 3469 
L 3750 3469 
Q 4106 3756 4263 4172 
L 4684 3969 
L 4697 3981 
Q 4572 4197 4341 4391 
L 3981 4391 
Q 3763 4019 3406 3688 
Q 3369 3697 2919 3956 
Q 3744 4591 3841 5416 
Q 4025 5363 4281 5241 
Q 4259 4984 4206 4856 
L 5984 4856 
L 5984 4391 
L 4953 4391 
Q 5088 4238 5234 3944 
Q 4984 3797 4800 3725 
Q 4766 3838 4709 3938 
Q 4628 3734 4378 3469 
L 6125 3469 
L 6125 3003 
z
M 5528 441 
Q 5528 -116 5326 -244 
Q 5125 -372 4928 -372 
L 4525 -372 
L 4366 122 
Q 4672 131 4858 147 
Q 5044 163 5044 275 
L 5044 2828 
L 5528 2828 
L 5528 441 
z
M 3322 250 
Q 3322 125 3256 12 
Q 3191 -100 3080 -176 
Q 2969 -253 2763 -263 
L 2247 -281 
Q 2156 -59 2075 191 
Q 2834 256 2834 275 
L 2834 659 
L 1497 659 
L 1497 -372 
L 1013 -372 
L 1013 2700 
L 3322 2700 
L 3322 250 
z
M 2834 1919 
L 2834 2234 
L 1497 2234 
L 1497 1919 
L 2834 1919 
z
M 2834 1125 
L 2834 1453 
L 1497 1453 
L 1497 1125 
L 2834 1125 
z
M 4422 416 
L 3938 416 
L 3938 2509 
L 4422 2509 
L 4422 416 
z
" transform="scale(0.015625)"/>
      <path id="ArialUnicodeMS-65e0" d="M 5972 2606 
L 3150 2606 
Q 2875 1481 2322 790 
Q 1769 100 838 -378 
L 453 19 
Q 2113 709 2631 2606 
L 416 2606 
L 416 3072 
L 2725 3072 
Q 2791 3344 2791 3622 
L 2791 4500 
L 703 4500 
L 703 4984 
L 5434 4984 
L 5434 4500 
L 3309 4500 
L 3309 3628 
Q 3309 3428 3256 3072 
L 5972 3072 
L 5972 2606 
z
M 6041 1119 
Q 5841 209 5630 50 
Q 5419 -109 5234 -109 
L 3928 -109 
Q 3669 -47 3559 109 
Q 3450 266 3450 391 
L 3450 2328 
L 3938 2328 
L 3938 550 
Q 3938 450 4005 404 
Q 4072 359 4122 359 
L 5159 359 
Q 5300 359 5390 604 
Q 5481 850 5569 1356 
L 6041 1119 
z
" transform="scale(0.015625)"/>
      <path id="ArialUnicodeMS-6cd5" d="M 6047 -103 
L 5600 -366 
Q 5428 69 5288 244 
L 2266 -31 
L 2041 475 
L 2772 506 
Q 3134 1244 3456 2188 
L 2041 2188 
L 2041 2656 
L 3719 2656 
L 3719 3738 
L 2394 3738 
L 2394 4206 
L 3719 4206 
L 3719 5253 
L 4206 5253 
L 4206 4206 
L 5538 4206 
L 5538 3738 
L 4206 3738 
L 4206 2656 
L 5894 2656 
L 5894 2188 
L 3975 2188 
Q 3681 1241 3291 531 
L 5013 653 
Q 4669 1025 4325 1228 
L 4738 1472 
Q 5541 953 6047 -103 
z
M 2284 4166 
L 1941 3822 
Q 1597 4384 838 4703 
L 1141 5031 
Q 1869 4756 2284 4166 
z
M 1888 2772 
L 1550 2425 
Q 1203 3003 409 3291 
L 738 3609 
Q 1547 3316 1888 2772 
z
M 2169 1753 
Q 1872 553 978 -378 
L 544 -84 
Q 1469 878 1753 1925 
L 2169 1753 
z
" transform="scale(0.015625)"/>
      <path id="ArialUnicodeMS-5165" d="M 5972 184 
L 5663 -238 
Q 3931 872 3406 2478 
Q 2675 722 844 -244 
L 544 178 
Q 1822 844 2483 1855 
Q 3144 2866 3144 3194 
L 3128 4453 
L 1991 4453 
L 1991 4922 
L 3609 4922 
L 3603 4575 
Q 3575 3106 4158 2050 
Q 4741 994 5972 184 
z
" transform="scale(0.015625)"/>
      <path id="ArialUnicodeMS-8f68" d="M 6016 978 
Q 6009 734 5907 337 
Q 5806 -59 5676 -153 
Q 5547 -247 5272 -247 
Q 4975 -247 4859 -108 
Q 4744 31 4744 300 
L 4744 1528 
L 4800 3334 
L 4256 3334 
Q 4256 1881 3976 1073 
Q 3697 266 2925 -500 
L 2528 -153 
Q 3375 659 3581 1451 
Q 3788 2244 3788 3334 
L 3028 3334 
L 3028 3803 
L 3794 3803 
L 3794 5300 
L 4250 5300 
L 4250 3803 
L 5319 3803 
L 5228 2272 
L 5228 428 
Q 5228 356 5234 309 
Q 5241 263 5256 245 
Q 5272 228 5375 228 
Q 5450 228 5472 233 
Q 5494 238 5531 533 
Q 5569 828 5575 1147 
L 6016 978 
z
M 3303 1319 
L 2278 997 
L 2278 -469 
L 1791 -469 
L 1791 850 
L 684 525 
L 428 978 
Q 941 1094 1791 1338 
L 1791 2150 
L 653 2150 
L 653 2619 
Q 1063 3325 1216 3950 
L 441 3950 
L 441 4416 
L 1306 4416 
Q 1366 4634 1434 5275 
L 1894 5141 
Q 1881 4822 1797 4416 
L 3303 4416 
L 3303 3950 
L 1709 3950 
Q 1531 3253 1178 2638 
L 1791 2638 
L 1791 3578 
L 2278 3578 
L 2278 2638 
L 3194 2638 
L 3194 2150 
L 2278 2150 
L 2278 1491 
L 3303 1791 
L 3303 1319 
z
" transform="scale(0.015625)"/>
     </defs>
     <use xlink:href="#ArialUnicodeMS-706b"/>
     <use xlink:href="#ArialUnicodeMS-7bad" x="100"/>
     <use xlink:href="#ArialUnicodeMS-65e0" x="200"/>
     <use xlink:href="#ArialUnicodeMS-6cd5" x="300"/>
     <use xlink:href="#ArialUnicodeMS-5165" x="400"/>
     <use xlink:href="#ArialUnicodeMS-8f68" x="500"/>
    </g>
   </g>
   <g id="text_21">
    <g id="patch_8">
     <path d="M 55.463413 81.938687 
L 165.643413 81.938687 
L 165.643413 49.738687 
L 55.463413 49.738687 
z
" style="fill: #ffffff; opacity: 0.8; stroke: #000000; stroke-linejoin: miter"/>
    </g>
    <!-- $r_m = e^{\frac{\Delta v}{v_e}} = e^{\frac{\sqrt{\frac{GM}{R+h}}}{v_e}}$ -->
    <g style="fill: #262626" transform="translate(59.523413 75.089625) scale(0.14 -0.14)">
     <defs>
      <path id="DejaVuSans-Oblique-65" d="M 3078 2063 
Q 3088 2113 3092 2166 
Q 3097 2219 3097 2272 
Q 3097 2653 2873 2875 
Q 2650 3097 2266 3097 
Q 1838 3097 1509 2826 
Q 1181 2556 1013 2059 
L 3078 2063 
z
M 3578 1613 
L 903 1613 
Q 884 1494 878 1425 
Q 872 1356 872 1306 
Q 872 872 1139 634 
Q 1406 397 1894 397 
Q 2269 397 2603 481 
Q 2938 566 3225 728 
L 3116 159 
Q 2806 34 2476 -28 
Q 2147 -91 1806 -91 
Q 1078 -91 686 257 
Q 294 606 294 1247 
Q 294 1794 489 2264 
Q 684 2734 1063 3103 
Q 1306 3334 1642 3459 
Q 1978 3584 2356 3584 
Q 2950 3584 3301 3228 
Q 3653 2872 3653 2272 
Q 3653 2128 3634 1964 
Q 3616 1800 3578 1613 
z
" transform="scale(0.015625)"/>
      <path id="DejaVuSans-394" d="M 2188 4044 
L 906 525 
L 3472 525 
L 2188 4044 
z
M 50 0 
L 1831 4666 
L 2547 4666 
L 4325 0 
L 50 0 
z
" transform="scale(0.015625)"/>
      <path id="DejaVuSans-Oblique-76" d="M 459 3500 
L 1069 3500 
L 1581 525 
L 3256 3500 
L 3866 3500 
L 1875 0 
L 1100 0 
L 459 3500 
z
" transform="scale(0.015625)"/>
      <path id="STIXSizeOneSym-Regular-221a" d="M 6970 9933 
L 3373 -1888 
L 3104 -1888 
L 1626 2918 
Q 1555 3149 1465 3251 
Q 1376 3354 1229 3354 
Q 1011 3354 794 3181 
L 717 3309 
L 1766 4115 
L 1926 4115 
L 3379 -602 
L 3405 -602 
L 6605 9933 
L 6970 9933 
z
" transform="scale(0.015625)"/>
      <path id="DejaVuSans-Oblique-47" d="M 3494 697 
L 3738 1919 
L 2700 1919 
L 2797 2438 
L 4453 2438 
L 4050 384 
Q 3634 156 3143 32 
Q 2653 -91 2156 -91 
Q 1278 -91 783 396 
Q 288 884 288 1753 
Q 288 2475 589 3126 
Q 891 3778 1422 4213 
Q 1756 4484 2153 4617 
Q 2550 4750 3034 4750 
Q 3472 4750 3873 4639 
Q 4275 4528 4641 4306 
L 4513 3634 
Q 4231 3928 3853 4083 
Q 3475 4238 3047 4238 
Q 2550 4238 2172 4048 
Q 1794 3859 1497 3463 
Q 1244 3125 1098 2667 
Q 953 2209 953 1734 
Q 953 1081 1287 751 
Q 1622 422 2284 422 
Q 2616 422 2925 492 
Q 3234 563 3494 697 
z
" transform="scale(0.015625)"/>
      <path id="DejaVuSans-Oblique-52" d="M 1613 4147 
L 1294 2491 
L 2106 2491 
Q 2584 2491 2879 2755 
Q 3175 3019 3175 3444 
Q 3175 3784 2976 3965 
Q 2778 4147 2406 4147 
L 1613 4147 
z
M 2772 2241 
Q 2972 2194 3105 2009 
Q 3238 1825 3413 1275 
L 3809 0 
L 3144 0 
L 2778 1197 
Q 2638 1659 2453 1815 
Q 2269 1972 1888 1972 
L 1191 1972 
L 806 0 
L 172 0 
L 1081 4666 
L 2503 4666 
Q 3150 4666 3495 4373 
Q 3841 4081 3841 3531 
Q 3841 3044 3547 2687 
Q 3253 2331 2772 2241 
z
" transform="scale(0.015625)"/>
      <path id="DejaVuSans-2b" d="M 2944 4013 
L 2944 2272 
L 4684 2272 
L 4684 1741 
L 2944 1741 
L 2944 0 
L 2419 0 
L 2419 1741 
L 678 1741 
L 678 2272 
L 2419 2272 
L 2419 4013 
L 2944 4013 
z
" transform="scale(0.015625)"/>
     </defs>
     <use xlink:href="#DejaVuSans-Oblique-72" transform="translate(0 0.494688)"/>
     <use xlink:href="#DejaVuSans-Oblique-6d" transform="translate(41.113281 -15.911562) scale(0.7)"/>
     <use xlink:href="#DejaVuSans-3d" transform="translate(131.518555 0.494688)"/>
     <use xlink:href="#DejaVuSans-Oblique-65" transform="translate(234.790039 0.494688)"/>
     <use xlink:href="#DejaVuSans-394" transform="translate(300.963372 69.43375) scale(0.49)"/>
     <use xlink:href="#DejaVuSans-Oblique-76" transform="translate(334.483392 69.43375) scale(0.49)"/>
     <use xlink:href="#DejaVuSans-Oblique-76" transform="translate(306.963372 20.761875) scale(0.49)"/>
     <use xlink:href="#DejaVuSans-Oblique-65" transform="translate(335.961419 12.722813) scale(0.343)"/>
     <use xlink:href="#DejaVuSans-3d" transform="translate(394.448236 0.494688)"/>
     <use xlink:href="#DejaVuSans-Oblique-65" transform="translate(497.71972 0.494688)"/>
     <use xlink:href="#STIXSizeOneSym-Regular-221a" transform="translate(563.893053 82.633125) scale(0.447379)"/>
     <use xlink:href="#DejaVuSans-Oblique-47" transform="translate(633.303442 111.480469) scale(0.343)"/>
     <use xlink:href="#DejaVuSans-Oblique-4d" transform="translate(659.882593 111.480469) scale(0.343)"/>
     <use xlink:href="#DejaVuSans-Oblique-52" transform="translate(617.303442 69.617625) scale(0.343)"/>
     <use xlink:href="#DejaVuSans-2b" transform="translate(647.818384 69.617625) scale(0.343)"/>
     <use xlink:href="#DejaVuSans-Oblique-68" transform="translate(683.240503 69.617625) scale(0.343)"/>
     <use xlink:href="#DejaVuSans-Oblique-76" transform="translate(614.893053 20.761875) scale(0.49)"/>
     <use xlink:href="#DejaVuSans-Oblique-65" transform="translate(643.8911 12.722813) scale(0.343)"/>
     <path d="M 300.963372 51.93375 
L 300.963372 56.30875 
L 363.481439 56.30875 
L 363.481439 51.93375 
L 300.963372 51.93375 
z
"/>
     <path d="M 611.178442 148.875 
L 611.178442 151.9375 
L 717.229468 151.9375 
L 717.229468 148.875 
L 611.178442 148.875 
z
"/>
     <path d="M 617.303442 98.742766 
L 617.303442 101.805266 
L 704.979468 101.805266 
L 704.979468 98.742766 
L 617.303442 98.742766 
z
"/>
     <path d="M 563.893053 51.93375 
L 563.893053 56.30875 
L 717.229468 56.30875 
L 717.229468 51.93375 
L 563.893053 51.93375 
z
"/>
    </g>
   </g>
   <g id="text_22">
    <!-- 火箭质量比与行星质量的关系 -->
    <g style="fill: #262626" transform="translate(226.061875 17.345625) scale(0.14 -0.14)">
     <defs>
      <path id="ArialUnicodeMS-4e0e" d="M 5953 3916 
L 1881 3916 
L 1784 3028 
L 5153 3028 
L 5081 1734 
L 5919 1734 
L 5919 1234 
L 5050 1234 
Q 4984 100 4750 -154 
Q 4516 -409 4159 -409 
Q 3856 -409 3225 -269 
L 3144 300 
Q 3863 103 4091 103 
Q 4253 103 4348 201 
Q 4444 300 4487 711 
Q 4531 1122 4531 1234 
L 434 1234 
L 434 1734 
L 4569 1734 
Q 4597 2088 4609 2509 
L 1728 2509 
L 1672 2069 
L 1172 2113 
L 1528 5281 
L 2041 5228 
L 1947 4428 
L 5953 4428 
L 5953 3916 
z
" transform="scale(0.015625)"/>
      <path id="ArialUnicodeMS-5173" d="M 5881 -38 
L 5516 -397 
Q 4691 -63 4152 460 
Q 3613 984 3244 1941 
L 3156 1941 
Q 2881 1134 2139 467 
Q 1397 -200 575 -397 
L 244 -13 
Q 1122 272 1767 803 
Q 2413 1334 2644 1941 
L 366 1941 
L 366 2406 
L 2759 2406 
Q 2784 2628 2784 3525 
L 738 3525 
L 738 3969 
L 2222 3969 
Q 1884 4613 1441 5106 
L 1838 5306 
Q 2359 4784 2747 3969 
L 3378 3969 
Q 3725 4450 4072 5319 
L 4519 5119 
Q 4209 4425 3903 3969 
L 5441 3969 
L 5441 3525 
L 3272 3525 
Q 3253 2594 3231 2406 
L 5819 2406 
L 5819 1941 
L 3781 1941 
Q 4272 669 5881 -38 
z
" transform="scale(0.015625)"/>
      <path id="ArialUnicodeMS-7cfb" d="M 5819 1625 
L 5422 1313 
Q 5166 1669 5094 1741 
L 3475 1741 
L 3475 -409 
L 2969 -409 
L 2969 1741 
L 972 1741 
L 872 2209 
L 1778 2209 
Q 2222 2434 2613 2753 
L 1159 3406 
L 1422 3822 
L 1875 3616 
Q 2391 3944 2797 4378 
Q 1788 4269 850 4256 
L 647 4744 
Q 3603 4766 5234 5331 
L 5575 4922 
Q 4509 4569 3231 4428 
L 3431 4300 
Q 2878 3759 2316 3406 
L 3047 3059 
Q 3881 3666 4469 4263 
L 4897 3956 
Q 3697 2856 2572 2209 
L 4703 2209 
Q 4344 2522 4050 2700 
L 4441 2950 
Q 5266 2481 5819 1625 
z
M 2444 1228 
Q 1816 372 716 -84 
L 397 313 
Q 1453 709 2053 1538 
L 2444 1228 
z
M 6028 300 
L 5697 -97 
Q 4938 747 4025 1119 
L 4319 1472 
Q 5294 1069 6028 300 
z
" transform="scale(0.015625)"/>
     </defs>
     <use xlink:href="#ArialUnicodeMS-706b"/>
     <use xlink:href="#ArialUnicodeMS-7bad" x="100"/>
     <use xlink:href="#ArialUnicodeMS-8d28" x="200"/>
     <use xlink:href="#ArialUnicodeMS-91cf" x="300"/>
     <use xlink:href="#ArialUnicodeMS-6bd4" x="400"/>
     <use xlink:href="#ArialUnicodeMS-4e0e" x="500"/>
     <use xlink:href="#ArialUnicodeMS-884c" x="600"/>
     <use xlink:href="#ArialUnicodeMS-661f" x="700"/>
     <use xlink:href="#ArialUnicodeMS-8d28" x="800"/>
     <use xlink:href="#ArialUnicodeMS-91cf" x="900"/>
     <use xlink:href="#ArialUnicodeMS-7684" x="1000"/>
     <use xlink:href="#ArialUnicodeMS-5173" x="1100"/>
     <use xlink:href="#ArialUnicodeMS-7cfb" x="1200"/>
    </g>
   </g>
   <g id="legend_1">
    <g id="patch_9">
     <path d="M 469.061875 39.503437 
L 489.061875 39.503437 
L 489.061875 32.503437 
L 469.061875 32.503437 
z
" style="fill: url(#h3efa51999a); fill-opacity: 0.5; stroke: #808080; stroke-opacity: 0.5; stroke-linejoin: miter"/>
    </g>
    <g id="text_23">
     <!-- 技术上难以实现区域 -->
     <g style="fill: #262626" transform="translate(497.061875 39.503437) scale(0.1 -0.1)">
      <defs>
       <path id="ArialUnicodeMS-6280" d="M 6094 13 
L 5784 -416 
Q 4853 -147 4109 475 
Q 3300 -175 2463 -441 
L 2100 -19 
Q 3113 263 3756 813 
Q 3278 1322 2931 2291 
L 2619 2291 
L 2619 2759 
L 3834 2759 
L 3834 3816 
L 2534 3816 
L 2534 4281 
L 3834 4281 
L 3834 5275 
L 4319 5275 
L 4319 4281 
L 5797 4281 
L 5797 3816 
L 4319 3816 
L 4319 2759 
L 5441 2759 
Q 5325 1734 4453 806 
Q 4969 350 6094 13 
z
M 4850 2291 
L 3450 2291 
Q 3784 1463 4122 1131 
Q 4650 1672 4850 2291 
z
M 2516 2094 
L 1813 1831 
L 1813 31 
Q 1813 -200 1677 -337 
Q 1541 -475 1313 -475 
L 781 -475 
L 544 56 
Q 766 0 1025 0 
Q 1325 0 1325 172 
L 1325 1638 
L 563 1356 
L 238 1766 
L 1325 2144 
L 1325 3547 
L 469 3547 
L 469 4013 
L 1325 4013 
L 1325 5247 
L 1813 5247 
L 1813 4013 
L 2472 4013 
L 2472 3547 
L 1813 3547 
L 1813 2328 
L 2516 2578 
L 2516 2094 
z
" transform="scale(0.015625)"/>
       <path id="ArialUnicodeMS-672f" d="M 6059 494 
L 5716 103 
Q 5100 413 4472 1198 
Q 3844 1984 3513 3291 
L 3372 3291 
L 3372 -441 
L 2888 -441 
L 2888 3291 
L 2747 3291 
Q 2241 1028 563 109 
L 219 481 
Q 1775 1356 2278 3291 
L 391 3291 
L 391 3756 
L 2888 3756 
L 2888 5216 
L 3372 5216 
L 3372 3756 
L 5850 3756 
L 5850 3291 
L 3975 3291 
Q 4609 1278 6059 494 
z
M 5125 4159 
L 4750 3859 
Q 4403 4409 3744 4738 
L 4056 5050 
Q 4722 4747 5125 4159 
z
" transform="scale(0.015625)"/>
       <path id="ArialUnicodeMS-96be" d="M 5966 97 
L 3309 97 
L 3309 -391 
L 2822 -391 
L 2822 2681 
L 2816 2681 
Q 2700 2400 2497 2175 
L 2144 2584 
Q 2788 3400 3144 5275 
L 3584 5159 
Q 3475 4572 3372 4213 
L 5869 4213 
L 5869 3744 
L 4678 3744 
L 4678 3003 
L 5766 3003 
L 5766 2534 
L 4678 2534 
L 4678 1791 
L 5766 1791 
L 5766 1325 
L 4678 1325 
L 4678 563 
L 5966 563 
L 5966 97 
z
M 4191 3003 
L 4191 3744 
L 3309 3744 
L 3309 3003 
L 4191 3003 
z
M 4191 1791 
L 4191 2534 
L 3309 2534 
L 3309 1791 
L 4191 1791 
z
M 4191 563 
L 4191 1325 
L 3309 1325 
L 3309 563 
L 4191 563 
z
M 4838 4513 
L 4481 4250 
Q 4216 4684 3781 4997 
L 4103 5253 
Q 4584 4963 4838 4513 
z
M 2597 525 
L 2156 263 
Q 1984 1025 1734 1497 
Q 1325 509 775 0 
L 603 -159 
L 256 191 
Q 1041 959 1447 2016 
Q 925 2841 475 3309 
L 825 3572 
Q 1300 3109 1600 2675 
Q 1713 3038 1881 3981 
L 441 3981 
L 441 4447 
L 2425 4447 
Q 2359 3491 1959 2069 
Q 2384 1328 2597 525 
z
" transform="scale(0.015625)"/>
       <path id="ArialUnicodeMS-4ee5" d="M 6047 147 
L 5631 -197 
Q 5091 731 4281 1319 
Q 3578 366 2375 -331 
L 2069 122 
Q 2797 494 3337 1031 
Q 3878 1569 4162 2219 
Q 4447 2869 4489 3445 
Q 4531 4022 4531 5131 
L 5056 5131 
L 5031 3744 
Q 5013 2603 4538 1753 
Q 5453 1138 6047 147 
z
M 3284 1797 
Q 2700 1441 738 397 
L 422 844 
L 1222 1253 
L 1222 4922 
L 1741 4922 
L 1741 1528 
L 3284 2363 
L 3284 1797 
z
M 3794 3456 
L 3450 3034 
Q 2956 3678 2100 4044 
L 2438 4397 
Q 3163 4144 3794 3456 
z
" transform="scale(0.015625)"/>
       <path id="ArialUnicodeMS-533a" d="M 5972 0 
L 1338 0 
L 1338 -366 
L 850 -366 
L 850 5019 
L 5759 5019 
L 5759 4556 
L 1338 4556 
L 1338 459 
L 5972 459 
L 5972 0 
z
M 5306 884 
L 4884 603 
Q 4438 1400 3738 2188 
Q 3166 1381 2034 563 
L 1656 972 
Q 2756 1659 3413 2566 
Q 2728 3316 1766 4050 
L 2131 4353 
Q 3106 3594 3681 2981 
Q 4172 3675 4550 4372 
L 4959 4147 
Q 4759 3738 4025 2613 
Q 4841 1750 5306 884 
z
" transform="scale(0.015625)"/>
       <path id="ArialUnicodeMS-57df" d="M 6175 800 
Q 5988 -28 5825 -234 
Q 5663 -441 5481 -441 
Q 5303 -441 5142 -247 
Q 4981 -53 4703 550 
Q 4275 31 3675 -372 
L 3250 -72 
Q 4094 478 4525 1106 
Q 4256 2000 4159 3891 
L 2003 3891 
L 2003 4359 
L 4116 4359 
L 4116 5344 
L 4603 5344 
L 4603 4359 
L 5113 4359 
Q 5047 4644 4641 4972 
L 5141 5131 
Q 5447 4794 5581 4359 
L 5972 4359 
L 5972 3891 
L 4628 3891 
Q 4703 2709 4878 1728 
Q 5213 2294 5241 3559 
L 5697 3450 
Q 5688 2169 5056 1025 
Q 5134 772 5284 469 
Q 5434 166 5484 166 
Q 5538 166 5613 477 
Q 5688 788 5709 1094 
L 6175 800 
z
M 2284 1025 
L 594 300 
L 231 678 
L 1113 1031 
L 1113 2981 
L 391 2981 
L 391 3450 
L 1113 3450 
L 1113 4953 
L 1600 4953 
L 1600 3450 
L 2234 3450 
L 2234 2981 
L 1600 2981 
L 1600 1209 
L 2284 1528 
L 2284 1025 
z
M 3988 1491 
L 2375 1491 
L 2375 3378 
L 3988 3378 
L 3988 1491 
z
M 3500 1959 
L 3500 2913 
L 2859 2913 
L 2859 1959 
L 3500 1959 
z
M 4184 819 
L 2203 141 
L 1913 569 
L 4184 1313 
L 4184 819 
z
" transform="scale(0.015625)"/>
      </defs>
      <use xlink:href="#ArialUnicodeMS-6280"/>
      <use xlink:href="#ArialUnicodeMS-672f" x="100"/>
      <use xlink:href="#ArialUnicodeMS-4e0a" x="200"/>
      <use xlink:href="#ArialUnicodeMS-96be" x="300"/>
      <use xlink:href="#ArialUnicodeMS-4ee5" x="400"/>
      <use xlink:href="#ArialUnicodeMS-5b9e" x="500"/>
      <use xlink:href="#ArialUnicodeMS-73b0" x="600"/>
      <use xlink:href="#ArialUnicodeMS-533a" x="700"/>
      <use xlink:href="#ArialUnicodeMS-57df" x="800"/>
     </g>
    </g>
    <g id="patch_10">
     <path d="M 469.061875 53.678437 
L 489.061875 53.678437 
L 489.061875 46.678437 
L 469.061875 46.678437 
z
" style="fill: url(#h15daba09a6); fill-opacity: 0.5; stroke: #808080; stroke-opacity: 0.5; stroke-linejoin: miter"/>
    </g>
    <g id="text_24">
     <!-- 物理上不可能区域 -->
     <g style="fill: #262626" transform="translate(497.061875 53.678437) scale(0.1 -0.1)">
      <defs>
       <path id="ArialUnicodeMS-7269" d="M 5894 4372 
Q 5778 2013 5592 1016 
Q 5406 19 5240 -150 
Q 5075 -319 4794 -319 
Q 4650 -319 4091 -172 
L 3994 325 
Q 4588 141 4688 141 
Q 4888 141 4963 342 
Q 5038 544 5184 1453 
Q 5331 2363 5394 3903 
L 5063 3903 
Q 4900 1088 3278 -319 
L 2841 -38 
Q 4422 1244 4616 3903 
L 4213 3903 
Q 3875 1706 2631 556 
L 2216 825 
Q 3500 2034 3756 3903 
L 3425 3903 
Q 3147 3078 2675 2484 
L 2222 2688 
Q 3091 3713 3225 5306 
L 3659 5191 
Q 3641 4784 3541 4372 
L 5894 4372 
z
M 2778 1894 
L 2081 1625 
L 2081 -469 
L 1594 -469 
L 1594 1422 
L 788 1100 
L 453 1478 
L 1594 1913 
L 1594 3366 
L 1247 3366 
Q 1128 2781 891 2369 
L 434 2541 
Q 863 3241 831 4622 
L 1319 4525 
Q 1334 4269 1334 4109 
Q 1334 3941 1319 3834 
L 1594 3834 
L 1594 5269 
L 2081 5269 
L 2081 3834 
L 2650 3834 
L 2650 3366 
L 2081 3366 
L 2081 2106 
L 2778 2369 
L 2778 1894 
z
" transform="scale(0.015625)"/>
       <path id="ArialUnicodeMS-7406" d="M 6047 -103 
L 2163 -103 
L 2163 366 
L 3853 366 
L 3853 1094 
L 2572 1094 
L 2572 1563 
L 3853 1563 
L 3853 2163 
L 2528 2163 
L 2528 4959 
L 5656 4959 
L 5656 2163 
L 4341 2163 
L 4341 1563 
L 5613 1563 
L 5613 1094 
L 4341 1094 
L 4341 366 
L 6047 366 
L 6047 -103 
z
M 5191 4494 
L 4341 4494 
L 4341 3822 
L 5178 3822 
L 5191 4494 
z
M 3853 3822 
L 3853 4494 
L 3016 4494 
L 3016 3822 
L 3853 3822 
z
M 5172 2631 
L 5172 3353 
L 4341 3353 
L 4341 2631 
L 5172 2631 
z
M 3853 2631 
L 3853 3353 
L 3016 3353 
L 3016 2631 
L 3853 2631 
z
M 2456 1153 
L 647 409 
L 225 794 
Q 553 891 1191 1131 
L 1191 2606 
L 544 2606 
L 544 3072 
L 1191 3072 
L 1191 4319 
L 416 4319 
L 416 4788 
L 2400 4788 
L 2400 4319 
L 1678 4319 
L 1678 3072 
L 2309 3072 
L 2309 2606 
L 1678 2606 
L 1678 1319 
Q 2200 1538 2456 1631 
L 2456 1153 
z
" transform="scale(0.015625)"/>
       <path id="ArialUnicodeMS-4e0d" d="M 5900 4434 
L 3834 4434 
Q 3700 4209 3425 3816 
L 3425 -416 
L 2900 -416 
L 2900 3194 
Q 2281 2363 775 1528 
L 453 1947 
Q 1431 2419 2047 2975 
Q 2663 3531 3219 4434 
L 550 4434 
L 550 4922 
L 5900 4922 
L 5900 4434 
z
M 5941 1838 
L 5550 1503 
Q 4619 2634 3597 3078 
L 3938 3419 
Q 4969 2953 5941 1838 
z
" transform="scale(0.015625)"/>
       <path id="ArialUnicodeMS-80fd" d="M 3419 3494 
L 3003 3231 
L 2809 3591 
L 531 3469 
L 403 3963 
L 844 3975 
Q 1316 4656 1644 5403 
L 2131 5191 
Q 1716 4381 1409 3975 
L 2541 4019 
Q 2359 4294 2144 4500 
L 2572 4738 
Q 3122 4225 3419 3494 
z
M 5978 3675 
Q 5825 2528 5294 2528 
L 4122 2528 
Q 3800 2563 3676 2722 
Q 3553 2881 3553 3009 
L 3553 5222 
L 4038 5222 
L 4038 4197 
Q 4997 4469 5556 4909 
L 5850 4544 
Q 5219 4009 4038 3719 
L 4038 3175 
Q 4066 2994 4366 2994 
L 5209 2994 
Q 5431 2994 5509 3853 
L 5978 3675 
z
M 3059 250 
Q 3059 28 2954 -105 
Q 2850 -238 2701 -277 
Q 2553 -316 1972 -306 
L 1791 184 
Q 2147 147 2297 147 
Q 2572 147 2572 319 
L 2572 922 
L 1234 922 
L 1234 -353 
L 750 -353 
L 750 3091 
L 3059 3091 
L 3059 250 
z
M 2572 2241 
L 2572 2625 
L 1234 2625 
L 1234 2241 
L 2572 2241 
z
M 2572 1388 
L 2572 1772 
L 1234 1772 
L 1234 1388 
L 2572 1388 
z
M 6138 800 
Q 6019 134 5831 -73 
Q 5644 -281 5369 -281 
L 4166 -281 
Q 3859 -281 3718 -92 
Q 3578 97 3578 263 
L 3578 2309 
L 4063 2309 
L 4063 1422 
Q 4950 1625 5606 2113 
L 5941 1753 
Q 5169 1163 4063 941 
L 4063 347 
Q 4063 184 4281 184 
L 5319 184 
Q 5469 184 5544 362 
Q 5619 541 5663 1031 
L 6138 800 
z
" transform="scale(0.015625)"/>
      </defs>
      <use xlink:href="#ArialUnicodeMS-7269"/>
      <use xlink:href="#ArialUnicodeMS-7406" x="100"/>
      <use xlink:href="#ArialUnicodeMS-4e0a" x="200"/>
      <use xlink:href="#ArialUnicodeMS-4e0d" x="300"/>
      <use xlink:href="#ArialUnicodeMS-53ef" x="400"/>
      <use xlink:href="#ArialUnicodeMS-80fd" x="500"/>
      <use xlink:href="#ArialUnicodeMS-533a" x="600"/>
      <use xlink:href="#ArialUnicodeMS-57df" x="700"/>
     </g>
    </g>
   </g>
  </g>
 </g>
 <defs>
  <clipPath id="p29d1ade687">
   <rect x="38.061875" y="23.345625" width="558" height="332.64"/>
  </clipPath>
 </defs>
 <defs>
  <pattern id="h3efa51999a" patternUnits="userSpaceOnUse" x="0" y="0" width="72" height="72">
   <rect x="0" y="0" width="73" height="73" fill="#d3d3d3"/>
   <path d="M -36 36 
L 36 -36 
M -34 38 
L 38 -34 
M -32 40 
L 40 -32 
M -30 42 
L 42 -30 
M -28 44 
L 44 -28 
M -26 46 
L 46 -26 
M -24 48 
L 48 -24 
M -22 50 
L 50 -22 
M -20 52 
L 52 -20 
M -18 54 
L 54 -18 
M -16 56 
L 56 -16 
M -14 58 
L 58 -14 
M -12 60 
L 60 -12 
M -10 62 
L 62 -10 
M -8 64 
L 64 -8 
M -6 66 
L 66 -6 
M -4 68 
L 68 -4 
M -2 70 
L 70 -2 
M 0 72 
L 72 0 
M 2 74 
L 74 2 
M 4 76 
L 76 4 
M 6 78 
L 78 6 
M 8 80 
L 80 8 
M 10 82 
L 82 10 
M 12 84 
L 84 12 
M 14 86 
L 86 14 
M 16 88 
L 88 16 
M 18 90 
L 90 18 
M 20 92 
L 92 20 
M 22 94 
L 94 22 
M 24 96 
L 96 24 
M 26 98 
L 98 26 
M 28 100 
L 100 28 
M 30 102 
L 102 30 
M 32 104 
L 104 32 
M 34 106 
L 106 34 
M 36 108 
L 108 36 
" style="fill: #808080; stroke: #808080; stroke-width: 0.5; stroke-linecap: butt; stroke-linejoin: miter; stroke-opacity: 0.5"/>
  </pattern>
  <pattern id="h15daba09a6" patternUnits="userSpaceOnUse" x="0" y="0" width="72" height="72">
   <rect x="0" y="0" width="73" height="73" fill="#d3d3d3"/>
   <path d="M -36 36 
L 36 108 
M -33 33 
L 39 105 
M -30 30 
L 42 102 
M -27 27 
L 45 99 
M -24 24 
L 48 96 
M -21 21 
L 51 93 
M -18 18 
L 54 90 
M -15 15 
L 57 87 
M -12 12 
L 60 84 
M -9 9 
L 63 81 
M -6 6 
L 66 78 
M -3 3 
L 69 75 
M 0 0 
L 72 72 
M 3 -3 
L 75 69 
M 6 -6 
L 78 66 
M 9 -9 
L 81 63 
M 12 -12 
L 84 60 
M 15 -15 
L 87 57 
M 18 -18 
L 90 54 
M 21 -21 
L 93 51 
M 24 -24 
L 96 48 
M 27 -27 
L 99 45 
M 30 -30 
L 102 42 
M 33 -33 
L 105 39 
M 36 -36 
L 108 36 
" style="fill: #808080; stroke: #808080; stroke-width: 0.5; stroke-linecap: butt; stroke-linejoin: miter; stroke-opacity: 0.5"/>
  </pattern>
 </defs>
</svg>
